<mxfile host="app.diagrams.net" agent="Mozilla/5.0 (Windows NT 10.0; Win64; x64) AppleWebKit/537.36 (KHTML, like Gecko) Chrome/132.0.0.0 Safari/537.36" version="26.0.14">
  <diagram name="第 1 页" id="X5hAtqlEn1NozmFrOqCM">
    <mxGraphModel dx="774" dy="752" grid="1" gridSize="10" guides="1" tooltips="1" connect="1" arrows="1" fold="1" page="1" pageScale="1" pageWidth="827" pageHeight="1169" background="none" math="0" shadow="0">
      <root>
        <mxCell id="0" />
        <mxCell id="1" parent="0" />
        <mxCell id="UdDubUNsqIhO31zFjMTl-4" value="Add &amp;amp; Norm" style="rounded=1;whiteSpace=wrap;html=1;fillColor=#d5e8d4;gradientColor=#97d077;strokeColor=#82b366;" vertex="1" parent="1">
          <mxGeometry x="80" y="440" width="160" height="30" as="geometry" />
        </mxCell>
        <mxCell id="UdDubUNsqIhO31zFjMTl-5" value="Feed Forward&lt;div&gt;&lt;br&gt;&lt;/div&gt;&lt;div&gt;&lt;br&gt;&lt;/div&gt;&lt;div&gt;&lt;br&gt;&lt;/div&gt;&lt;div&gt;&lt;br&gt;&lt;/div&gt;" style="rounded=1;whiteSpace=wrap;html=1;fillColor=#b0e3e6;strokeColor=#0e8088;align=center;arcSize=14;" vertex="1" parent="1">
          <mxGeometry x="80" y="490" width="160" height="90" as="geometry" />
        </mxCell>
        <mxCell id="UdDubUNsqIhO31zFjMTl-6" value="Add &amp;amp; Norm" style="rounded=1;whiteSpace=wrap;html=1;fillColor=#d5e8d4;gradientColor=#97d077;strokeColor=#82b366;" vertex="1" parent="1">
          <mxGeometry x="80" y="611.21" width="160" height="30" as="geometry" />
        </mxCell>
        <mxCell id="UdDubUNsqIhO31zFjMTl-7" value="&lt;div&gt;&lt;br&gt;&lt;/div&gt;&lt;div&gt;&lt;br&gt;&lt;/div&gt;&lt;div&gt;&lt;br&gt;&lt;/div&gt;Multi-Head&lt;div&gt;Attention&lt;/div&gt;" style="rounded=1;whiteSpace=wrap;html=1;fillColor=#b0e3e6;strokeColor=#0e8088;" vertex="1" parent="1">
          <mxGeometry x="80" y="660" width="160" height="90" as="geometry" />
        </mxCell>
        <mxCell id="UdDubUNsqIhO31zFjMTl-9" value="" style="shape=trapezoid;perimeter=trapezoidPerimeter;whiteSpace=wrap;html=1;fixedSize=1;rotation=-180;horizontal=1;" vertex="1" parent="1">
          <mxGeometry x="125" y="519" width="70" height="25" as="geometry" />
        </mxCell>
        <mxCell id="UdDubUNsqIhO31zFjMTl-11" value="W&lt;span style=&quot;font-size: 8.33333px;&quot;&gt;&lt;sub&gt;down&lt;/sub&gt;&lt;/span&gt;" style="shape=trapezoid;perimeter=trapezoidPerimeter;whiteSpace=wrap;html=1;fixedSize=1;rotation=0;" vertex="1" parent="1">
          <mxGeometry x="125" y="550" width="70" height="25" as="geometry" />
        </mxCell>
        <mxCell id="UdDubUNsqIhO31zFjMTl-12" value="" style="endArrow=classic;html=1;rounded=0;" edge="1" parent="1">
          <mxGeometry width="50" height="50" relative="1" as="geometry">
            <mxPoint x="160" y="610" as="sourcePoint" />
            <mxPoint x="159.66" y="580" as="targetPoint" />
          </mxGeometry>
        </mxCell>
        <mxCell id="UdDubUNsqIhO31zFjMTl-13" value="" style="endArrow=classic;html=1;rounded=0;" edge="1" parent="1">
          <mxGeometry width="50" height="50" relative="1" as="geometry">
            <mxPoint x="160" y="790" as="sourcePoint" />
            <mxPoint x="159.66" y="750" as="targetPoint" />
          </mxGeometry>
        </mxCell>
        <mxCell id="UdDubUNsqIhO31zFjMTl-14" value="" style="endArrow=classic;html=1;rounded=0;" edge="1" parent="1">
          <mxGeometry width="50" height="50" relative="1" as="geometry">
            <mxPoint x="160" y="440" as="sourcePoint" />
            <mxPoint x="159.66" y="400" as="targetPoint" />
          </mxGeometry>
        </mxCell>
        <mxCell id="UdDubUNsqIhO31zFjMTl-15" value="" style="endArrow=classic;html=1;rounded=0;" edge="1" parent="1">
          <mxGeometry width="50" height="50" relative="1" as="geometry">
            <mxPoint x="160" y="661.21" as="sourcePoint" />
            <mxPoint x="159.66" y="641.21" as="targetPoint" />
          </mxGeometry>
        </mxCell>
        <mxCell id="UdDubUNsqIhO31zFjMTl-16" value="" style="endArrow=classic;html=1;rounded=0;" edge="1" parent="1">
          <mxGeometry width="50" height="50" relative="1" as="geometry">
            <mxPoint x="160.00000000000003" y="490" as="sourcePoint" />
            <mxPoint x="159.66" y="470" as="targetPoint" />
            <Array as="points" />
          </mxGeometry>
        </mxCell>
        <mxCell id="UdDubUNsqIhO31zFjMTl-17" value="K" style="whiteSpace=wrap;html=1;aspect=fixed;" vertex="1" parent="1">
          <mxGeometry x="143.5" y="670" width="33" height="33" as="geometry" />
        </mxCell>
        <mxCell id="UdDubUNsqIhO31zFjMTl-18" value="Q" style="whiteSpace=wrap;html=1;aspect=fixed;" vertex="1" parent="1">
          <mxGeometry x="92" y="670" width="33" height="33" as="geometry" />
        </mxCell>
        <mxCell id="UdDubUNsqIhO31zFjMTl-19" value="V" style="whiteSpace=wrap;html=1;aspect=fixed;" vertex="1" parent="1">
          <mxGeometry x="195" y="670" width="33" height="33" as="geometry" />
        </mxCell>
        <mxCell id="UdDubUNsqIhO31zFjMTl-20" value="" style="rounded=1;whiteSpace=wrap;html=1;" vertex="1" parent="1">
          <mxGeometry x="300" y="460" width="380" height="230" as="geometry" />
        </mxCell>
        <mxCell id="UdDubUNsqIhO31zFjMTl-21" value="" style="endArrow=none;dashed=1;html=1;rounded=0;entryX=-0.005;entryY=0.116;entryDx=0;entryDy=0;entryPerimeter=0;exitX=1;exitY=0;exitDx=0;exitDy=0;" edge="1" parent="1" source="UdDubUNsqIhO31zFjMTl-19" target="UdDubUNsqIhO31zFjMTl-20">
          <mxGeometry width="50" height="50" relative="1" as="geometry">
            <mxPoint x="220" y="680" as="sourcePoint" />
            <mxPoint x="270" y="630" as="targetPoint" />
          </mxGeometry>
        </mxCell>
        <mxCell id="UdDubUNsqIhO31zFjMTl-22" value="" style="endArrow=none;dashed=1;html=1;rounded=0;entryX=0.025;entryY=0.952;entryDx=0;entryDy=0;entryPerimeter=0;exitX=1;exitY=1;exitDx=0;exitDy=0;" edge="1" parent="1" source="UdDubUNsqIhO31zFjMTl-19" target="UdDubUNsqIhO31zFjMTl-20">
          <mxGeometry width="50" height="50" relative="1" as="geometry">
            <mxPoint x="230" y="690" as="sourcePoint" />
            <mxPoint x="309" y="520" as="targetPoint" />
          </mxGeometry>
        </mxCell>
        <mxCell id="UdDubUNsqIhO31zFjMTl-23" value="W&lt;sub&gt;up&lt;/sub&gt;" style="text;html=1;align=center;verticalAlign=middle;whiteSpace=wrap;rounded=0;" vertex="1" parent="1">
          <mxGeometry x="130" y="516.5" width="60" height="30" as="geometry" />
        </mxCell>
        <mxCell id="UdDubUNsqIhO31zFjMTl-24" value="W&lt;span style=&quot;font-size: 10px;&quot;&gt;&lt;sub&gt;pretrained&lt;/sub&gt;&lt;/span&gt;" style="whiteSpace=wrap;html=1;aspect=fixed;" vertex="1" parent="1">
          <mxGeometry x="310" y="557.5" width="65" height="65" as="geometry" />
        </mxCell>
        <mxCell id="UdDubUNsqIhO31zFjMTl-25" value="" style="shape=trapezoid;perimeter=trapezoidPerimeter;whiteSpace=wrap;html=1;fixedSize=1;rotation=-180;fillColor=#b1ddf0;strokeColor=#10739e;" vertex="1" parent="1">
          <mxGeometry x="414" y="550" width="60" height="40" as="geometry" />
        </mxCell>
        <mxCell id="UdDubUNsqIhO31zFjMTl-26" value="A" style="shape=trapezoid;perimeter=trapezoidPerimeter;whiteSpace=wrap;html=1;fixedSize=1;fillColor=#b1ddf0;strokeColor=#10739e;" vertex="1" parent="1">
          <mxGeometry x="414" y="615" width="60" height="40" as="geometry" />
        </mxCell>
        <mxCell id="UdDubUNsqIhO31zFjMTl-27" value="" style="shape=trapezoid;perimeter=trapezoidPerimeter;whiteSpace=wrap;html=1;fixedSize=1;rotation=-180;fillColor=#fad7ac;strokeColor=#b46504;" vertex="1" parent="1">
          <mxGeometry x="490" y="550" width="60" height="40" as="geometry" />
        </mxCell>
        <mxCell id="UdDubUNsqIhO31zFjMTl-29" value="" style="shape=trapezoid;perimeter=trapezoidPerimeter;whiteSpace=wrap;html=1;fixedSize=1;rotation=-180;fillColor=#fad9d5;strokeColor=#ae4132;" vertex="1" parent="1">
          <mxGeometry x="610" y="550" width="60" height="40" as="geometry" />
        </mxCell>
        <mxCell id="UdDubUNsqIhO31zFjMTl-30" value="" style="endArrow=none;dashed=1;html=1;rounded=0;" edge="1" parent="1">
          <mxGeometry width="50" height="50" relative="1" as="geometry">
            <mxPoint x="559.66" y="540" as="sourcePoint" />
            <mxPoint x="559.66" y="670" as="targetPoint" />
          </mxGeometry>
        </mxCell>
        <mxCell id="UdDubUNsqIhO31zFjMTl-31" value="" style="endArrow=none;dashed=1;html=1;rounded=0;" edge="1" parent="1">
          <mxGeometry width="50" height="50" relative="1" as="geometry">
            <mxPoint x="409.31" y="540" as="sourcePoint" />
            <mxPoint x="409.31" y="670" as="targetPoint" />
          </mxGeometry>
        </mxCell>
        <mxCell id="UdDubUNsqIhO31zFjMTl-32" value="" style="shape=cross;whiteSpace=wrap;html=1;fillColor=#000000;" vertex="1" parent="1">
          <mxGeometry x="550" y="580" width="20" height="20" as="geometry" />
        </mxCell>
        <mxCell id="UdDubUNsqIhO31zFjMTl-33" value="" style="shape=cross;whiteSpace=wrap;html=1;fillColor=#000000;" vertex="1" parent="1">
          <mxGeometry x="470" y="580" width="20" height="20" as="geometry" />
        </mxCell>
        <mxCell id="UdDubUNsqIhO31zFjMTl-34" value="" style="shape=cross;whiteSpace=wrap;html=1;fillColor=#000000;" vertex="1" parent="1">
          <mxGeometry x="380" y="580" width="20" height="20" as="geometry" />
        </mxCell>
        <mxCell id="UdDubUNsqIhO31zFjMTl-36" value="" style="endArrow=none;dashed=1;html=1;rounded=0;" edge="1" parent="1">
          <mxGeometry width="50" height="50" relative="1" as="geometry">
            <mxPoint x="410" y="540" as="sourcePoint" />
            <mxPoint x="560" y="540" as="targetPoint" />
          </mxGeometry>
        </mxCell>
        <mxCell id="UdDubUNsqIhO31zFjMTl-37" value="" style="endArrow=none;dashed=1;html=1;rounded=0;" edge="1" parent="1">
          <mxGeometry width="50" height="50" relative="1" as="geometry">
            <mxPoint x="410" y="669" as="sourcePoint" />
            <mxPoint x="560" y="669" as="targetPoint" />
          </mxGeometry>
        </mxCell>
        <mxCell id="UdDubUNsqIhO31zFjMTl-38" value="" style="endArrow=classic;html=1;rounded=0;" edge="1" parent="1">
          <mxGeometry width="50" height="50" relative="1" as="geometry">
            <mxPoint x="490" y="540" as="sourcePoint" />
            <mxPoint x="520" y="510" as="targetPoint" />
          </mxGeometry>
        </mxCell>
        <mxCell id="UdDubUNsqIhO31zFjMTl-39" value="Orthogonal&lt;div&gt;loss&lt;/div&gt;" style="rounded=0;whiteSpace=wrap;html=1;" vertex="1" parent="1">
          <mxGeometry x="520" y="480" width="104" height="30" as="geometry" />
        </mxCell>
        <mxCell id="UdDubUNsqIhO31zFjMTl-40" value="" style="endArrow=classic;html=1;rounded=0;entryX=1;entryY=1;entryDx=0;entryDy=0;exitX=0.5;exitY=1;exitDx=0;exitDy=0;" edge="1" parent="1" source="UdDubUNsqIhO31zFjMTl-29" target="UdDubUNsqIhO31zFjMTl-39">
          <mxGeometry width="50" height="50" relative="1" as="geometry">
            <mxPoint x="640" y="546.5" as="sourcePoint" />
            <mxPoint x="690" y="496.5" as="targetPoint" />
          </mxGeometry>
        </mxCell>
        <mxCell id="UdDubUNsqIhO31zFjMTl-41" value="" style="endArrow=classic;html=1;rounded=0;entryX=0.5;entryY=0;entryDx=0;entryDy=0;exitX=0.5;exitY=0;exitDx=0;exitDy=0;" edge="1" parent="1" source="UdDubUNsqIhO31zFjMTl-26" target="UdDubUNsqIhO31zFjMTl-25">
          <mxGeometry width="50" height="50" relative="1" as="geometry">
            <mxPoint x="440" y="610" as="sourcePoint" />
            <mxPoint x="490" y="560" as="targetPoint" />
          </mxGeometry>
        </mxCell>
        <mxCell id="UdDubUNsqIhO31zFjMTl-42" value="" style="endArrow=classic;html=1;rounded=0;exitX=0.5;exitY=0;exitDx=0;exitDy=0;entryX=0.5;entryY=0;entryDx=0;entryDy=0;" edge="1" parent="1" source="UdDubUNsqIhO31zFjMTl-26" target="UdDubUNsqIhO31zFjMTl-27">
          <mxGeometry width="50" height="50" relative="1" as="geometry">
            <mxPoint x="490" y="640" as="sourcePoint" />
            <mxPoint x="540" y="590" as="targetPoint" />
          </mxGeometry>
        </mxCell>
        <mxCell id="UdDubUNsqIhO31zFjMTl-43" value="" style="endArrow=classic;html=1;rounded=0;exitX=0.5;exitY=0;exitDx=0;exitDy=0;entryX=0.5;entryY=0;entryDx=0;entryDy=0;" edge="1" parent="1" source="UdDubUNsqIhO31zFjMTl-26" target="UdDubUNsqIhO31zFjMTl-29">
          <mxGeometry width="50" height="50" relative="1" as="geometry">
            <mxPoint x="654.75" y="590" as="sourcePoint" />
            <mxPoint x="580" y="655" as="targetPoint" />
          </mxGeometry>
        </mxCell>
        <mxCell id="UdDubUNsqIhO31zFjMTl-44" value="B&lt;sub&gt;1&lt;/sub&gt;" style="text;html=1;align=center;verticalAlign=middle;whiteSpace=wrap;rounded=0;" vertex="1" parent="1">
          <mxGeometry x="414" y="555" width="60" height="30" as="geometry" />
        </mxCell>
        <mxCell id="UdDubUNsqIhO31zFjMTl-45" value="B&lt;span style=&quot;font-size: 10px;&quot;&gt;&lt;sub&gt;2&lt;/sub&gt;&lt;/span&gt;" style="text;html=1;align=center;verticalAlign=middle;whiteSpace=wrap;rounded=0;" vertex="1" parent="1">
          <mxGeometry x="490" y="555" width="60" height="30" as="geometry" />
        </mxCell>
        <mxCell id="UdDubUNsqIhO31zFjMTl-46" value="B&lt;sub&gt;N&lt;/sub&gt;" style="text;html=1;align=center;verticalAlign=middle;whiteSpace=wrap;rounded=0;" vertex="1" parent="1">
          <mxGeometry x="610" y="555" width="60" height="30" as="geometry" />
        </mxCell>
        <mxCell id="UdDubUNsqIhO31zFjMTl-47" value="" style="shape=image;verticalLabelPosition=bottom;labelBackgroundColor=default;verticalAlign=top;aspect=fixed;imageAspect=0;image=data:image/png,iVBORw0KGgoAAAANSUhEUgAAAEIAAAA6CAIAAACLRxgTAAAW8klEQVRoBbVaB3cT17bmZ7y3Xrn3vXtvGklIQkIKKY/mQuiQ0JLQQg81lNCLwYCx6WCKQzMG04kBUwLEYDv04o6rbMnqdSSNpp1zvrfOjCSEQxxYuXfWXvZIGh3t7+x69t4dCGAQBf6Q4g+3udEANUpUhaYTUUE0UJKwrPEtDTAo8SOqv6kCik4yWCIpYIq+fvyLbRjokMg6A9qhxCfjq8R50mEwFUSFqkJRdNJAKFjimomL0Kd/juhIFEAGk0ATSQZVwFQw7Xc2/QkMhvYug5VEJuJbG5MDU2GIQlYgGUSgMmYAiS6eCCn6i7G3YgJhCsdAIjGSQCQQBVQDayPAOD8dYotwObR/JT7JYqoSB6PxraIqVAURFaIGkSBCqcxIXCRtkfCf5IwwgxhjlDHCF6EKiKxzb2CQYzAMvttwwoAO7bP+7E/1ZRjj6mKsS/g+MY1rlKJAVBEmLMRoiClhRERIElc0QrilcOHo8uFfZlzpNAqNQCOMEEYJZYRwo+KmJSeQGv1yVO3bMPbiMJ7eCg6G7ymjoJRzqmqQCRWpIiDiY34Xddip0wGfB2EBkTCUCDRjc3U70nT5qQqXoqYyojGiUUo4Jh2J/lDcW0TNrA0GvLA0DAxxleQvjYurAye+vYSqEg37mddOWhq1qnJSXcFMdbC3wGtHyAtJgBKCJkIVocQpAkWCqjCNI2GUr8YlExMO4dtE9U2Lb+QTOC8ijTYYonrKdCWJqZWuMEyWWMBHbWa1ukz69Rep5Kp8t1gtv00aK5mjCX4bQi7Ifp0CkAXIQcghyBEoMlc/TTM00NgaXch8d2IqnGggUSR/GgbfIEPdddUnXMsREZnfS60t8sNbwUun/T8d9v2U5zt7WCy5QKpuoqUSriaEHBCdkDyQfZD8XERyuA0MxGWiC/lfA8NwUtzP6HZh/NUIFA2hMLxuajFFbhX5Th1w7N9i3b3esnON78Qeueg0KytC00O4G+BvQciGiAsRDyJ+LhBV0oOnLg3dJcSN/l8gDY0lRH4DhuF2GFQCWUUwBJeTmerF4sve/F327HRz1iLTmtnO7LRQ/nbl0mFyuxCPb8JcxsEIrQg7IPmgBDkMohs65V7riYX8sTTiBvM8NxRcRVUKTZdw9CuG69WRqBSyBiEIu43VVUlF5wN525xbl1nWzDItHm9bPcOzYUEoZ41ycheuHcfDq2jWxRJsheyFKkCLMKJQqurelxCmcTL8cQxJgpUnmvjzcB9/hkdayrdcNdyGDoB/GpOGoiIiw+NFcyMtvytfPikc3ODZ9IMtbXLz/JG2RaPdS8cH1s6MZC/XDm+iV/JZRREs5fA2QXJBDTASZlQmTNV46NB0UjXuxFXCf5jEnNUTAMZdh2g4iTPa/o0hjWjM0sMW9+/6+twqVN0qvKzFRCvuaSWXpJ/2CT+u8m6c5Ur71r5gmHvhCP/ir4MrxgXXTQ9u/kE6to0Un0JNCVqrELRC8jA1yKhEmBKPKaqOwYCh/5Lhc/8MjHi4oIzLWVZZRIascO6NbFCKwOuGxUSrHqill+TzeeEjG4WdC/wbpvpWj/It+UJY8qW4ZGh4yQjfkm+cS8cJO5crZ3PY7UJWfxfeZu675EAchgJN4ety+lfA4H6JyTIJBjWfjwoCwkbGEYYYYDYTrbmv/HpRPHdQOJTpz1ns3zItkDU2uHZkeNUQaeUQZfkX4uLB7vmDWmYPdGZMEw5kyBfztEdFsNfB38oDvxYhVNGTEQ7DQPLPg8FFYcRoAk0lIUFx2iRLs+awMp8LQS9EL4JO0vhQvVUYPr/XezDdvmWmc9NET+Y3gczhYuZQNfNLsu4Lkj5EXNbfMSe1bkrP5iVf2zbO8x3eEik+i+YKuJoR8jBFpETWMytNi0lDF4j2z1AqIw8lGo9Qkqh6HOGmumBNudRcS3mWYUXQxgItSmWReHG/Ly/dvm1GS/pI29qh7nWDgusHyRuHsK1fsg1DWMagyIo+9u971IzvWvf9gMZl463ZK4WL+az2AayNCLghi0yT9UxE0zM0Q6+MwP7nTdwQhapADLKAJ2Jp9Fbcc94rFmoeqObH1NXIhBbqqwvfLfDkZ9h3zLZmjmlNG+RM7+db2yec1VfZMgA7BmPzQKzvJ61Mdc7tXj/po9rpqdVzhjVlzPGd2ssqb6OlDj4npDBUiVGNcldruCnDZRnO5E+aOIdBoEgs4KUOc6iu3H7nekvxRW9ZidxURuw1zFdP3BX+G4csu+e2ZIxqXT3EsbK3Nz1VyEiObExVt/fFroHY2g9ZfeRVyZ753Zqndq2d2rN8ar+aZZPdh3ewhyVoquG5YyTEc0SqMsb9uk4cRswh/nkYlECJUJ9Ta20I1ty33/nFUnrRV1EiN5cRayV1lJOWX70Xs00bJ5rSBttX9vWlJQvrksQNvZStySS7N3b3xY6+2NxHWZPqX9itddrHDVO6l09KrVn0rfvQVnb/Bhqr4LEhEuTJPNUY4weRBOIa9afjBl9BY4qo+eyypS5U98BXXuIpux5quKc5HjNbBTPdJGXnvSczmtZ907y8rystNZSeFMlKUrcmkexktisFe1Kxqy92DFCz+gqLe9i/+6h5avfHUz5vWDLem7eVPbiBxkp4rIgIPCXhB0GuAAlkWOezD6nPH/4MGGHVZ5PMj8XGh6HaW6HaX2VLGfXWo/Uhq76qlRz2HFratHqoeWmqb1WynNFL25xEdyWxnGREqQ/2DFI39Qsu7eGc+oF5areGqb2bl37rP7SZ3b2KugdwmBB0QwryI1O0fvAkWukViLaB70WjOOX6qoSIz6q2Viumh3L9LaX+V631AfPUsObb5EGBfHmXZ9+8llWDbcuThfQkLasX3ZbEcpKwLwn7dfqxN3L6q5s+Dy7+zDn5XcvkT5omJ5kXjgrsXcuuF+DRdTQ+gqOBH0giAX6ooopeCYkfMJ6NQT/9tZ99xD+lhC+qBJnfQq2V1HSP1JeQuhvUfBvOMlpfpP56JHImy7t7hnXVANfKpPC6XmxTT7azFweQm4RDOu1LxZ4+6sYkYdFHjkmdLBM+ME3oZpk7TNi+lJ3PxY2f8OAa6u6gtQZ+K8JejoRp0bP770LgHzy3UlHCz/eSH+5GmO6xmuuk7IL28BytvQrLTVJZKF/NCeev9GVPcqb3961OkrKSsK0XcnTujyQhvxeng8nISVE39Agset8x6fXW8Z1bxnVtndEvkDFdy91AzuzRrhwht87T6lK0VsNrgRTgdRJ+LGtHoV4MhsbrRqIbrZWovKrdOiVd3R++tEe5dYw9vkTuHpXObQztmxfYOsa7tl9wXYqyORm7knEgGUdTcCIZJ5M45fXC3l7qps+EJe85p3a0TehkGfuudVJ336IRUtasyK5lYt566ewerfQMOJLHENw8seL1lHZl8SLSUHkRIOhA4z3cPqNc/jF0IjNweJV4Ybt2K0+5kh0+sjSwfVJg4whhXV8xK1XdnoIfU3E4FadSUZCCgmQUJOFoT+zvoW75OLSis3vGa45Jr1vHvGkb94FneoqwYFhg1be+jTMD+1ZK53i+iPoH3P8qEk/YeUmkveu5lYqo0MIIWNnjUlaUJ5/eJOxb4t05W8hdLJ5aE8pb5NsxyZUxzJcxMLi+d2RzqrYrFQd641hvnO2Nwt64kIrCZJzsiUPdtR1dxdWd/XNf83zX0Tmuo33MW87xH7mn9HTM7te6cJg9Y0owL4P9chQVpbA3Qwzz/PBPwTDwG3rJa7Mh+My0/Bq5sDuSlxbYPsO9fox3wzjflgnuzK9tqwZal6V40pODWcny9hSNi6I3Tn2OC33wcx/8/Dkup+KnXsjvRvZ0ldZ3Di1+PTDrNe/EV52jX7OPerP163dMYz+sm/B/jfOGeLMXsMK9uHcV5noEA5ClfwYMvQTFhRvxM2ejdrdQOrExuHu+N2Osc+kg17IB7mX9nEtSrIu6Wxd96k3vFt7cS9mdTHJ743gfnO2HK/3xS3/80g+/9EFhCk72oAc+Ubd1kdLfCi98XZj+qm/8K45Rr1iGvdIw/I2qkW8/ntLLnTWdntmBmxdgqkHABynCk+t2r99XqqgoGNMIUVQaDjK/k5qrpesnhANpng1THEuHWL/v6Zjb3T2/m3vhp67FXd3LuwrrP4vs6KnsTyFHP0dBf1weiOtDUDoEpYNROghX+uJcMjvWnez9WNvSRVn9tvzDG+K0V/3fvuL46h+mEa9UDe/4eMKn7ozJ9ORWlJ7j6Ynfy8unRD+B/z6SDs9oaiQg5+VhVdMkmQh+5rGShkfipTxv9kLHqlGtc1ItUz60T3/fNfs97w/v+Zd2EVZ/IG7+VM7poR1OpWf64tIgXP8Ct0bg7kjcG4F7w1E8mCvY2SSW343t/Zht6kJXdFLnvBac8pJ71P80j/h71Zcv1Yz7yLVmAj2+GSUFaKjgVVNR5LmV0Ub4HSR/BIMyomhqRCYBH3NbSf3D8IVc97b59hVfWWb1NE98x/bdW+6Zb/h/6BRa8XZk/Xty9idqbi9y6nN6cSCuf4lbX+HhWJSPQ8U4VIzB3REoGYwrfbjXyu+GnR9g3VvawleD0/7mHP1fjSP+UjbkbxVj3nekj6cntqH0PJp0aYRFXsEg7YWODlztEtOWRNAMjDCqaFrEkIaNNDwKXcx1b51vWz7SPLNby4Q3bVM7ema+HFz4WmT1m+qmztreT+jxZHqhPyv6Ene+wqNxqJmK2mmo+w51U1AxFvdH6NrVBwW9sP8jbHxLXfZyYOZfraP/vXbEf94b/NcHo7tY10ykp3bi5iU0P0bADzECRa+MJahJG6l04DGyDRLjaaNQbsCQZBISmM9BTBXiz0d82Ysdad+YZ/donvimfdqr3tl/Dy15Wc54nWS/Qw9/ys6lsqLBuD2SS6D2O5jmomU+zPPQMgf1U1E1BveHoWQgLqcg/2PseEtd/bJvzl/M3/5b9Tf/fWfYP+6P/8SaOY0U7MXdazA3ICggInEYmt4MacN+7KUOI96neKqNxUtPjFCqakRWqBhkgptaapQbp8MH1ngzJ1oX9G6Z3tk+u6Nv/t/CK19SNnWk+95hpz9j1/rgzlCuQo1TOfeO5XClwbUSrhWwzEXjZFSOwt0vcP1znP4Mezsrma96F/1v85T/qJ700v3x7zz6vq8teyG9fBSPSmFt4fUKWX5S3Yvx3eZ/B705kVCJM6KEntvrpX5KNY17qkiYhbzM3kBuX1RPbAvu+N6xYrBlzoeOHzr5Fv89vPYf6o6OLO8dFHbDzf6o+AoNE2H9Hu6lCGQguBHBDRAy4VoKy0zUjUPZcNzsh8LuyHtf2famJ+1l0+y/Pp79Vtmc7lVp3zhz19Eb51B9H04rd1OqwvWl3bTqWTCiGKjeYKBUI0TVqBxhYgDuFlpeTC8fEnNXujNHWxf3cC3r4l/xcjjrFTXnDRx/F1d64P5g1I6BZRo8CyCkI7IN8k5O0nb4V8H+PZrGo3IE7vbHlV440VXJedeT2al58WuNK/6vbu1Q0845voI99H4RGqvhdfLYp6k8/P2+YRhtGqOFFeuKPo3BaJVQjTBeEAnCZ2MND9ntC9JP27w7Z9jTB7jTP/OveSO8paO6vxNOd8H1JJQPhWk8HLMgLEMkC2oOyAGQ/SA/IrQOrnlomYCaEbjfD0UpONtNyfvEt+ND85r3LFsGWvfOcJ3OCpecZLX3YTMh6OOiIM+TU/GOV0xkz8AQlQlTFcgiBA9a61FzW7522J+73LlplGdDqjezc3B7J/ng2/Sn91lxCqqGwzwJnnkQV0HZCpoL5IMdBj3IUfkXwDoJdSPxsD+70ZsWJsnHevp/7Gnd3MN5YKyvIC1UfFCpvMqstfDZIIU4Bt5b/4NLVyrEYHD9M/qhMe4JZVQnTa9QhQW4bWiple9cDJzZ6sqZ6drxhXPTh77szuGDnZXT72s3UljVcGaeAu9CSOug7gY7BnYSJB/qQUibEF4Kz3SYRqFsACnuo5xLEY+m+g72s+cM8Z6aE7qxXa48q5nvIGCG6OGHcmr0gJ4TRvwxvZVHEy4OgzHeglM13lMV/HA5lKrbwat5nvw0575xtu09XLs+9B3sEj75gVSUqlWMoObvmG8JlI3Q9oGdAS1g2nEm50LeCjkNgdmsZSwtH6jc6C8W9AkeHeDLH+k+MkG4ki6XHyGWYuargewCCepnpnjRPs7iM25i0kj4iMsj4Yr1KPX6uazyYCQE1aYa8faFQGG2+9g8294h9r1JjoOfuY5/HLjWN/Loa8U0XXMvo5HNTDkIeha0kKmnmZQPKRtiOvXOURrHRe4NCv8yWCj4Qjj1tVDwnVC4OHJnt2a6xPzliJhBBT6qwEN3zGj/2MSf9gJRvtv8o3rFSCGQNIgKsVnkqlvhkhPewvX2o5Nb84Y2H+ptOtLDfnmQ//6YcN0sybZCC2ymYi7TzoNcgnoe8hmEc+Bfq1nnhirHeYoHe38e7j07OnB2WvjqCqV0m/b4NHPfgWyC5uYYeGWERmHEA1rCdifePlsabSDwl0bRSGU8oEqMerxac61UcUP4NddzebXt7KyW02OaTg1tvTrafW9K4PG8sHmV7N6qBfKoVMjkK5B+RuQCC+RS1waleYlQPtNVOs59fZr32nyhKF2+s5tVnIClGOE6UDdYSB8fieVFvKmiI/p9gXTQ20RPTafw1qpu54l/9TkIxqOpwiAzGgxTt0NrrZPqb4jlJ4T7ezy31jtLl7ruLnY9WuitWS6YMkTbDtl1WPNfIMJVJlxjwjXNfVK25USat4j1G0LVGeHq7WLVPqnmuFZ/Ec0lcFdDsoOF+fSOkdBGY/FzwNAriuzp5JBPTrQhbuZUf1dlTGZMUpkospCPepuI46HaWiSbCsT6Q4HaXe7qTE/tBn/TtpAlJ2I/rrgua+7r1FvMfKWq46JoOS6aj8jW45r9NHFcIq4S6rrPXJVw1yFo5wfMaPIUc56JnLUjjd/CaAPAeGnUIjkSPuDCGO9iEh6bZD/CNhasp/6HmvuGaD8XsBwOWA6FrEcizhOy66LqKSWeu9T3gPnLVPfNiP2a5LimeUsRvIdwJcRGiGaEbQi6eGtcU56k43FR/HG1DR2eEwbRrYMXcklsgoDHSr14pYaZ4mVyK5XqNPGBEipWgkVqsEgL3SChuzRUyYK1LNTIwiYq1Gr+ChKoomI9VDNUOzQPtABvJcsiVJkvbXD/zL+JRv30/XPD4EcPvTKse6zotBePm4YFKdwumZdRCyP1TKthajUnpQGyGZINshOyGxEHi1iZpHPPgroZSHxwjcYm4eIpYBsYTzP921fPMHFdhtEBCiOERv/q3oBzTTnvhvLykxUnQrnthxnzgzpB7NB0Ul1QfFD0/VZCegM/AE0ADfMhNj6Rp3Jj4FNUxoxSzCQSYfyW69+88wwYiSs8df+0GzbCkm4s0PMeQqEyKoOIvDBnDOioEZ5QRBuRepeYT9vpA3fclOOzfrE5q/ZU6ileEoIif/8ZceM3UKNvGChigy5cZrpxMGPK0NhSSvWZgnifiHfl9ca8pjtrrjOJrqed+/aYboPhhWDo60Z1Tdejp2BA70dwfeOxxYiSin5jAODjUTpwPUQZeVL8rx4l4uN+0ZGa2NNcexPyqmfDe35pGN83YocxvMgHnAgfyIzpuN4ejL6WY8qvz4ZyA+JWFd3H+KiifkjgCYIeLow52OiQqhGX48bZPpLnh2HkaLouRZ3WE6Uy1Nx4HZ+k5TbMDTjq4Fi8cRffXu4nouKLbQXXUKaXpYxIEDOaPxDIC8HgSAx3pf+GEUVivS1jPEyLTgNHwRgs8ckoTacnVRidL8p4F8YQ5xPHpY+zcTkbuhvPp2JBPFGvonb7/zTZVUnMaBgFAAAAAElFTkSuQmCC;" vertex="1" parent="1">
          <mxGeometry x="331.12" y="470" width="22.75" height="20" as="geometry" />
        </mxCell>
        <mxCell id="UdDubUNsqIhO31zFjMTl-48" value="" style="shape=image;verticalLabelPosition=bottom;labelBackgroundColor=default;verticalAlign=top;aspect=fixed;imageAspect=0;image=data:image/png,iVBORw0KGgoAAAANSUhEUgAAAJkAAACQCAIAAACUMV4lAAAgAElEQVR4Aey9hZccx7LgvX/zt7sPrtmWbNmymJmZLLYkS7IYB5qZqbq4kqky92T1zHgE19fvWb7X+63nxGlV14wa6lcRGRkZEfk/MCGYEJTJ7Jh8yJ+V1569w68//s73p5QwSvhvF0b4ilDMKWYUvS0Es5lQQim1D/ZN2OyZPTP7+f3XjGLy94W++8FWzhC09An/B8lYzq4i/v2f6O1X+IcsV975d4IkZOky/xdYvkE9Y7lC7t2DFXr2fZYRrvz79vf+fc/fgfo2yxV+qz+nZflH/vwWlh/q/f/LevkGS8JXX5d3j98DcIUkpR/qOyy9zts6+g7LZWux+nP+xfIXPV59Xd49/ovlX3r539LYP6te/grO3z9Grr5Sf6SNfdfbWWVgrU/0oX/eHDLfsLHvHSwJZn+0jX3LtXrL0/mwztbvZfnW8Pnm08x5fZPf6mcfGuWbr4fpuzb/3TP/BJZvfqw/8NkfzJKy1fDeOv4Dv5Z96b9Y/lfmmm9q4S8O0S/n/2L5B9+wq1/+D9VLTv9iufpi/8HH/1KWH977WX21KPkNQ+Zf4+X7zGlmnAnhvwjlhLJZxOfvPK6+9H/E8Qznrz3+xfL9LC1FyvEbwjCzIdv3Cvlj9fI33Rx/OpaY4BVZDhX/+jdZmdhQ6+8RtiRWk1bJaiV78/gX72bZV5qp45sgOWa/xhL/xfItSpYiXSV2Cef98YRsKr30t9nfLP0dwsTGTCjFlGXyhm5ZVSMzYTjTvCUrin9ZYHmfRmYv8hfLt2j9ytMZSETRimC6ska2onz2BZZjIphilIn9LSYYYQwxtv9naeWKQTYTjhhHlCPCVskyZrKyqmXt7TumdfZn7B/p5b9eMf8sNnYFJKQwEwApQBRiCvEbq6tLusgwZhhlAi1OgjBBECOAIaAIMgIYjggKMAwxjgiJCAkRDgAKIY4xBYRDyhEVmAqrqTh7vZnK2vPvCkN0hvN9j9YGLN9gK3famweZ/Z+NArPHX7mrZ79asUnvt0zv/v8/BcvVIAEDmSSQJZAmiIJVOGdaaBFylAmGDAOGASUQEwAxSDBIKEw4jhjycDIB4RQmHoYeRk4CxmE8jUEASUI4oALNhAiIOcJLWgspg5SBNwXSjOUbrtCyWi+dXK3xbx9jYu+VVVG3f4hzxu/9ZuldirMzfxaWmV2FkMEZSMBiwOIMJ5jhnOU+zIzqMkvIf2EJLEsCEgJiCi1IAkYgbAduJ/R7cdSP434Y9fxwHCYewDHhCRWQSUgFJBxgBjGDJJM3Kc6gZizfgvfGU0TeMuBv4PxvsVwBiWYOwd9DuHL+z8YSAJbMQGaPCWQzYzvTTkjIL6o5M7AMQ5oJIRARCAiMKAwomsCkFfiFySQTpzRx61O/40WjCHiAzFgCJgETCWEJpgmhgLxHI/9iuXKv/KYD67ZYlwdCa2CtRi5LAhhYjXO1di47Pkt0yWzIpCgiyMOwn8Slqfu8N3jW6T9t9190hoWR2/KiYQRdQCLMYyoAkwkTMaURxjEhFuf7lBJkVhf9moHlf+nlEmk7XhLLElEAaQJpDK2BtTZ2NnxanAzCJRd3ZQKa/Xc7stgpiBU7v6QxJi4knRAsjPx7zfFP9eHtav9ebTjX8xouGIbYBXTGMuEi4TyiNCQoIiShv4Pl207yh7WxMzP7ljf09tM/hY3NxgOEM/8FE4BpgmmMLdEllsCOoygT6+dkQiGliNhpIsacIEGxYMRKgribsKaHn/eja1Xncml8MT+4Whw+awf1KR6EzE1YbPWSx5zHnEWMhNYy45jShLG3ZEVTrd/L/r784SxXD5/vP/4TsczsJyQEZNYuJjRG1I6XgMGEw4SjhOOEkZjRmLGYWecFWM9FQqwQVgQrhhUnKoFqGsuaSx91wYWyfybvnFwYnc+NH7aiqsMGoXATESERURFxEQoecOJTFDASZa/8FsuELfm08FdAvmfy+sH18v38ZoPO7PHPypJYltjaW8sSMJQwHGcgI8YjJkImQ6YCpkKaRjSNSQqJJkRTksYwdZK06oqHPXK+mpwuhcdz7tmC96ANKlPRD9U0USFSAVWeUK6UjhATzlzOAs4jzuN3VZMxwPg/neVb05L/C1lmFjShJCbEssxG0BlLq5ER5yGXAVc+1y7XU64dblxmfGYiaiAxmJgQmkliql76YCDONujJCjxWjM6UovsdUnbTXqidRAdYu0xPpB4pPZRpX6ixkK4QgRAR52+pJuAc8H8yy5kn8V/D+Qfp5UqA4zf5sbPxcmZjV7MkJMFZ9AdSDCiNKAuYmBI5hKKTiFrEiwHL+6wcykai+9C4yMTEeMiMoSkH6f0BP1UjxyrwSDE+XU7u92jJSzuxGSPjUjNgpsVNhaaLCXvlo3wAamHSjZIxAD7KXCHGoBBQiBWWMNPO9z4i+oZRXRUptOd/2/zyvRftbQcnu1ZvnVxS2Q/O8s0Ftt+6FLSSq7c8XmY21g6cBGACkWXJQsI9IgdA1Hw6P4aPe8ntZnSjEd/v0WeTtOCbLjAuMRNihtiUIvXTgB6rgMOl5FAxOlVJ7vVpKdBtaIbUjIVpMLNIzJNI3BolF+vOreb4SXu42B81HHcSRQFCgHOsFJJyCSfjs5DQ33t8i9/qp7+B5a9ct7fIvfepxfmhWb69/P0bI87vsLRz95iShFpXCGFCIGEhFlOsOpFYHKMH7fBq2Tux4Byem54tgWst+Wisi6HuY90jpkdNPla3BuRQKT5YjA8Wo5NVcHfICpFuYtPlpqdMnppH0Fxz6Imat/NV+8R881qu/qjSzHcHfdf1AACcU62xUsss3w7srbi4dgL6RtT+bR39xyz/m9ftDVP852H5Ns4MZGJjrRgRG19nMZEeSftAFT32bIBuNuLTxeDQgn+sEJ8qo2st8mjIFj1RiFQJ6pdRen3ED9XxgSraV4ZHa+jmiM/FOg9NAZocNI8ifd1Nz/TpoWqwc65/Mte7Weo8bfRKg/HA9zyQJIyRNF2ll++y5IAuyV8s3xpNf8E5m0MyDLgNnSNqowksITJg6QjraqReT8VPPXKuCg7lowO5YN+Cf6IYXWnA+33yeCpexumjSF+eqMMdub/J9lTJoTq5MhJPY/08Nk8C88A118bpqb462KJ7y9GOxfGp0uh2ffSyM66MnVHg+TBJGP0FJOdgeXKyrI42Or8sHP7OeOz/j/RyBaodDChBlECGIcdAIMARZDbUQyEVEVMOTdsgLYTq0ZhdbeMTleRg3t/5erJ/YXqyFFxqgOtD+pOf3vTN2Yne3093t+WOOt/dYGeG8nao7/j65kRfGaSnu/JgS+ytk32VeF/Ju1B3f+66iyO34XrjyPdhElOy4vhYkG+wXA1yNs39tTDe/1M2dpnlch0Fw5hjJBCUCAgEOUIUY0Qp4MJnckhkE6o5n98fkcstcKLk7X493D03OpCbHikHJzvo3ESdmZpDY7Ozr7e21ca63FIXB/vq3NScG6enevJYkx9s0L01sq+GjjTAyWZ0sxc9n4RlP+xEoQNCHyURRQlfFQn6JVQ7s6sCELkikIgsJPv+1ZL/F1namCpidqnQXhgsIFIQZDitsSUUI05jwV0uhkxVgXjls7tDdK7q7X3d2/Gqt31+uC3n7Kon+/py78jsGJrNA/N9R69rpN/W1baO3j80+7pqV51tL+EdZbSzDPfXwKk2vDxADxyYC2ELgAFMXBwFJAkJjG1gj8SU2vDeEstljbQg1YpAItHfx/l/I8uZY/3moqsdCd4Um1GfyXKqlf2qszV9LDCWGAuSVbYyu0AMOQIMJwwnhELEUSKIL5jDRZuIIhDPPXqzG54sjQ/kh7vyo62F8dZauK2Nt3T5hq78tpN+3Uy/qqmvquq7htzSklvrfEsZbymCXWV4oAZPttDVIbnvstcRrUEyIHhCoEfigICIohnIiLKI8kxERGUmKqbpL0JUYtHapdBlJ4gislp+yVyaTSmWDVH272xgeXux+o0/+UdP7Et8OD/2rdF7OeUmK8WmFFlZhmphZ2kZWRoVFYhISFQmKcAptKKQhUqJXZtMrHrgyIaBOAAChZJ4kg25aFFVgOKhA6603ZO1yb7KeEtptLHirq9F6+pwbYN+2ZCf1+WnVflpWX5R5mvLbF0Rry+ATflobwUcb6LLfXrf5XOJqmDZ49wR1OUoYCCkS9H2GciQioDKgKmAppnogFkJmc6CiCqm0saHM5bQ5inNJEtvWVmcI9YjR0uJhkt0sP3JTmVrd8u5B79xLrca8QdjOeO0rJGI2fQpaDOomBXOsJWsJwAndiicicBEImotVYzSAKYeUE4iPahCbO/6xC70I4QThCOMQ0QjxGMgk1jCQOGpYiOlWlzNx+T+JLrc9462nR310aaqs67ifVWJPq+iT2v846r4qCw+KolPCvSzPF6bh+vz8bZCdKQGLnXw3TF7Fcoa0V2uJkr4KQskDjmIGIqsdbUaGVLpU+XSdErTCUnHSI2QGpPUoXpKtUtTn6YhneHkdkE7y2qBGEOCIIGQLOUuIQaXhGbpgiTjiLHNObOQs7ylJe38b7Akv18v39A2WxqIGIFL61LMBqS5wEJSKYXiTFIiCBIYZm4NUogoSNMQKieSPY/XJzjfB/UpGQA5ZanHREhJREBM4oQEgIVQREDGkYx9kbgSO4oPpKxRPg/Iz37yw8Q/0pvsbjsbG843Nf+rGvisyj6psI9L/OMi+7xA1hTQ90W4owIO1cDFDro7Ii89Vop5F4sR466gFqRAyyxpTCzIIAM5JrpPdDMRlYCUfFyNWBPILlJDkk5Y6tpAv4yozVKw6SoYAZQAFCcoilGQkAjyGMoECmCF27Q0hCFCEEGI7aF17WwO2i+WduXC/qOD5eDa72b5jmm1RhFQnBAcEwaYRDKlKhWp1lqKlBFFoMRAwURBaBc3ANXTRHU9URrgF43obsF50Y2qMe8LPeLSYdSlyKdxQP2YB0CGiQxDEXjc92TipWSqxSCVbZUuUHYvii840yODyfb2+PvG9Ota9HmVfFqmHxfpJwX6VQGvK8JtFXiogc530E8j8tqllYh1AXUw9SgOOIoEjASwwnFMbXQiJMqn2iGmh00DmXxAn4/ix4PwlQNzAaskokXUgOsJTz2uQiYiyhKCE5QkMEyAFwE3BE6EvUQEMI1gGoM0BsKmpUGUIAgQAAjA97FcNnK/0P17Z5YywX43S0KXEhJxtuoPCUqWxDorgAkkJFGKKSVTKZRgyuJEKYIpRBpgGw0fRbI+ofMd8KAaXM1N7rej+ZDVuG5zNeB8zPCUJT4LIh4k0kokvIC7gYyCFHqaTrQYaFUR/DmGt+PwgusfHro7uv6GZrKmhr8o48+K+IsC/q5MttXI4Ra50Ke3J+yFzyux6EE+QSwgJKQo4iDmSSyAlRWWNPWoHhHTxKYIzbMpvtPxbzSde73g6QQsBLSGZI/r8TLLmFFAMSAA4AjgIMZehN2Y+YkMEx0laZSoKBFxQmOAYgATmLFE79HLv0fu3fMfiGU2IWQIU4iynEaAQWwFJgTZTEfGkOBYsGzRnzMpRSqFZkxjrCE2CTYhNj2fFwfoeSu+XfEv5J2b7fixzxeILlPV5mLA6YQDn0chDxMRAOHH3I3YNBJBqJIgRdOUDlPeVCwvyDOK7gB40U+OjMGOLvy2jteW0ZcFuLaAttXo4Y64OJI/ueqFjfOpHkmnVIaUA5tPixIGEp4kPIk5sH4zZYn9rfKYHlBTQeZVYu6O4MWac6Y4uFJ3fur6z6ewBHjGUnl2SZUn1k/AdlzkCeIx5FEirC2J0yjScZRGkYwiHkUkimGcwARCgCD817PM3GubqAHt0hS2VgOgOEZJggEgNj/Hfi1O0Cz3kTIilEy1NkIaki03xtgESLc9ttgDDxvBtYp3qji91I5vu/wx1PMkrXHVFWwskC/ikEcJDwDzAHMBmybcj2UUKuAqNJakq2g9ZcWUP2P8NmTnfXpggDfW0Xdl+HU+WV+A+5vswkj/5JmXiakQ02XGFSYSqV0P4QQxtJw5liSWJQKMJlSETLlcd6nJ2xCuudoHR4ujA/Od08XB1cbk4SgqxMyyZMpjIrLhIWIzdwXCEiIFYAqATmKdRDoJ0jhQUSCigEUhiUIYxzABEEKIkHV/3hov39W/v3fmd+vlbJ6ECJ2llQJilzZsciJiCbL5HTNJEEmsJ2eFUC5UqrRhUmOWAqpiogKsWj6e70f3m94Ptenh0uRkK7w4wbci8QzJMlcdKSaShhLFPAY0gNRD1MPUg1ZN41BAl6MRQ31OO4o3tFrk8gmWNwJ+YkC21+DmUrIhH20rxCfb9LaTPgttbL1NzZBpl6cBlxFjiR3iUZbAMMu0tqvf0KZy8ZDJKdctal4Dczs0Z7tgb360c657rDC8XJ8+HMbFmA+4nlqlZAnDkCHEAODWUIcCBBJ4yoorgSuhK4DHgc9AQGFEYGwT7bFNuccU2Yz8v0fr18//PpbLIAlcykPkgHHARCZ2phXZJSoaYOwj5EMUIhQjjBi346bWVKWIz/IZRUB4KwBzQ/+ntnOuPtlbGR9oeceGyQWP/gxEgadtmU6kiCRLGIA4wNgjxGc0JCyGHEQcTgkcIjigZCjFQOua0ItU/xzJCwOytwp2FaPtuWBfMbzcJU/9tJCYJrJLmBOaulR5VPgky8OjKMlwLif82boUSGjIhCN0nZqnibnim6NtsHVxvOlV71B+dKnqPhwk5ZiPufaYSCiBNpUwwSSKaeyz2OHJmIOhACMBxxxNOHY4dhh2GZmlF1mDnGXEzxY7Z57HKlf21xGu/PZ3s5wtZmc3r02HSZhIuIwzCShzIBpEcS8IO37QDYJhFDsA+YQBqZDWQKlIiJBb8ZloxXBuEvzUm55uTnZURrua03296MQE3Y75ItctqSdKxUoAhhAKCfIZDgWNCU0AgwGFYwS6SdIBqEtYl6saSwvMPInV5SHdXwF7i9HufHCoFF7vkVdBWkpMC+oBTgdYDbEYITaGeAJtkUJE7aKMLU8hKBMMKQm4cKSuUvMgNmddvb+NNubdDfPjQyX3h2b0aIwqiZhw7XMJbB2S9XoSHHk4GuKog6MmimswbsCkBWEXoj7CQ0wcSj3GIsETwSHniC/VLb0T6luh9esHH5RlQi3L2KZUcZ/xEYRN1yv0h4vdwVynP98bliZeIwQ9SCdceamZytThciqkJ5UnVQuRBT+5O/JPtadbqqOtdWdH2z84jG+EdJ6lTanHKo2UskMRiikMOY4lBSQzU1MM+klcD6JKkJRDXIxZHskc009A+sOI7a+ivaVkTyE6XI6v9+iLIM3FuhyrRiIbCW/EtBnjVgQ7YTwGMCDE8iAEYoSwxZmx5BOZlqj5KdLHJ3pPh24sx5uL4dEGuD4gTz1RQelYGE+kiZQJ5yHBHgR9kNTjqBCGC77/aurNu37eDcte3AhhJ8ZDRKeUR1IkUkApkMxSNd+TSvLrCFd++6FZxoyHTHiMOZS2o2ihP3hYrt4rVm7nKndLjaed0cI0LsWkQWVXmZ5Me1wNZeqk2tW6xXguQfen0ameu7E62lCbbGxMd/WCyz5+zdK6NCOlQ5UCRrEd1GJBgGIYU1vGNQJJK4yK02DBCV9NkhcT9DpmCyx9jNIfxnxfFe8tw32l5GgVXOuzZ4GeC9PFUOYDng9IzkcFH5S8uOyGvRh6mNkxglDrVyKYscS+4GOVFqj5MdQHR+nODt9YJ1vr5ERf3HL1i9hUiRlJ4ykTpyYSyiV8CHAtAgt+9NzxHw6nd7vjB93Js547NwgKk7juo15CHcpDpeJUQi2QElY1/4UslxeObc4xoCyxqY7co2xCaTOO54fjn2vNW6XmlVzjcr59vTa61Qnuj8Bjn75M5AJUBeuj6o7SQ2MaUuUJexihM6N4S8Pb1PA2N/3d3ejSFD+DskzTHkt9kcaUI1toCxnFghNA8RTDThLnp+6T7vBee3yrPb3RCe+4+GekbgF9aiR31PiOCt1RJvtq9NxA3Pb1XU/+NMZ3BvGdfnCn5/3c956PwoVp0oywSwTgEmC2MuUDlLpcDISeR+nlqdjRppsa+Nsq2ljHx4fiVqhfIFPhpq/MUJmxMj2qqjFbmKLHw+h2x73aGF+pDS9V+jdro/ut6fNesDiOax7qxnRCeKhknArLMuVIcFsTOCvYxjbM+T5ZUcR3DrKE/d8VK1jGSUC2JBQx5lI2prSRJK8n03ut3rVK92y+c2KxdyI/OlFyz9TDi114bUx/8sVjkM5RXZambUwt1UWVPsHivIu3t+MtrXhLM97dSS6M8cOA5YBsY+WyNLKZzbYBhO3OImy++QijWhQ9G46uV5sXSq1T5f6x6uTsMLkcy/ORPjjUm+vppqraVJXb6/LIIL3gmfMTdroTHa9OTpSHJ0v9i7XRna7/woHViDpEJTxNME8SnABs8+cpd6jqMP0iVucG5Ptysq6cfFUC6+vo6JjfBvoFNSVp2tq0UtNUpoDVM5fe7oAfat7J/OjwfPfIfPfoXOd8fvBj1XncDuaHSXWKuhGdEBZIEaccao5TjkVWNWZZCvp+eX9fhaxAfwnt72I5a5Bm/T2rmjad3GNszFgTogUvfDR0brYm5yrjo/nxgdxkz4Kzr+AfrETHWvD8kF735c+JeknSgkjzSue0eczTCwHf0cNb23BLC+xqgbMDdNchr0NWB3JiQ9jSFk0ygTnHkvuMDjAqR9HD/vBisXYsV9u32NqR7+9vBUen7LCb7ujr9Q2zvma+q+mNDb2rp4846cE+3l3ztuf7u3LdvQudE6XBjU7wzCGVSExomvA0RjyOcZwQO9UnckxUE+snvjjZQd/kw7XF+MsS/K5BjjjiR6QfMzMvTEnqRaZfk/RRKG4O8NlqfDTn7n012PWiu+9V79Dr/rn8+Mea97gTLYxAzSU9q5cskCxWDGqGUzZjSajIWEpK3hLxblOF1Wdmru8HYGm1c5mlz7nDeY+yOsL5GDx1wa1hcrEdHa/4exenu3Pu7kKwpxQdqicnO+jikNyc0p9D/hjJZ0LfY/pMILf12eYO3tSE25vJ8S64PgRPXFyMeR+rKVWRrbKTkNu0VY+xASaVGDwZTa/WOyeLrT2LrU3z7S1lZ1s72dKlG9rym4b5pm6+rpl1db2xpbZ3xfYm3Fr2tuRHuwujg8XR2bp7ZwBe+aIGlEN1zHWMRBTTKGExkhFOBzCtxumDqTjexusK8TcV+E2dbuyKw1N1BZjbUN8H+mGS/uSLGw671EOna/HhfHBw0T2w4BxacE4VvYvV6Mdm8qiH5kak5NJWyAaAOYT6gkaKgpSilCLBsO2U8S9lOVtAW2EZcOEKOZFqqFRPpUWaPk/S21N+tpXsz7k7F6Zb593N8+62RX9nIThQiU40wcU+uuHzezT9keoTgdo6FJs6dEMTbq4nh1rRxU54b2zDnm2kRkQFLI25ykS6VAwwqyX4hRPc6oxPV7u7Fpvfvqp/s9BfU/DWlMGaGlvTNF81zJd181VNr62Kb6rk23KyvuBtyk92l6bHqt4PnfjnCV2MdRPpKTMx0xGSYcyiRERQhUh347QQqHtjfqyFvy2C7+rk+47cOtKHXH0+NpdC/YOXXprI0116tA4PFKO9i/7O19N9C97hXHCqHF9pkbsD+XSs5qeq7KlmJPtAjDGfUupxHEqcKAxVVtr052EJMxsbcu5x4Qg5UWqodJPrAjYvYnXPIVc68dlGdKQc7iv4e/L+rpy/Ox/sL0WHq8mpAb0YqnOxPuCmm0fq+y77tgHXV6Pddf9Ew73Rj174pI7TPk1dloY8DZmKqHSJGGHRBiznwcej4FrbOVrpb8u11+cGaxYnn+fDz8vk87r5rGY+q5jPyumXJb62gL4rJFuK4e6Sf7we/dABd0fEKiU0fWw8amKqI6TCWQgVph7UzUDNT8TtLj1WR98XwIY63dRV20Zmr5MeddUxRx4b8iNdcqAO9hSD3Tlv76K7b2F6vBhcrMY32/jhkM95uhjoeph2YjUAYoLYlFCPYd8uyyDLUhLEbeMT28Tm/YPlP7Kxtn0G/b02dqaXmFhvNqEszIbMKecTLkZc9XjaYrpGdAHK+YQ/dMn1PjzbSI6Vw/15b/eiv2Mh2LYY7a7hgwO1f2J2jPWGsV7XY2saYE3F31yZ7quML3b9hz4u07TNUru0xJRPZUCEh+UUqSGQjZDlPPJwFF/uuIdro+2l0TeLw88X3c+K6JOq+bhiPiqZjwvp5zm2dgFtyoO9JXCiBq92yYMxm/NlNU4H2DjEhFQnRMdIRYkMgQqArTypTuXzHr3RQMcqcHMh2VyjW7pq61DvGKpdQ76rR3a14c56vL3sb8tNdi5ODuSd40X3cj2610Uvx6zoyXasB0CPoZoi6WHmExzYsjIY2vU1FEsMBIa2QTi1rb1sj6F33Z9fcXw4tS2N7BTzA7OMKPMpde3MhI+oGDM15ulY6lFqhsZUiHrus9sDfKmZHC8F+3L+1rlg/ctwQx5tqslNbf1933w3Mmu7/PN68lnZ+7Y02VYcnGy7d32UZ7rB9YCnDlMukR4SPpI+TF2oh0naitWiz+5PwKW+f7DufJ8bfLXofFaAH1X030rmP/Lmb4vpFwts3RzckUPHq+Rqmz0cy1ygG8AMkNXIkOqY6ATrGKURVAFIPaBHsS6M+YMGvlwGR4tgWz7ZWiNbO3JLP93U5RvaeEMTbKhFGyv+pqKzeXG0Oz86Vp5eagT3emDeofVADpLUxzoiaZZEwhObwQ1jBmJuV0ljAWNhaxFXsfyl09Bq7+ZXj2csP0BegdVMTCjK0tSWWdJphtNhfMrFVMipUo7WHZGWkHwZ8vtTen2IznTQwRraVsQbCnRdga8pya/q6Zdt/XlTfFpDn5WjdRVvS8U51g1uBWSO6xLXbaGHPB0T6UDhQRmiNETaxXqM0waUczG976OLw2h/w91UCb6p4FurWJIAACAASURBVM8q6ael9ON8+tmiWrfIti7ioxVytcMfT2QuSDtIT4jxiAmJiYi94hFOQ5z6KHWRnkDdjfXciN+qwbPF5EAh2ZxPNlXwxib7vsXW1dFa+wmjDbV4az3Z1YgPNKJTnfjqEPw8RXMBrSdyiJSLVIwVIBIxgThDnNj+GtwursV2fQ0kHM4ygLN0KNs37FexvVdBPyxLm5llE0JmLD2rmtQO74z6jAacBUr4Op2kaV+lDZEukvQpVD8G6uxI7WupjSX++Tz922v6t7z8qKI/qoiPK+SzCvymGm2u+Uf6yfWQPeNmUZiaMB2u+0SOAHeh9TMBMTEzkTBjrps8XaTyXkDODZP9bbC5QddU1Zcl9XlOfbUoN+f5gQK91GQPJ7IY6x7WoTBQGsAz02pB2kUbn6Qu0RNs+sg0Ev10yC6XwbFcvDsXb8wl3xfht1X8dRV9UYg+WZh+VQi+ryU72uRQn50Zi+u+fARknqoWTydCR0InVEEsMOWUcyoZEdhminIAeZLYtgyzwm+YBYGtSsxmF/9FnH8ISxZR6lHiUuoy6nLmMeIzHHAcSB5o5ep0pHU3NRVlp2UPkLkSmONjs70p1+bZJwvso5z8W1H/rSj/VmQfF/GacrK+Eu7tgPMuvQvT51QXhGkI3WE2LO4SFVMNmQFMxzz1hB4q3VD6FZK3fXp2RPZ12Pqq+LbEv8mx9Yt0f5ldaPB7A7Hgqw6yiVhApFikkKUJSSOSBkR5xM5MRtR0sKlCsxDqO312qgT25uKtueTbPPimCNeW0Fcl+EU+/mzB/6YYb23iA31+xlHXI/0AmTlmaqmNBNmontQJsywR4XZbGzvjQJgDu0w9a8hA41kPI2Trn3DWPizDubSfzWxXm5XH9yrlynj5wWzs0hQzoGRK8JQRVzBPcU8Qj0GPI1/SQEtHp4NUt5VluajME2ZuQXMhNIfG6da2WldVX5XTTwr6bzn1Hwv8P+bJp4tgTT7aUksO9/BFl91N5GumK9K0pB6K1BU6FhpyHVMVYulR6ch0kJoyS59D+aPPT/X5jhrbWsKbF8HOHDjfIA9GcjGbGIyhHXFtBwrMIyxCLC1IljpcD5huM1NC5mVs7rn6QpftK4Et+eS7PFhTgF8W0BdF9GURry3hdSW8pU7398QpR10L0wfYvOLG3m3K9IRxuPGZDomKcZbQZZMsUNbAyDbXQDTCNCJZyXBWmghXpVrOYuW/PNrtNAjLwl3ve8wcH0I+HEuY1WX5BDsEThh2FfON9BRxOZgy4EniGzFJVU/qprAs86l5qczP3NzA5mxkDk3N9r75rm4+L5iP5tN/eyn+13P6n6/gp3PxukK8rQYOd9FVnz8haU6ZhjYDY1xtw9lQ6IhIL2Ee4r5QvrH1eBVhnoH06pgfquF9pWTPYnAkH9zp4XKc9mDqQBFAFiTUj7EfEx8wHwmXqinXI2Ha3FSYeQnNT765MNIHW2xzCX6TB18V4KdF9GkBfZLHnxfouorYUtf7uubk2FwOzH1k5qQppaamTEuaHjMjYhysXZwGWIaYhQRHBEYkiUkESIRISEnIiM0Rs20YsnI2ajXzjc5/K/mvb7V3f+vp7M8+lB9r0ygTSnyCHAIchjKWaqrYhMERhUNOhoI3CSsm5HWInwb4QYBuefjyFJ8Zk6MDvq8rtzfVhnL6dS79Yk5++pJ//IJ89gp+NRd9l4+2VeIDreR0P7kyTu558EVMi9gmOo+YLVV3sBon0sHSE6lvzCC1w+pLmN6cyOMNdqSCDhXjU+X43oCUI9mD0sEiJNwK5gEWHpEOsamRHaprWC+C9Fmk7kzFpQE/1qJ7qmhjIf42H39dAGuK6Ks8/DIH1uTgt3m0qUh2VsjBBjnVwVdG5J5HnwTsZcgWQlYMeS2SrUj2YjFKhAO5h6nNECMwJgnAMcIRzYThiNlM7oRiuJQIvQJw1cFb8N56+kewxD6BDk4sS8l9kzqSDxnuEtgmuEFYLkLPJtHdnnej415quqfr7tGqv78S7q2AXRW6vcw35+X3C2rdnFj7kn71Aq99BdbNRRty4bZyuKcW7q9OD5VHZ+rjm4PwqU8WY9FAqa2cRbqX2Fo+V+jAmGFqmtLMQ33HUWda4lSdnqyiC3X4cETKkeghMaUiEiIWMhYqEOmUpyOuW0SXkJmL9UNP3hzx811ytA53l2xW9IZcuD4Xrc8n3xXht/lk3UK8bj5aPx9umAu3zAc7F/z9Of9EObhYj6634jud5EEPPBuiuQkpuLTqs1bI+wmfIO5Tm/AXYQhs9nZMUESRzam2adU2exGQLLXS5rG/8/MWvLee/iEsAwKnJJky6EnmazXkrIVgOU4Ww+S1Dx6Nwltt91J1fKY4OpobHFgY7l0Y75x3di8GewpwT4HszrOdOb5jke1YpDtyZEce7Swmu8rxnkq4t+rvLox2znf2L3bP1Jwbvfj+BL/0RD5Ky5GuxaaDzEiYqTYDZVkuIH13mp5tp6cbtmvBhSZ+MKalmHewGHPpK+mp1Ett+4kOS2tYLSTqSaDuOPLKgJ9pkaM1uL+U7CpEVorRrlK8pwz3VvHuEtyZT7Yvhtvm/a2v3e2vpjtfObtfTQ7OT48vemcL/qVScK0S3GpE99vJkx54MQDzI1j1SB9wl0qfsAiTBCOIAbb8lohmB2DWMnWWzf4WzfftB7cCdOlvP5iNzVoKoIgCnyYeA54gU8lbEC66wZOBe7fjXKtPLlUnZ0uTE4XJkdxo//xg39xw79xo7/z4YM47WoyOl8HJMjpdIefr7FKbX+6JH/r80oCd66GT7fhowz9YnuzN9fct9g4XRifK0/P16GoL3e6zxxP5OtBFYJrM9FI7XFWFeQ3Nrak+1dbHGvJIlZ2q058mfBGqGlNtkfZl2pVpW+gKSedi/sglP47wxS4+2cJH6/hABR+s4MMVfKyCTzfwxTa53KVXe+xaj19ps0tNcq6GTpbjIwX/cM49tDg9tDg9vOgdXfSPL/onc/7pnH+u4F0supdL02sl58fy+EU3bAR0SlKPyNB6WzRZqlAAiFgdzeosAMYznLMmuLOxc+lxtlvj33v8sHppMwIhRYCCmMUhSzyOJgyXgvBR17lW6Z9Z6Bx83tz/smP5zU92z412vhrufjXY93p4cG50POecK3s/1MLrjfhWCzwY0he+nAf6JdTPoL4f8GsjeLYVHK9ODxZHexcHu+YG21/2d885BxbC40V0ucPvu/pFYvLE1KR1fIrcvIDmxtQca5tDdbWvzA/X2A1Hvs5mNWVpKtIUuU3xepbI2w6+0ImO1sJdxXBzLtySS7bm0d4iOV7lF5vydl89maYvPf3a0/Oufumkz0bqQZ/fasPLtfB81T9T9k4UvWN5//BCcGg+ODjnH3jtHng1OfByePBF7/Cz1rGn9VvlcdFBDtEu0b4NR8iI8KwdA0ooBBSALFMREYAsTkt0dROmVV3iVtrFvXHwIVmSpUIlCEiSkCgksUeBQ1HJCx91JtfKg7OL3cMv2odeDw4vOkcK/tGif7zkn6r4F2r+5UZwsx3d7SUPB/DZGL12SD7gFaBqRJeJzpP0ZSJ+9sjNEbjci841g+NV92De2TU32vXa2fXa3zsfHS/Di216Y8jvu/JppJ6D9AXSP8fmB8cc7pr9zXRXVe6ri4tj9QDqp1g/Q+o5kI9j8XPAfnTQhW50tOruLXpbc/6mxXB7Aeyp0BMNfqUj7w3TF1NdjEwtNvXQNANd93XFSwuufO3Qx2N4fwhu9cG1TvJDE5yvwjNleKoIThTi47ng2ML02Nzo+KveiRetO9VJcYonxEwtSx1gFRJbrZCVH2U4bQlRVmHyfpZouePfGwhXTn5glhlOCHGcwCBEoY+TKYYVN3jSmfxYGf5QGJ5eGJ7OT8+Ww/N18EMHXR+QO2P6cEqfB/R1wBZDXopFA4gulj2i+lleSIuqGpEFJOYS8TTkP7v09oRc6cHT9ehQwdu74O146W174e16He5biI+VwPkGvtpjNyfyp0DfCMzZiTnYN3vaens93dVITw71tcD8GKQ/evymQ66O4KVefKYVHKlM9+bHO3LOlkVvaz7aX8Un2vLqQD2cpguhrsamB80ImnGsJ6Eex3qc6CFM21DVkMgD/jriT33+s8NvD8SNrrjW5peb7FIdXajE50v+hfzkwuLgftMv+XRMbQTfw1Y1AyJDKsIlnLb6JksYm1UJvauX/2yWtts5RFEC/Aj4AYw9CBpu+Ko3/bnh3KlNr5e9G/XoZgve6rP7jnwa6jlgSsQ0symdnZBx4yodaR0q7YnU4WrIZJfwJhFVkhaJnod2tnDfFdf6+Ew9OVwId895W567m5+6m56421/4+xbiIyV0qs0ujNVZRx8dmT0Ds6NjtjTN1qY50NOnJvrMSJ7pk9MdcKIRHal6B0vTvbnxzoXhzpyzu+AfqCRn2vT6WD/0TS4xHazHRAdExzgr6olUAlNA0oTrQOolP4vbb7GQmOeBeeyah465PzZ3B+J2l9xugVuN8FbVfdaPqyGfsXRtBFj7RNmCTlsQaINliU3+wzb5z7qywGbmLnUmX+rDtKKC7z34b+vlG2PyqjZQNlcEoRiAIAFBDOMQgVGUNNyoNIlzo2R+COfHeH7KFnxpnU+o69jmjw+4HnI94haeJ1QkZSikz4XHuMP4iLI+5V0qW1RVkMoB9SoSjz1+b0Kvd9GFOjhejA4s+DtfTne8cnfMBzvz8e4K2tNiuzpyWzfd1DUb2mZ903zf0Nuaak+b72/Rgw10uJYcrsZHqtGRSnC07B8reeea0bU+/MmhT3w5F+sS1B2cOkT5RMazxs+QwcS2uIWYJ0QETLpCjXjaY3Y+U0emDEwxNoXI5EOd89WiyxcdujDBCyNQ8UgXyAnTTlav6dl8F8sypCKiPCbM1nzb7PVZSeYSv9U434tw5eTvYfmeN5t1QMMoQSCEIAQwBiiJIPIhcSFzAB8DOYJqiNIh1kNiY54TZpysp53LU1dIj4uA85CxkNGQ0cDGcm10fsrYhPERE10iGlhWkSxBlYfpy0A+nPAfu/hcJTo47+x87Wyec9cv+Oty8doiWlNha+pyTdusaZk1TfN1I11X5euLeFMRbi8ku4vx/nJyuApO1MDZBvihCX6ekEUgGjztCj2UZipseUJCOSAU2XJXWxdLIbCmB6EEkRAzlwiHqglNR1bsN7JC9IjYdZsxSsdQjYEcAzlByqHK4emUqylTLpN2CXbGkliWYKnVE82mljNteeMir2B778F/j+V73mb17ZNtRBAjGNvvi0CWMUxtQ3MiEiITWzysIqZCli6LCrgKbLtCCzJgPGAssCB/EZ8xl/MptwuiPSw6RLZpalvZYb2YqGcevzWA5+rh4UqwoxSuL0Zri+CzIv64xD6uyk8a5tOG+axuvqilX5X4mhz6Ng83F+DOEjxQw8fb5HyPXhvSu2P6OhJNqiYqdVUaKBVLATiDjNiS9Jnds4NagjGAGCV2bwXmU+nZKobUY6nP0oCnIVchVxGXMZOJrXrPhNgsCJ9Jl89EuMxm6wd2vOS2W/gyy1kXlQzMSorjH2hj32X5psm1+ftgJtaxzlpmZX0Xlso0Z4UTli7lCeUxsxIxHnIecO5z7jHuce5m4nHmc+bZk/b7T2yCD+8T0WfpQNrFrwbTRayex/wnj1yakCMDuq1Dv2vyL2rio6r6z2r67xX9nxXzUdV8UtGfFcWXebquSDdX2J4GP9oT5yfyuifvR/IFkEUk21SNmZza+4lGNqqGwBsbbNgu/tm8iyS2ga2ILDwrEbdZSAmfdUFkWW1/1mY629YCETbLuPAZ87Lmph5jPmPZSMkyA7ukl38GljMVn91PK/u/2BK05Q0LlregmG1EkTXrmeVjzorhE9tMlM1yhaZcOlw6wsqUCzdLIPJsRrx0iM16GhM+4cpJzVibkTZdY8qpea3MXWrOx2bf1Gwami/b5qO6+beK/v+K+n8V9b+XzH+W9McF+Vmef1MWWxrpvq455ZirsbmPzUthyto0RNolcoT4FOEAgggltrCexomtWgHJcj/imJNYsFiIWKpEmUQaIDUQKRQCC4ptM41sJZdCTqzM6lMQQQnFIcN24ODZmi6joe28actibKa87VXBMpazi/nP0MsZgtW6mO25tGpflZXuJ7PNV2Zt/mZNqbJNQOxWILaAwG7WRGzJH2WxLY2zyjfhcsBVX6Q9K2rA1YhLm2jC1ITaPLwBlgOqRiIdp2aoTd+YljYFZV4IcxuZM4HZMzYbe/rLRvpRVf17Sf3PvPzfhfQ/SvpvJf1xUX1a4GsrcmMz3d03x6fmh8TcIeapMDltakp3RTpickptSo5Pscewy/HUVmUTh5EJI2MrbGKT05QrUz81YWoSZYDSUAjEKbLdRRG1yU+QESu29gtDnG3QYLNDaBaEtd1mZvXj2AZhrflaumzLBvafxHKVFs6yQ7J7aqnqbLlTzyyF3u5JZxsvWVneiidrHDe7Ay1QBu3gbzuuOFQNmI2rNYVuZNLiusN0l+k+1YOs9UOP6B7VfaGH2vR0lvOuzYI0T7i5CcxJ1+zsm+9b6Zc1+VFJ/HuB/89F/m95+Z+l9KOy/rikPimIryry+1a6Y2COuOYCMD9S80iaOWNVs5vaIqSplB5nU87Hgg+E6HPR5aLNRJPyOuVNKtpMdXk6VNrRxtcm1gamGkoJOYV2MzKUtRlfags/O8bExurgW4JtlMd2oLCwlzqLZEzf8Hpm7sh7XZ6VkzMkvzMea3VvuVHqsu7Z9lM2FYJkQu3tyrPOMLOG5VnT3FUskWUpfWK7rLSwKiKZQ3IRqQWkclAVoCoBVUlULUlrQNehaWDTYqYt7ZJvVZm8NM+pvgfTy0F6dJTu6KTf1+WaMv+0QP+Wp/97kf5HQXxUSj+ppJ8U5cd59mWZfdsQW3pq/0SdCtVlkN4h6WOhFmXaSPVA66FSIy56Fp6oElHCIof4AmBzCX0VkYWE5aGoYJsFMki1k+pA60TrREpgiynt5hxZz1vb9naVAGz9ptUSYxxnZ2zQ7t0J5WqPMksmf3/EZ4bz97O0C9/WplhN47aDGLaV3TPJ2mdJjKVN412SJaLWCNkPNvsA9hUS2wlJDZAshuTxJHkwAfcddM/BP0/wwzF+NCKPh/TpkL105Lyvc7EtNy8S28l3DptnUN8N1ZWpODMUhzpiZ11srLBvivjLAv40Tz7K00+K/LOK+ryiPi3QjxfAF/nkmzLcUEc7O/jgkJ506EWPXg/oIyhyIq0pXeWqgnkesNcReRrghy68NwF3hvGtfnij698dRo8d+CogRcBbTA2Emkrr90ZCZF327V44tnnDqh3m7DGxgRTb7WdJrHuYucPWMf6Xs1xqzmTH+kwRM4R2P4LVgrEiSBEkrcw6o836ca3aLhITkpWSqx7kr8bx9frkcn16seFfaIQX6+EPtfCHanS5mlytgjsd9nCcPnXN89C8SMyT2DyIzB1fXx6JU21yuEH21cjOMtlcROvz4Js8/KqAPy/SL8r8q6r8siI+y8NP5vzP59y1i963BX9TOdxeT/a2wOFOcrKX3PTIU6IWhH5N5MuEP/LJnQm4NogutYOzdfdU2TlRsOt05yuT6y3//jB+5eMK5G0ih1khacBFbJsVLKnmbC+j5e03iE0AsVuw2Er2rJUTohZqRvSfzvKX3JOl/eKW2vrYvUEwse2zMFaZpBgvCcIpWjq2DdGs1lp/1t6ltmvYLL8lK9MHtkhYDhCbc+KbzcnlmnOuOj1V8U5V/JPl4GQ5PlkCp0r4fJ1faafXe+Za38oP/fRiT53tiOMNcrACD1bQoSo5VKP7a3R3lWytkO/LZG2JrC3TrytsXZWur8CNpWhLOdxRDndVwt3VaE893luP99XD/bXgVC/5YYpvBuymz3/0xJUxPdcFx+vR0UpwqOgdyk0PLUwOzY/OFKdX68G9XvJqiiuAt7EYUjG1Uapsndk2NVpyapLZbie2GcmsGZdtZGD3H7Ocsz0BbdQhC9vZxefVY+TbAbwPZ2MttneFLRcIzoZGSYgiJCU4JVgTbFu+YKIR0dD2fkkBlgBxYNtS2HUdG0e2XdSzbmMMQkESyceE5r34Xte51nTOVSfHSs6RknewFB4oJvuLZH9RHCqpoxV9tGIOF83BvNmXV3vybFcO78qBXbl4fwkcr5GzLXG6I0515eG22FGn35bxtxUrG2p4dxMf6+KTXXS6A0+3wfFmcrgR769Gu8r+1oK7s+LvaYT728mRPjk5kke6bF8N7ixEO3PhroVgz7y/b947ODc9U/Cv1aKfu+C1Q6ox7yA+Ityl3CXERchHMEAwRNBmZVE7B42ZjLMWGwlWwPYVkQCKBPAEsMRGBGe9Q2zHtGzUyXok2GDs2zhX3Jz3HvzG8XLJlr7TEIHPXJvlR8uSkpQSTbEh2CCsAUoTlNryDChDmy7FA0gDaPehjOyaOrQzcQaQAMCWyDCH0XKUPB75P3bdCw3neHV6qOrvs9cabS/xrcV0W15vz5mtC2bTK/P9M7P+mfzuOfnuBdz0Otm+EB0qgXNNeqOvro/S6xN9YZQeaPONVbyhAjdUwLY6PNYj1xz+o8NuTeitEb7cQ2fa4HAt2lX0NyxMv1t01+XcdYVwUx3v6KbbmmJjEX83H2+cj7fMxzsXov2L0dF8dKGS/NiEj/p4fkprCe9APsTcIczBZIKgA+EUQhciDxOfchsYItLDykdpgHSIdJT13oqALXOIEgGA3fvRtg+xVaW24WpG8T2u0HsRrpz80CxxppdEE2oAToOETwI89HDXRR0XdX3cDekgYSPEHcKnlFujxGkoSCxJpFiYyrEUVURfBuihB2+74KoDzk/Q8TE50Oc7mnJjWW8s6A2L5vt5s/6V+e6F+f5VumlebMuzfWV6rEEudtntsXjspY98/TAwP7rpyb7Y0aBba2hzNdlZS0534a0J+XlKH03Zkym757CbY3qhT4420c4y2FQC35bANxX0bYN930m/b6rvKvy7At1cIruq5FCDnOmSqyNyx6GPPPYq5AUgGkS1iexi0cd8QPmQsSFlfUK7iHYgbQHaTGgjJHUPtwPaD/k4li5QIUrtqgtSCVIJ5IndudV2N1yejcx2gvjX6WXmtdpGhYhqxE2I5ChAzVFYGQS5nr/QD/LjpOjafoAtJHss7fN0KNKJVK5tDcl9LT2djlJd5+kCUq+IesbUA6Z+JOoiSo8G6Y6B/q5m1hXN14vm6znzzWuz7pXZuKi3l/T+enqyl16epHf99IVtja8XoVnIWuNfGqt9bb6rgbdX4z216HwnuT+Gz6dk3uf5UL4K1ZMwveOq8wN1sCl3NMT6Ol9b52ua6qu2XtvUX9fTb6vptlZ6oJeecdIbcfqIpi9YOs9t/W9V6JbQLZY2iWwi0Wayp9KOTBtMlbHMJ2w+xK9c+Gocv+gHi6O4MsWdgI8TaVfQqE6YBkwniEeJXfKFcAZvZl3/KL3M+p+/PV7Oiqp/qanHNjVbQiJt+yWeOpA1p9Fi13nRmjyoje/WnPvt4Oc+eDTBzzz2MhJzsVwEqohUjdhpeEeortRNaUrc5n0/Z+YRN3eZuYLTk0Dtc9WmnlpbVV8V0y8W9JdzZu2cWTdvthTNvro50TVXHHM/shmtRWKnnjVqysS8SPQ1Rx3qiL0NvKsa76+GlzrJozGa92g5Fk2YVqDOQfM0Mjcdc7qn93XSje10bVN90VSfNNSndfVFNV1bSTc20l0ddWycXon0z8wGJV4Km3SfF6YkTJHpPFE5pBZJumBLo/UzoB5G8q5HfpyAG4PwRse70XDut93nvTA/Slo+sdm52VWCIk0o+z/tfQeTFEfW7X9+L95+u1pJIIQQAgY7eO+NhPAgCRAIhPDMTHvvbbms9KZMvrjVMwhY9hOrRdKGYicyarp7qnu6+vRNc/PccxCliGDCYD2adbAvj6/Oht7nXvQ/zmNfg5ODBi7kygNpXGk6mOXG7v1m/9tK70K+ey43OFuanqmis/XwbJN82aYXuvzqQN4cq3sArX5OogWeLkj7VNmH2t4V9ga1X6P0mGN2DeVcR3xWlx8X1ce56KOFdPULu3bBfrFod5btsZa9MLS3ffuM26KyLWMHkHMHH5nnOL0xiY609IEa21MOD1WCK23yaMwLvmrRaJilkxoSzC1+8O3lkT3WT3d003WtZFU9+p+K+mtJ/b2gV+X1ZwW9sah2NcyJUXw5tN8Qe5vae9w+kPaxgjTFTzy9z5LvcXoDpZe95KtpdHqkj/fo4VZwqO4cqYyPl/rny4Mb1eH9xmRpGHQCPmEq0IYmETEylBljVmTm2D/D+RqQ728eOxtY3zwuV7HM5kRMgHcH6BVINRKyivCjweSbWufLQvvw89bup52dL0Y7ltxti97mBW/zgj+fD/eX6fEGP98VN0bqphPdQcldau+K9K5Or9P0Sy89PEp2dOS6Gl5dxh8W6V/z/G9L+oMXyccv7NoluzFv99Xs2Z79xrGPiK1EwMAbp9ZNQaGlo+0iSb6dRMea6lCN7SuFR8roeoc+m8haaEYyCRLrxHYU2boExcJbjj07trsHdn0n+aim/0+B/98c/8sS/9uC+PAFX/WMfZGTu5vRibE959iLvr2G7LfE3uL2JrffcnuV2i+99Mgo3duL59t6c1NurOL1JXd9YbQp19+21Dmw1Dqz1LxWaD9sjytOOCDM05JZTRNOYAIE7pArzthvjpS/Sw7vlY53liLHSmXeaabPZSHAD0bejbZztjw5nJ/szbk7csHWJbR5Cc8tka0FOl9ieyvsSJ2eatIzbXauy871+bkhPztmxwfsQIfNN9lcDa+roE8r4ScVCkqwRfVhzqxaitblo7lidKAen+8lt530OU4b2g5jgCeI7cTYnrI5nNwcmxNNeRiYruhYGX3bYQtT3QzjqUxxbH3YcLYgWkjs+ONoigAAIABJREFUj779epzs7UbrG3p1Vf5PWXxQlqsram1Fry3ItYtifU5sLcs9TXWgrY/09ImBPj3W5xx9xtEnpvrIWO/t6a0ts6muv6irz2tyfZWur6KNFXdbZbK7PDpRHV1tTu51nMVx0AzIkDJPCZJImnAaUzpbry27nP8hWL4SqVlddGYsaCIeJ34Ud6TJUXXf4Ve65FQ9PFAOt+fDrXkyl+ebCnKuIOaKYkuRbi+GO4vBzoK/q+DtLLjzRXdHydladOYKzoaCu77orSv766rh5w32eUt9WlOrSvKTolxfUpvL6nBTX+pH96bxEk66CoAJItiEcjXI3RVwcntkTjbkkQo9WETHS+hmh+fdqIMTT6TM2FBbX9mBgHquZ6G9Mo72tcQXVfZplX9YFWsaakMn2tqNN9XNF0W5Psc35OimPEx3t5XpfJXtbLDdbTYPkid0rkE/r7LVRbGqKFaV5OqKXFvj6xt0cxPvbAYHm+75XnB3QhY8VkGsS9iYgw5cGAsCaZUsUWbAk3em7f163mC5s325/HjrjRkU/2ZufRnPLMMuqdTCRCpOSJxOYI6XLuDoB0ddHYhzHX6kzg7Uxe6anq+ZrRU9V5IbC3RjDm1YdL9YmK5/Pln/fPz58/G6F6PPF8afL03W56cby97mGtraItu6YnvfbGzJT2v80wr7osK2VNixlrw+NI+9uEySkbK+sdhYZqyvgatRDJPbI32yLo5WyEEgUqNbXVH0kh4YJlquLJEgQzzltsVsgdhvx/pQg24qhevKZHWVrW+rHcN4v5Pu7sfbG3pLWcwV6cYchkqEPN5QwBtKeGMFr6/gzyr4kzL+uEg/yPMPCxmQsKpR8z15YCBODNmXQ/ydw56Cz4JuUzGkbMqpJxkynESQJRMxzB0hc5Kl4/94LLOdDyWkkSqiICmQDETSYHGBRM9C82Ngbnr6qmPOT+KTw/hgx8zX5JYS25BH6xbczxactS+mny5M1y5O1y5N1xe8uXKwvR7u7dAjA3FsrI5NzNFpvLOvNrTYujreWAu3VNGpLvt+qnNh0lmpiuUm5Qa8CUYrWJ6osyMVfKAQHC+h211R8pJ+aD2aMpZSZgmzPrMDZuvU3p2oEw28rehvKPpri8HmFj04NWdCe8JNjo7iQz2zv6P3NOWOmthcZhuKdH2ZrKuQtVW6pso+qYrVFbWqotfWzVwn2jWMjkyjr4LoWmhuIX0PqWehLBHRprxP6YRgh2KP00CyUHEK+vMCdu1nKXjg473Z/jEN9Dres7Xpe6rZgyQtDJ+ggzuTwg1p5LF4KpORSXtx2ojTUpI+0+k9bm+E6dlxtL+ltlfYhny4ZsH7ZMFdteiuWnI/yXlrCt6Gari9xfb31ampuRQkV1F6BaUXg/TIRG3tkQ3NYFPd21J1zvbxA183OFQ68tiqOFUmlTpBKh0JWwzjWyN1vE4PV8L9K1iWvaSPrBumBKcMp5xYTK1DQbLg4USeawS7CtMtuennS5P5JjrlqavSXmawZX0+SM866clxur9rttXEhjL7rExhFK/yVXW5umHWNOK1jXSum+6b2NOhvcbsfZ0+j9K8SasgP2u6nA8pnhDk4sAjyKfEn7lsznaus5TPbDtltnPy+vHtg+gKor8FlssmCCBrTFiMeOKpdBqBVtysfvapSO6E0WVHn+rLfQ2+tUzWF9Ani97qRffjJXdVzv0k735a9ObqeHdXHB9HX3vJd2F6C9vvUHrdj0+O+Hzb31x3djSc3U334pA8CXSbp1OZUBULHQllOHCiooGI86H5biiO1vGBMtpb8I4Uof4S+liUApZhwnAqiKXE+tSOqX0+kVeaweHiZFduOPeiv7fqnBvTGyT+hiTfkPQ6tpeRveDbYwOzsyE2lOnaEvmoiD+q8I9renUj/qQer6nGG5vx3kF6yrPXMCxaFg0UO7Qj29fxSKqp4B5nASeIUwS7l5l0MhC3ZoRK4MfOeGKvA/kW6vMKirPR9P1iCbseWZoYDC3AiYuKmKg00DAlGRjb0Lag7E84ujGV57rsSJPsquDNJfR5wV+dAxQ/XnJW5ZxPCu7akru1iQ8O1Dk3uR6k97C9j9O7QXLTNWd7eHdtvL063NecHu16Nyb0BdIdlkyYQUyRmcMLFNnLnlCLSN4Y0kN1tK/s78q7h4reNx2W8+IOShyUkDDhOJXEcmIRgdDMT+WtDjpbmRzK9XY8ax4sDs530beuuo2iuyS9Q+1NYr/B9szY7GnyjSW8phD+LR9+UGIfAZbJqkq0qqA/L5udrfjY0F7xwFxzUUElaA8WP8nUxJ4GA+OM3qepMlSC1RBIKa4YXIDFxXINwqyq5OXx94zLFSx5JlvOuCEqwQamlCNt2yot8fQ5Tb939YUePVpD+6povozmSmh90V9T9D4puKvyzuq882lhuq40nW/h42N9KbC3QyjxeYLTn/z4h6m60AkOlPt7y71jrclXQ3THYXmkezQeE+1hjihs71LFppJ3hHgRsmsjfKAe7C5783lnf9G93qGLXtRGyTSMSRhznCgCoYmJ9UladeSDHrpam5zJdw88q53Idy833e9H7L6nHpHkEbMPGAgsXJjqAy02VwrX5NFfl4K/FenHNbO6ma4qm4+WxGd5ua0aHWqn50fp7cA+YbYgswyGsZMo9aI0jBIWJzwCnQSuUiYiwhQBQxqWya5TBqLd/9h+RyyXWVhZp4GgAFg7KhrrtC3TskgXaPIgiG46+us+P9oI91SCXTU832DbGmxzg25s4PXV4LOS81lhsr443lQc72+jrxx1E9sH1C5yu0STBRQ9cdR33eBceXi6PLjU9r4b08eeLIcRYAn6MBLqGhW48k0N62j+nLKrU7yvhXbW/O0ld2/Zv9pjC17UDJNJGGMcswxLSVJKEoSTticXRvhe2/mmOjifa14td79vTR8NwxeeyNMkL+yCsE+EveHqE202Xw4/L6C/LwUfFukndfNpK11TMauXxGdLYq6od1Wio634q0FyfZre8ewjBEvYGrM9mU4ViIvQKGXZNI0JA0r0y/r5/wzI37ePhfWlyHS3pHSEHEnVVaap47yIH5P4ThBdncizPXa4Ee4s+5uL3rY6me+onT0931fzfbmlFW6sOBuLo83F4bbi4FjHv+qpH7l9LmxZ2gpLymGUd+WDbnCjMrpWGd3poseOyvmmDqpk8ZhFDteBlNhwktBpzNoRf87ZFRfv7aL5ZrC16u2uBZcH/LkfNcJkjOOQxIwkkqSSJAzHGEcjX9SmZGHgP2yN7lTa9+u9p+1xbuhXfNZmcUvZirJ5Ze94+ssO3VcJNxXRx0vBqhJd2zDr2iC29+mS+GxRfLEkN+fUzrI5UI+Pt9OveunVob07tc8CWyG2K6CvCiPQohFRyqQG8wicOVu8JRxfBujvGJdZ3gc0Rz0lx0p0pKhysUTFT4jfdOjFITndRgdr3u6yu73obC25u1r0wMgcnMYHptH+qZnv4M2V6VxhuL0w2FXsn+n6NwP1VMIQ29S2LdM2i5uhzo3JTy33Qct7PqJFP6qjuIPjIY2nHFjhgdFhLMNUjFLZTOQTKS76bFcfb2+Hm+toZyO8OBRPUFwlyYAkAU0ITQRNJIk5NhQrJxA9j9WmuDj0FrqTfH9aGXnNKeqFYiLikQIPjJqyP/n6cpceqYXby+HaYvhZjX/RieYG6ZZOtK2ht1fV9rLaUdQ7S3p3We+v6qN1fbpprnTN3aF57pgqigcs9VSKTcqjlEqFKcEYUbpM/HlbB/v7xiXoVCoJWsBaDrVocLYYhg9c79uhc749Pl4bHigN5vP9HfnhfHG8q+oe6tNTXnQapSdRcsyP9/TIltJk81J/Z76/v9j/uuv/gNSSholD19ihSccKynTaSJbHtDSmDU/1AJJ4SKMJizwVh1ESJjFKI9+afhrV0uihMl8Hcn7At3bopgbZ0STnx+phmBRp2mWpy2AHkbNYUMOJYqEIQjFBYhDwns86Hu35dBSwacg9phHUF0D1S1fZZ77+pkdO19HeGt5UpXNtuXUY7XTtQS854cUnJ/GxXny4Hu+v6j0lsbvA9hfp4RI5VyHX6uSHNlsYq2YQjxgsgnmUgIggxRgHlIb/BMVZaP6ecQncFhloNdGyb0SZ4cee811/cL7RPlKs716s7liobX5e377U2VMaHW54pyfsEo0vcXue2TM4PdCnWwuTzQu9Pbn+0WL/as9/FKqKgdn8KBM9mlGKgXcZmiEyUxL7UMUYO8y4XCMd0zTF1gY2dWzasWnJwvLuHIq2DdVcV2xosm0tfm6i7+F0idkmTycClHcY0ATBJJWDP44IiPKoCXiMZBrKBITPhOGw2klplvAbS5v31fc9cr6JjjTJ9hbf0Ve7nfggtueEvRHZG8Je8uyXPXusofcVCfBLFr29C87RJefLnHuj5P/UZqVp1AsTVyQsiokUmIaY+P+JWE6N6keywskTz7nV711utc5U68dKtaOl5pFy+0xjeKnnfTOlt0N1Tya3pL1E7Ek/3dfhWwru1sXxwdL0y4Z7a0yeE1M3thfZSWLdOPWjBJk4kLEHfIvIo9oj0qPCo9xnHMj82nhRPE2Sfgq634+VvU7SI9N4Q1eva8pPq+yLGjvSU9ed+GFWLtiXqauyVanUjHIa4hDzgGqfxb5IfJkikWKR2XCKhEtLJWjmOdxWgujhWFzr0mMtvKWGtrTw9gHb48izOPpOpXeE/T5Mb02Ta311oQUVS2fLzpnC6Ovi+Hp5cqfmPB/guq+GFIq8WBQBdzhzz2LiDT7ta6mf3zXvw1bichqpQayqgjz1prf7neud5sVG7etG/WKrfaXTvz1xHyO6JExOx/k4fajstdAen6R7WmJzHm3L+cdr4bU+/dFVeRa3Tbb1kVgvTj0d+8qEOiYmISpCjHso9MMwwAjR0GfU5XysdD+Km4l9Ju0tDF4iu/vxpw2zqqo+LPI1RbarIc/1zS0nXiBJG3LxKY0Srg3lHIcIER5w40OVa+plyIVAWUrpSrYvzBJ+LZQsuOb2SJxso7nyZGNtOtfy5wfhWV9+L5KHMn1Ck2cofuSq+2N2p49uNqc3Kv2b1f7d+uBRe1yYoA4RYIKgNYuNiJSMJKg5z3J4M1YtcNjf3L98PTnwxl/fa64gw1IFWjmRHsW6Idkicn8c9++MujcH7ZuDzp3x4Edn+iJENSl7cdxOklZqn0t7I0iPDpLddTmX+YueabLbE/0URVWe9I0dZ14RXpR4KvK4xioSUSJMhBn3EUIhwgQczjxKJ5T3uK7LOKfsD9hedOzhQbqlHa+qRX8vqb/m2Yc5Oldmhxri4kD96Jkii7sy8aMEG/D7CSlGTPhgj2g9CRKkvrCIW8wsoZZSOGJqEbX9MC0FyX1Hn+2gzeXRhspoU32yveOec+g9Fr2QaUHEVR6ViSoiseTiZ0P3YWf4uDN81hsuDcd1Pxhy7mqFjKKR4pHMsJRCZ/nYFYb0H4wlUSrU2jN6EumuFlVOlrD/IvSeIudp6C4QP0/DmqB9IyexGcRACnnB0mtOfKhjdlX53FK4Mx9+1eY/utESTloiHWvwTvNN6qvE56B6RoQROpYqYlxiQmFVli2tPS7H3DRotICTe0F6ZWJP9O2udvpFPf6wYv5WlH/J0b8t4XV5vL0YHm+Qq33+wJV5rHvSOFndZwgFvMZTiZsB6Qlw/wtXgGQzOLOswhCntTB97JmvB3i+PtlSH2+uj+fbk/MO/ombgk4a4PMY91XUl6bLZDMkVTeoul7Vdeue2yN4qoRvJDIC7MxBIQ9qdCGx/kr7I7HkUNeksNa+0U5kRpHuGdU0shGJesQbMW/HopfIcSK9WAaxnJior9MFnFwdRQcaar5E5xbR7kJ4qSufBsDE6UtYh/kKJHqRiAPwYZOEaSGyb7IAGWQB/haaSuNBCVhawumPTnplkJ5qp3sbdnM1XVuJPijr/ymI/5cjf1lEHy/46164O/P+yRq61gVJ/hKFdfA0isM09WP4j456LSgptYxanh0psQTbCbFtYl+g6OqY7m27O5qTrY3hztbw4hQ95apmQGjeTxOUJjhNcBIHRrtSTDkbMTxkaKqoBz5zEmkWSoIERixELCSc/AdhCVrASiOA0ziRmcRmGJtBYnqJ7qdqkKpRqqaJ9GO4krHWHRk/R+bKUB6os91lvD0fHCiHN4ZyiUD5/xhyuSmSKeYJpjHGBoeaESNZrHgMlg/SsKzq2BNxjybVMHniJN8OorMtc6hu5qvRhopZU1EflMVfi/QvefzXpeDjRX/tgrc55+0r+6ca6PqAPPDEEtENFY9TO84ICVNlPZkGmdgEyQxXOez9pwzSQynGdkrBoDZH429ccaiHdrXcHY3xrsbwwsh/hHlFqJ7SbmSCOMJJTOIoNJDEgApAyRxFPSNQolC8giVfxhK/giUUKvyB4+VM15lmcIbagH5E9vV002SaxhNQG9WTRLoZln4kh0o1uX7iy8t9dqCG91bQrpJ/rIFuT2VFpj2duiYlGhQ7KI0pjlgYMaDSxookiqVKphJ8K8F0u8+TMkqeOvHtgTnflIcrfHdFbCmL9WW+psz+XiEflMK/FdEH+eDjnL8m56/PeVsL3p6Sd7KJrgzoXU++4FEjAXVLkGADLBMkYsxjxiJOoQkKSSJCkhCnDrcDbUsyuRWo40O2rxPsbEx21Ybn++4DDxcwazE+kcKDEdFgA0UmSIAgZWAkimQYK5xkOQ3NICgzLEMWEuBuQTebFe+9MbX5xbvvde6TbURnpqbg8RoRE+M4wWmK0sRPE6C/JtpZ7mCVb4AT3GDqicev9PDhanCo6h+semc76L4vmwY06oIoYTpmIoKt9zASQSSCWKJEhamiVkoroozhwW0Vp0+d+PueudSUJypsTwFvL5K5El1fpp9W8MfV8KMK+rAcfFQKVhfRp0W0rhB8kXM356Z7yv7xRnhpyO4ivWjAabGn7VSlnkxAVZtFjJmstNmIzKmcANk8cUU6imzVpD9gc2YiD/fCPQ1nb214oec8cMI8Ik1Cx4y7UgRahRr0XmB7S0I1NU40yRqOZahZCPqjOOTLzq8AJPDWf0V7T1jOXmZGKmAweoELJgaHVtCS8LRyjHKMdCPpwkipwliHsZko0+bmhS++7eNTdf90wz/dCq4M8GMk2+B2GQcmAgt4rjmGonIwZZkBia2glnIbSjsgaTlIn0zi2111scZOl/ChPNq95O8shturbHOdf9Fga5t0TYN8UidrauTzGttU53MVsinvzy1Od+SdvUXvRANdHvK7yLygcUOmI20dGKETDLayJivl0RmWUCmBSOSKZAISuOlPxFx05OkBPtpyjjZG1wfeUw9XMesx4QrpAytRg6yBEAFlAWeBzMRFtcCRIkZmEx+aGZ8yrrImGdSy/rFYZv8f7DX4DEtpQqF9Lh3Gp5yNBZlI6hjuARyaJBFJwPK8L+J8IO8M8PmGd7HtX+6h2xO6QGDFMolMYBSRkjLFQyUQYKlDq7CVBCYjiMK4VfPTJ6PkZttcqLLjueBglmHZteDsLqI9dbazLbZ0xBddsb4j1rX5+pbY0lE7u9F8Q2wpBpsWJpsXJlsWJrvz7ol6eKkv7numxJMBhCYsSLLQ1AxqsmBHllGQSEcUSkSmUdo26TOQjpYXx/hc1z3XGn8/9nOItqgYCRVkghpg7ipVyHhAqE+IR7HHSCBYqATJtAwYlMcJFUloOqsNgqLUXwHn+4jLV/7zrJR9pg4CprQ+h7qnKScTgScSu5r6EQf7qjhicRroZCKSeqifOfzOILw7Jvem7EkgylwOYj2NlG9EKDmZaTaERuBEYiuI5cyG1I7DtB2kC+Po+46+UOWni/jQondwyTuc94+W0LE6PdGVh3t6Z09v6qoNHfVFS25qy919c3ycHOsBR2tfKdiV87YvODsX3YPF4GQV3+jzJ56ukLhNkxGzLksCajCY1GrONIddRhVS6Uvtmqhv4qIwP2F912e3p+Htsf/Ux3XCB1w5mTgKUbOSfkW4CClDlILoESMhBxEKkJrRQoDnk1SR0itYZkSb3x3L2TdhFpEgtACGFppIAzIvmS6YL4UnmSupo7CjsauJb1hoJIsiYRKsUp+D/UoTmyJSRayLxFS5bis5isQ0Yq6hgcryzeDjrDmJObWUWSysQ9NWkOQm8b2uvFSlJwvoSN4/kHOPloIv6/RyV14e6Cvj6MtxfKAfbe6YTS29oam2ttTRUXTJT6+68aWh/rotTlTJvhyCerwFb9+id64SftdljyYq50WNMO3jdEpiRA1hBmpMuaKZOigSwldqonVH6bI0Ba5yVOQIrzMxEACkn2ndUAm+eULAE2cMO8iRi0xpQgqwr8hMgqQWatYUOP+A+c/LltWOv5VB+caDWVERECJ/JafyZUTOzC9nYj1YmgxI0HjzlfA19zR1DXZN6GnsgxeH4NpIlXCREgaJFU/aqQZ28hiyPPE4kpOITCPsZE9BgkK9JtWUxSwDMpB2QNOiE/3U09fr9FTB37843Z9z9ufd0zV8va/vu/aeZ38I7HU3PT5MtrTiuWa0qa53tMCq4A5NfyT2fmDvTtNLbX2sxPYtol3P3O2PJocWvC/L4Tct9mCo817aQOkQJz6NMYsyW0pQ3yKMhoIiyXwtnEiN42iUxKMkHsexE4HcFIIxErpWtuwAtOxcAIZAUnG1XJbHoURPKAVuBzNgll0PMziXEX1nLF/KBfx6LFfgnAUlxOUsKJFUgZRBhqWvqadDX6NAh0hhDFlHJYAPmjAG2c6Qp4FMfBm7KgJNJsOXsTfI1whJkkltKMoiAvWLyZQmbd8s9NmdGrpc8k7mpody02OwXsRX+uKeE70I7TNsnxB7G9kzk3RHN9naijY3zM62/moa32fpE2afEvskSG+PogstdarCj+bD/Qv+0SXvdN69VPbvdOjzial4US+MPBJhGNa0gGkJIxxjgUOJkSK+4TChi1TWtG8U0iqTLAAVHJ5ZxigwsoA2czEAAAE6YC1mxgZCgdDKjMD4moU7ROfvhuWM45zBmS1FsnoScKcFsR6QIIIVleKBJr4OA42QAmtzAnsCknPDWcxpwmi2fGQx5iYUKgA1I+Jr5OvA136gg1BiAqpsivAIs8Ql8RBF1Yl41PRv5IZfLw1PLg2P5SfnGuHlgbrjRi9wUhNQ5JWX9kdqz7t2Vz/d0Ym3Ns3utrngxA95uihtntsCtY/89NYoudIxX9XFiRI5kfOOL4zOLo6+qQUPB7wwVZ1Au8SETAvwThVcEioQkQFW4MMXgvEPhaUFOBmIUAmswAQUgASAlAKXzuUGEQgvkmEI0tpgQ/FGLL569w/Actn9KZOFoULBqCkkhgYzlxC4vAQuWwVYIiJRJncrOcz1I0FiaBR8ybIRhYEDugxD5WfNw8onIszkbwRIQ7LICc3AV5UhfVSb3ljoXFrsfZUbflmeXuuSO270FAO3qGds09iKto+4veiluwfJjm60taV3tdUFJ3rE01zG9qgrqPB6FNg7k/hGT11o0HNF9+SL/pkXvRtV96c+LUxlJ4DtTMwyVx5YyGMqA6J8rLL3phBRhChYV8yUJqgE6SmehZniSnNtVprmWYf6UiA9s1N7Fbw3bv9RWL7U3coUtiABNSPTc2CXgTpRQEVW2S5QJlQgOeAXgesjNYIqCXvmVGR6gVz4THhMuExAlTjnMIfPdBoEZcoP5dgXzRF+0ZjezXVuFfrflcc3m96PI/YcxSWWthXsXbdhLW8f8fSCF+/qm20dNdfkO9r8K8c8YOmiAjX2VgT8nRyzT1F8fyJv9cjVmnN+qff1Uud23Xk2YhVPDrBGXBPABiR7mEQZkD9jSUEeb5YWhzNeAimZUpl9V8T0rBkOUxwYM5fbm8bQ/xFYLheU/MxbB9GwTDkhEznkoeC+4OATKAAYkumyv8yNaUm5omDNrpmvmaeZq5mz0sBvSGfzWcmgDDwMmeOz7ggVm5NHhc7DyvBhY/qkh/KuaNCkp2CPzEmBj1qL7COefO2Z+Z7c0uYbGmRri5ydqh9YuqDBDqab2nZmfVEW8QISjybh963J1WLnar59rzVdmrJmICcUlliZTiXhHFERZBHphdrD2icKMTkrmpwpFS0XMcpM9EYzFUHiarlFEKZvYrksZjXTylmZ9cxA/WPi8mVx0PJcelkMTmTfV5rpvgWS+5JD3iOLsFlcGiikgKBkmWog0sw3zDPUfb15hgaaIkmJAL4a9QM6dnB76Jc7Trnvl8e46vIWOBAnI5VkGnVxP4rrJn7MoguO2tnhW5tkYw1tbaDTI/Y90s94VNZxJ046cdqN0qaKykQsefjpyH/QdR50nRcjVPF5L5Qum/U0DERxGSIiAKch5YXQzQaZjxPJkuAzzVfAcgakYqAw9gaWWWi+Fpf/iVjONAyzI9jtgbBfxqrP4MSZmF+wIulHQZeKmVkDDzDGFAs1RYb6EfUi6sXUjcmseRHxIxJoghTBwCLFJAypj6gT0JHHxkhMiJ5wM+Fg/AMCu8b4sR4YXVfmMVEXJ3xXi2yro00Vb1vVO9ULb7rscSiKXLd11DPxMEr6OmozUUO4imgZsQoS9VC0sRwRGYBcn4CiABYCljwIpR9KH0MLqMRZVTqoEq5cO2A5U4szb2AJhuUqW3LO4MwM21c0WEwmr/NqN/sHxeUsrf7yCIKbmRMmzIW4YsBxy6xxQgXajDMsZ5kUnWFJAUuGDA0i6sfUj4mfZC3OgIwIyrAMJSGcwAY0AdcdhbkhMqYmoVEa6hXtcq2CSA61bCj5BItLY7q3Ee6o+ltKzo6yc7oT3JzixwErUtmRBvSyoniqo6GQPUIHQg51PDLJSEYjplwGWMEy/FUsRYAhOgMiQyZIlm/jMNuBy5evBmWGJYTmSlPgm5i1bMh8DcuZ7sN/AJaviJDCJS33sTA3z/L+DAR1WSarCzdYFpcqU5YtVkIDAAAGyklEQVRVK3FJFMMwt2dg0xq90gwNNcUKhICIoJRTKLjIZB0l4ZrKiKmY6hhS+VIjBZv1QcRHWrSkeI759RE53Aj3VvydRXdf2b3QDX/0+BJWDQ6GuTN5d09HjlATJqZCuTrydOwpA+4+GXsbRhDAEjMWgsUD2KqFBCa0hMGkYDkRmv1+s4/V0NOuqHPOUOSZRGymXAY76Ry0V19t2dfi59TPyuvP/sv/clwe6H5lrmBlyvPm75WvZ9bZwrd1Jg08m7SD7N9yad/yyli+eoKC1clrDRgU4GADW3sZoSnTls9mjJk4ZibFJw0whoE8JkLDUETHmnUkXwzZdyNyooGOVPwDBe9o2b/Ro88CXWVxXyauTpcltVXmLSEUaNirCOsIK0OUphKUeTMss4QPiIPOREOX566Z/O0rl7+y4p9FJ3ynYbchyxq87LSyG7PnZKH8iuru6+dk//iVF3+3m+8ZS8hXrKgXrrzdWS8Ex0wCD8aCV9oM7+VzXv2SZnrBL581e+7yNa1ceKa8C0KZEubOihPNsKFTRXuC5RC9PQjPVP3jRe9wzjlZcG/1aB5FLZaMJRSgIZWAupmMsDCYgyI8VQaWEjDl1OCqPsMykyzmgoLoG7Rsxzi7mNc+4RUsl2dAmRDnyifwM2Y/P2XlGv7xnGyU/vnEd7/1/rF8ZXYtVzqhl/3D7I29VJiZ3X35159RX+5tltWoshhY1ihdvrTXPwoY1iB4NaWGuIoOBC0G5G4fnSu7p3LTYwvjM7np3S6phHGfgxFTqIDNjEVMeES5oRxkU0GkUWoBTUGS7ecfeIezb9PL489/nN16BcuVJPmbp/wv999AFD63f/3nfWO54ni8guirn8i//u7e9RmzZGI23dLEl2TEadnH97v+18Xp2cXxqWeDrxbHDzqkGcZjbn2RYpkSnlAgDwB/gDOYf0iepcKzZBvk2VZ+ZumalXv/5Pc/YvlPTnzrw/+xWL7ShS53U299/+/xQcASkhSSCIVDQRzOGgF50kc3yu6VgnNxaXK96D4bsB4BkgcSKRUg38EzRo+gZiY+/QaWMzhf5t1+4e3+e1iCTuVKV/PrgvLX73n9woX93n9enmEpQRS4vlKf8W7AlgbhnZp/u+J/V/Lv1lBhLCYsQQIiEqqCWCxpJGmkqIHGtOLZnsZKXL5E8XeIy/fygb33Pva9vKt/8UWy2TLo7GZrG85g13Mc8sqYPm7jRy38sEWedVnD1R5PiUgZT8QMRQLcG02ztozl8obGG0C+2uW+/c3923H59pf9Vx79E2HJqKZYg20E5Rx2NLquLAxFcSSLY1V19ADFCISJUw4RaRSBpgFLrZnWTKk3dzNeA/QXPtX/YvkLH9A7/nkWl8CvAk60ATKkYsw4KOq4cddP+mE6piDlQ7jlLIF+lWhFtMYgBaGB8ZflvmEh8hp+r975hffyXyx/4QN6tz/P7KU0o8B7xDiC6amSzCAcj1EyCVOHWI/ZkGW96ywoaYbiDEiqgNORAfm/YPlL3ewrM74ZdeDd3vx7POvP0MdmxhrcAJGExpiArjmVGgjKMSIpohZlQFKWwHyHwTQHYnHWIBsOjBnIWP3zoHw1QN96O0ss/LyMeY8IvftL/RmwVDNjDcpjQhNME5CplxHVisWcpywbI2k2d82cUsAmBUbH5TYj1sDi6a0gveOD7/6J/3Zn/smwZIAl4QkBqSgNC0ewRoF1JNwwkF+cseFWuFFZNhGSOpkTwTsC95bTfjuE3v2V/1xY0ozcR2DlkUBoKg32U2BClWWJl0NwthifZQ5fMosBzbdg9K4Pvfsn/tud+WfAcmZEBf5TFPJyWVzyhIIAvF4xG5tlVbIAhMwq7IjLzPVl5Qj8439jxPztEHr3V/6TYClhyMzsxCiLofGYMqjuyayKgJabsatmKFLJiYKGX2lQFwCbir9yAvTun/hvd+afAcsZE1BxcNY0WbIcliWwMqEmK2BQHJy1ZpZpNOM6zPa+kWYvG4aaEdiw+nU97W+H0Lu/8p8QS8gVZBFpXmIJfA7AEhyCFcMzWsorQCLN/ovlu39pfsszsx0G2MdmHDyVfm4U5B04US+xfB3IwLDALIfmf7H8LRH6V157NrV5E0u+jKUELMEK7ue4VD/3rkA0go4X+tj/jpf/yqf+m52bwfkaFSqjiGVUo8zDhYvlYgEiOZGvTXzIst3drxwsfym995td8+sv/KcYL1cuaRadK8cZ42R5BisyQ+aXq8llPzspyIxkP6thfNfF5FvOW3kLf+TvPxWWr+7Oz8IUOFbLpKMZYWflzuu15Mv0mrdg9K4P/ZEYrvzv/w8Z5JXYzu4uUQAAAABJRU5ErkJggg==;" vertex="1" parent="1">
          <mxGeometry x="333.87" y="497.68" width="20" height="18.82" as="geometry" />
        </mxCell>
        <mxCell id="UdDubUNsqIhO31zFjMTl-49" value="&amp;nbsp;Trainable parameters" style="text;html=1;align=center;verticalAlign=middle;whiteSpace=wrap;rounded=0;" vertex="1" parent="1">
          <mxGeometry x="344" y="465" width="140" height="30" as="geometry" />
        </mxCell>
        <mxCell id="UdDubUNsqIhO31zFjMTl-50" value="Frozen parameters" style="text;html=1;align=center;verticalAlign=middle;whiteSpace=wrap;rounded=0;" vertex="1" parent="1">
          <mxGeometry x="340" y="492.09" width="140" height="30" as="geometry" />
        </mxCell>
        <mxCell id="UdDubUNsqIhO31zFjMTl-54" value="" style="shape=image;verticalLabelPosition=bottom;labelBackgroundColor=default;verticalAlign=top;aspect=fixed;imageAspect=0;image=data:image/png,iVBORw0KGgoAAAANSUhEUgAAAJkAAACQCAIAAACUMV4lAAAgAElEQVR4Aey9hZccx7LgvX/zt7sPrtmWbNmymJmZLLYkS7IYB5qZqbq4kqky92T1zHgE19fvWb7X+63nxGlV14wa6lcRGRkZEfk/MCGYEJTJ7Jh8yJ+V1569w68//s73p5QwSvhvF0b4ilDMKWYUvS0Es5lQQim1D/ZN2OyZPTP7+f3XjGLy94W++8FWzhC09An/B8lYzq4i/v2f6O1X+IcsV975d4IkZOky/xdYvkE9Y7lC7t2DFXr2fZYRrvz79vf+fc/fgfo2yxV+qz+nZflH/vwWlh/q/f/LevkGS8JXX5d3j98DcIUkpR/qOyy9zts6+g7LZWux+nP+xfIXPV59Xd49/ovlX3r539LYP6te/grO3z9Grr5Sf6SNfdfbWWVgrU/0oX/eHDLfsLHvHSwJZn+0jX3LtXrL0/mwztbvZfnW8Pnm08x5fZPf6mcfGuWbr4fpuzb/3TP/BJZvfqw/8NkfzJKy1fDeOv4Dv5Z96b9Y/lfmmm9q4S8O0S/n/2L5B9+wq1/+D9VLTv9iufpi/8HH/1KWH977WX21KPkNQ+Zf4+X7zGlmnAnhvwjlhLJZxOfvPK6+9H/E8Qznrz3+xfL9LC1FyvEbwjCzIdv3Cvlj9fI33Rx/OpaY4BVZDhX/+jdZmdhQ6+8RtiRWk1bJaiV78/gX72bZV5qp45sgOWa/xhL/xfItSpYiXSV2Cef98YRsKr30t9nfLP0dwsTGTCjFlGXyhm5ZVSMzYTjTvCUrin9ZYHmfRmYv8hfLt2j9ytMZSETRimC6ska2onz2BZZjIphilIn9LSYYYQwxtv9naeWKQTYTjhhHlCPCVskyZrKyqmXt7TumdfZn7B/p5b9eMf8sNnYFJKQwEwApQBRiCvEbq6tLusgwZhhlAi1OgjBBECOAIaAIMgIYjggKMAwxjgiJCAkRDgAKIY4xBYRDyhEVmAqrqTh7vZnK2vPvCkN0hvN9j9YGLN9gK3famweZ/Z+NArPHX7mrZ79asUnvt0zv/v8/BcvVIAEDmSSQJZAmiIJVOGdaaBFylAmGDAOGASUQEwAxSDBIKEw4jhjycDIB4RQmHoYeRk4CxmE8jUEASUI4oALNhAiIOcJLWgspg5SBNwXSjOUbrtCyWi+dXK3xbx9jYu+VVVG3f4hzxu/9ZuldirMzfxaWmV2FkMEZSMBiwOIMJ5jhnOU+zIzqMkvIf2EJLEsCEgJiCi1IAkYgbAduJ/R7cdSP434Y9fxwHCYewDHhCRWQSUgFJBxgBjGDJJM3Kc6gZizfgvfGU0TeMuBv4PxvsVwBiWYOwd9DuHL+z8YSAJbMQGaPCWQzYzvTTkjIL6o5M7AMQ5oJIRARCAiMKAwomsCkFfiFySQTpzRx61O/40WjCHiAzFgCJgETCWEJpgmhgLxHI/9iuXKv/KYD67ZYlwdCa2CtRi5LAhhYjXO1di47Pkt0yWzIpCgiyMOwn8Slqfu8N3jW6T9t9190hoWR2/KiYQRdQCLMYyoAkwkTMaURxjEhFuf7lBJkVhf9moHlf+nlEmk7XhLLElEAaQJpDK2BtTZ2NnxanAzCJRd3ZQKa/Xc7stgpiBU7v6QxJi4knRAsjPx7zfFP9eHtav9ebTjX8xouGIbYBXTGMuEi4TyiNCQoIiShv4Pl207yh7WxMzP7ljf09tM/hY3NxgOEM/8FE4BpgmmMLdEllsCOoygT6+dkQiGliNhpIsacIEGxYMRKgribsKaHn/eja1Xncml8MT+4Whw+awf1KR6EzE1YbPWSx5zHnEWMhNYy45jShLG3ZEVTrd/L/r784SxXD5/vP/4TsczsJyQEZNYuJjRG1I6XgMGEw4SjhOOEkZjRmLGYWecFWM9FQqwQVgQrhhUnKoFqGsuaSx91wYWyfybvnFwYnc+NH7aiqsMGoXATESERURFxEQoecOJTFDASZa/8FsuELfm08FdAvmfy+sH18v38ZoPO7PHPypJYltjaW8sSMJQwHGcgI8YjJkImQ6YCpkKaRjSNSQqJJkRTksYwdZK06oqHPXK+mpwuhcdz7tmC96ANKlPRD9U0USFSAVWeUK6UjhATzlzOAs4jzuN3VZMxwPg/neVb05L/C1lmFjShJCbEssxG0BlLq5ER5yGXAVc+1y7XU64dblxmfGYiaiAxmJgQmkliql76YCDONujJCjxWjM6UovsdUnbTXqidRAdYu0xPpB4pPZRpX6ixkK4QgRAR52+pJuAc8H8yy5kn8V/D+Qfp5UqA4zf5sbPxcmZjV7MkJMFZ9AdSDCiNKAuYmBI5hKKTiFrEiwHL+6wcykai+9C4yMTEeMiMoSkH6f0BP1UjxyrwSDE+XU7u92jJSzuxGSPjUjNgpsVNhaaLCXvlo3wAamHSjZIxAD7KXCHGoBBQiBWWMNPO9z4i+oZRXRUptOd/2/zyvRftbQcnu1ZvnVxS2Q/O8s0Ftt+6FLSSq7c8XmY21g6cBGACkWXJQsI9IgdA1Hw6P4aPe8ntZnSjEd/v0WeTtOCbLjAuMRNihtiUIvXTgB6rgMOl5FAxOlVJ7vVpKdBtaIbUjIVpMLNIzJNI3BolF+vOreb4SXu42B81HHcSRQFCgHOsFJJyCSfjs5DQ33t8i9/qp7+B5a9ct7fIvfepxfmhWb69/P0bI87vsLRz95iShFpXCGFCIGEhFlOsOpFYHKMH7fBq2Tux4Byem54tgWst+Wisi6HuY90jpkdNPla3BuRQKT5YjA8Wo5NVcHfICpFuYtPlpqdMnppH0Fxz6Imat/NV+8R881qu/qjSzHcHfdf1AACcU62xUsss3w7srbi4dgL6RtT+bR39xyz/m9ftDVP852H5Ns4MZGJjrRgRG19nMZEeSftAFT32bIBuNuLTxeDQgn+sEJ8qo2st8mjIFj1RiFQJ6pdRen3ED9XxgSraV4ZHa+jmiM/FOg9NAZocNI8ifd1Nz/TpoWqwc65/Mte7Weo8bfRKg/HA9zyQJIyRNF2ll++y5IAuyV8s3xpNf8E5m0MyDLgNnSNqowksITJg6QjraqReT8VPPXKuCg7lowO5YN+Cf6IYXWnA+33yeCpexumjSF+eqMMdub/J9lTJoTq5MhJPY/08Nk8C88A118bpqb462KJ7y9GOxfGp0uh2ffSyM66MnVHg+TBJGP0FJOdgeXKyrI42Or8sHP7OeOz/j/RyBaodDChBlECGIcdAIMARZDbUQyEVEVMOTdsgLYTq0ZhdbeMTleRg3t/5erJ/YXqyFFxqgOtD+pOf3vTN2Yne3093t+WOOt/dYGeG8nao7/j65kRfGaSnu/JgS+ytk32VeF/Ju1B3f+66iyO34XrjyPdhElOy4vhYkG+wXA1yNs39tTDe/1M2dpnlch0Fw5hjJBCUCAgEOUIUY0Qp4MJnckhkE6o5n98fkcstcKLk7X493D03OpCbHikHJzvo3ESdmZpDY7Ozr7e21ca63FIXB/vq3NScG6enevJYkx9s0L01sq+GjjTAyWZ0sxc9n4RlP+xEoQNCHyURRQlfFQn6JVQ7s6sCELkikIgsJPv+1ZL/F1namCpidqnQXhgsIFIQZDitsSUUI05jwV0uhkxVgXjls7tDdK7q7X3d2/Gqt31+uC3n7Kon+/py78jsGJrNA/N9R69rpN/W1baO3j80+7pqV51tL+EdZbSzDPfXwKk2vDxADxyYC2ELgAFMXBwFJAkJjG1gj8SU2vDeEstljbQg1YpAItHfx/l/I8uZY/3moqsdCd4Um1GfyXKqlf2qszV9LDCWGAuSVbYyu0AMOQIMJwwnhELEUSKIL5jDRZuIIhDPPXqzG54sjQ/kh7vyo62F8dZauK2Nt3T5hq78tpN+3Uy/qqmvquq7htzSklvrfEsZbymCXWV4oAZPttDVIbnvstcRrUEyIHhCoEfigICIohnIiLKI8kxERGUmKqbpL0JUYtHapdBlJ4gislp+yVyaTSmWDVH272xgeXux+o0/+UdP7Et8OD/2rdF7OeUmK8WmFFlZhmphZ2kZWRoVFYhISFQmKcAptKKQhUqJXZtMrHrgyIaBOAAChZJ4kg25aFFVgOKhA6603ZO1yb7KeEtptLHirq9F6+pwbYN+2ZCf1+WnVflpWX5R5mvLbF0Rry+ATflobwUcb6LLfXrf5XOJqmDZ49wR1OUoYCCkS9H2GciQioDKgKmAppnogFkJmc6CiCqm0saHM5bQ5inNJEtvWVmcI9YjR0uJhkt0sP3JTmVrd8u5B79xLrca8QdjOeO0rJGI2fQpaDOomBXOsJWsJwAndiicicBEImotVYzSAKYeUE4iPahCbO/6xC70I4QThCOMQ0QjxGMgk1jCQOGpYiOlWlzNx+T+JLrc9462nR310aaqs67ifVWJPq+iT2v846r4qCw+KolPCvSzPF6bh+vz8bZCdKQGLnXw3TF7Fcoa0V2uJkr4KQskDjmIGIqsdbUaGVLpU+XSdErTCUnHSI2QGpPUoXpKtUtTn6YhneHkdkE7y2qBGEOCIIGQLOUuIQaXhGbpgiTjiLHNObOQs7ylJe38b7Akv18v39A2WxqIGIFL61LMBqS5wEJSKYXiTFIiCBIYZm4NUogoSNMQKieSPY/XJzjfB/UpGQA5ZanHREhJREBM4oQEgIVQREDGkYx9kbgSO4oPpKxRPg/Iz37yw8Q/0pvsbjsbG843Nf+rGvisyj6psI9L/OMi+7xA1hTQ90W4owIO1cDFDro7Ii89Vop5F4sR466gFqRAyyxpTCzIIAM5JrpPdDMRlYCUfFyNWBPILlJDkk5Y6tpAv4yozVKw6SoYAZQAFCcoilGQkAjyGMoECmCF27Q0hCFCEEGI7aF17WwO2i+WduXC/qOD5eDa72b5jmm1RhFQnBAcEwaYRDKlKhWp1lqKlBFFoMRAwURBaBc3ANXTRHU9URrgF43obsF50Y2qMe8LPeLSYdSlyKdxQP2YB0CGiQxDEXjc92TipWSqxSCVbZUuUHYvii840yODyfb2+PvG9Ota9HmVfFqmHxfpJwX6VQGvK8JtFXiogc530E8j8tqllYh1AXUw9SgOOIoEjASwwnFMbXQiJMqn2iGmh00DmXxAn4/ix4PwlQNzAaskokXUgOsJTz2uQiYiyhKCE5QkMEyAFwE3BE6EvUQEMI1gGoM0BsKmpUGUIAgQAAjA97FcNnK/0P17Z5YywX43S0KXEhJxtuoPCUqWxDorgAkkJFGKKSVTKZRgyuJEKYIpRBpgGw0fRbI+ofMd8KAaXM1N7rej+ZDVuG5zNeB8zPCUJT4LIh4k0kokvIC7gYyCFHqaTrQYaFUR/DmGt+PwgusfHro7uv6GZrKmhr8o48+K+IsC/q5MttXI4Ra50Ke3J+yFzyux6EE+QSwgJKQo4iDmSSyAlRWWNPWoHhHTxKYIzbMpvtPxbzSde73g6QQsBLSGZI/r8TLLmFFAMSAA4AjgIMZehN2Y+YkMEx0laZSoKBFxQmOAYgATmLFE79HLv0fu3fMfiGU2IWQIU4iynEaAQWwFJgTZTEfGkOBYsGzRnzMpRSqFZkxjrCE2CTYhNj2fFwfoeSu+XfEv5J2b7fixzxeILlPV5mLA6YQDn0chDxMRAOHH3I3YNBJBqJIgRdOUDlPeVCwvyDOK7gB40U+OjMGOLvy2jteW0ZcFuLaAttXo4Y64OJI/ueqFjfOpHkmnVIaUA5tPixIGEp4kPIk5sH4zZYn9rfKYHlBTQeZVYu6O4MWac6Y4uFJ3fur6z6ewBHjGUnl2SZUn1k/AdlzkCeIx5FEirC2J0yjScZRGkYwiHkUkimGcwARCgCD817PM3GubqAHt0hS2VgOgOEZJggEgNj/Hfi1O0Cz3kTIilEy1NkIaki03xtgESLc9ttgDDxvBtYp3qji91I5vu/wx1PMkrXHVFWwskC/ikEcJDwDzAHMBmybcj2UUKuAqNJakq2g9ZcWUP2P8NmTnfXpggDfW0Xdl+HU+WV+A+5vswkj/5JmXiakQ02XGFSYSqV0P4QQxtJw5liSWJQKMJlSETLlcd6nJ2xCuudoHR4ujA/Od08XB1cbk4SgqxMyyZMpjIrLhIWIzdwXCEiIFYAqATmKdRDoJ0jhQUSCigEUhiUIYxzABEEKIkHV/3hov39W/v3fmd+vlbJ6ECJ2llQJilzZsciJiCbL5HTNJEEmsJ2eFUC5UqrRhUmOWAqpiogKsWj6e70f3m94Ptenh0uRkK7w4wbci8QzJMlcdKSaShhLFPAY0gNRD1MPUg1ZN41BAl6MRQ31OO4o3tFrk8gmWNwJ+YkC21+DmUrIhH20rxCfb9LaTPgttbL1NzZBpl6cBlxFjiR3iUZbAMMu0tqvf0KZy8ZDJKdctal4Dczs0Z7tgb360c657rDC8XJ8+HMbFmA+4nlqlZAnDkCHEAODWUIcCBBJ4yoorgSuhK4DHgc9AQGFEYGwT7bFNuccU2Yz8v0fr18//PpbLIAlcykPkgHHARCZ2phXZJSoaYOwj5EMUIhQjjBi346bWVKWIz/IZRUB4KwBzQ/+ntnOuPtlbGR9oeceGyQWP/gxEgadtmU6kiCRLGIA4wNgjxGc0JCyGHEQcTgkcIjigZCjFQOua0ItU/xzJCwOytwp2FaPtuWBfMbzcJU/9tJCYJrJLmBOaulR5VPgky8OjKMlwLif82boUSGjIhCN0nZqnibnim6NtsHVxvOlV71B+dKnqPhwk5ZiPufaYSCiBNpUwwSSKaeyz2OHJmIOhACMBxxxNOHY4dhh2GZmlF1mDnGXEzxY7Z57HKlf21xGu/PZ3s5wtZmc3r02HSZhIuIwzCShzIBpEcS8IO37QDYJhFDsA+YQBqZDWQKlIiJBb8ZloxXBuEvzUm55uTnZURrua03296MQE3Y75ItctqSdKxUoAhhAKCfIZDgWNCU0AgwGFYwS6SdIBqEtYl6saSwvMPInV5SHdXwF7i9HufHCoFF7vkVdBWkpMC+oBTgdYDbEYITaGeAJtkUJE7aKMLU8hKBMMKQm4cKSuUvMgNmddvb+NNubdDfPjQyX3h2b0aIwqiZhw7XMJbB2S9XoSHHk4GuKog6MmimswbsCkBWEXoj7CQ0wcSj3GIsETwSHniC/VLb0T6luh9esHH5RlQi3L2KZUcZ/xEYRN1yv0h4vdwVynP98bliZeIwQ9SCdceamZytThciqkJ5UnVQuRBT+5O/JPtadbqqOtdWdH2z84jG+EdJ6lTanHKo2UskMRiikMOY4lBSQzU1MM+klcD6JKkJRDXIxZHskc009A+sOI7a+ivaVkTyE6XI6v9+iLIM3FuhyrRiIbCW/EtBnjVgQ7YTwGMCDE8iAEYoSwxZmx5BOZlqj5KdLHJ3pPh24sx5uL4dEGuD4gTz1RQelYGE+kiZQJ5yHBHgR9kNTjqBCGC77/aurNu37eDcte3AhhJ8ZDRKeUR1IkUkApkMxSNd+TSvLrCFd++6FZxoyHTHiMOZS2o2ihP3hYrt4rVm7nKndLjaed0cI0LsWkQWVXmZ5Me1wNZeqk2tW6xXguQfen0ameu7E62lCbbGxMd/WCyz5+zdK6NCOlQ5UCRrEd1GJBgGIYU1vGNQJJK4yK02DBCV9NkhcT9DpmCyx9jNIfxnxfFe8tw32l5GgVXOuzZ4GeC9PFUOYDng9IzkcFH5S8uOyGvRh6mNkxglDrVyKYscS+4GOVFqj5MdQHR+nODt9YJ1vr5ERf3HL1i9hUiRlJ4ykTpyYSyiV8CHAtAgt+9NzxHw6nd7vjB93Js547NwgKk7juo15CHcpDpeJUQi2QElY1/4UslxeObc4xoCyxqY7co2xCaTOO54fjn2vNW6XmlVzjcr59vTa61Qnuj8Bjn75M5AJUBeuj6o7SQ2MaUuUJexihM6N4S8Pb1PA2N/3d3ejSFD+DskzTHkt9kcaUI1toCxnFghNA8RTDThLnp+6T7vBee3yrPb3RCe+4+GekbgF9aiR31PiOCt1RJvtq9NxA3Pb1XU/+NMZ3BvGdfnCn5/3c956PwoVp0oywSwTgEmC2MuUDlLpcDISeR+nlqdjRppsa+Nsq2ljHx4fiVqhfIFPhpq/MUJmxMj2qqjFbmKLHw+h2x73aGF+pDS9V+jdro/ut6fNesDiOax7qxnRCeKhknArLMuVIcFsTOCvYxjbM+T5ZUcR3DrKE/d8VK1jGSUC2JBQx5lI2prSRJK8n03ut3rVK92y+c2KxdyI/OlFyz9TDi114bUx/8sVjkM5RXZambUwt1UWVPsHivIu3t+MtrXhLM97dSS6M8cOA5YBsY+WyNLKZzbYBhO3OImy++QijWhQ9G46uV5sXSq1T5f6x6uTsMLkcy/ORPjjUm+vppqraVJXb6/LIIL3gmfMTdroTHa9OTpSHJ0v9i7XRna7/woHViDpEJTxNME8SnABs8+cpd6jqMP0iVucG5Ptysq6cfFUC6+vo6JjfBvoFNSVp2tq0UtNUpoDVM5fe7oAfat7J/OjwfPfIfPfoXOd8fvBj1XncDuaHSXWKuhGdEBZIEaccao5TjkVWNWZZCvp+eX9fhaxAfwnt72I5a5Bm/T2rmjad3GNszFgTogUvfDR0brYm5yrjo/nxgdxkz4Kzr+AfrETHWvD8kF735c+JeknSgkjzSue0eczTCwHf0cNb23BLC+xqgbMDdNchr0NWB3JiQ9jSFk0ygTnHkvuMDjAqR9HD/vBisXYsV9u32NqR7+9vBUen7LCb7ujr9Q2zvma+q+mNDb2rp4846cE+3l3ztuf7u3LdvQudE6XBjU7wzCGVSExomvA0RjyOcZwQO9UnckxUE+snvjjZQd/kw7XF+MsS/K5BjjjiR6QfMzMvTEnqRaZfk/RRKG4O8NlqfDTn7n012PWiu+9V79Dr/rn8+Mea97gTLYxAzSU9q5cskCxWDGqGUzZjSajIWEpK3hLxblOF1Wdmru8HYGm1c5mlz7nDeY+yOsL5GDx1wa1hcrEdHa/4exenu3Pu7kKwpxQdqicnO+jikNyc0p9D/hjJZ0LfY/pMILf12eYO3tSE25vJ8S64PgRPXFyMeR+rKVWRrbKTkNu0VY+xASaVGDwZTa/WOyeLrT2LrU3z7S1lZ1s72dKlG9rym4b5pm6+rpl1db2xpbZ3xfYm3Fr2tuRHuwujg8XR2bp7ZwBe+aIGlEN1zHWMRBTTKGExkhFOBzCtxumDqTjexusK8TcV+E2dbuyKw1N1BZjbUN8H+mGS/uSLGw671EOna/HhfHBw0T2w4BxacE4VvYvV6Mdm8qiH5kak5NJWyAaAOYT6gkaKgpSilCLBsO2U8S9lOVtAW2EZcOEKOZFqqFRPpUWaPk/S21N+tpXsz7k7F6Zb593N8+62RX9nIThQiU40wcU+uuHzezT9keoTgdo6FJs6dEMTbq4nh1rRxU54b2zDnm2kRkQFLI25ykS6VAwwqyX4hRPc6oxPV7u7Fpvfvqp/s9BfU/DWlMGaGlvTNF81zJd181VNr62Kb6rk23KyvuBtyk92l6bHqt4PnfjnCV2MdRPpKTMx0xGSYcyiRERQhUh347QQqHtjfqyFvy2C7+rk+47cOtKHXH0+NpdC/YOXXprI0116tA4PFKO9i/7O19N9C97hXHCqHF9pkbsD+XSs5qeq7KlmJPtAjDGfUupxHEqcKAxVVtr052EJMxsbcu5x4Qg5UWqodJPrAjYvYnXPIVc68dlGdKQc7iv4e/L+rpy/Ox/sL0WHq8mpAb0YqnOxPuCmm0fq+y77tgHXV6Pddf9Ew73Rj174pI7TPk1dloY8DZmKqHSJGGHRBiznwcej4FrbOVrpb8u11+cGaxYnn+fDz8vk87r5rGY+q5jPyumXJb62gL4rJFuK4e6Sf7we/dABd0fEKiU0fWw8amKqI6TCWQgVph7UzUDNT8TtLj1WR98XwIY63dRV20Zmr5MeddUxRx4b8iNdcqAO9hSD3Tlv76K7b2F6vBhcrMY32/jhkM95uhjoeph2YjUAYoLYlFCPYd8uyyDLUhLEbeMT28Tm/YPlP7Kxtn0G/b02dqaXmFhvNqEszIbMKecTLkZc9XjaYrpGdAHK+YQ/dMn1PjzbSI6Vw/15b/eiv2Mh2LYY7a7hgwO1f2J2jPWGsV7XY2saYE3F31yZ7quML3b9hz4u07TNUru0xJRPZUCEh+UUqSGQjZDlPPJwFF/uuIdro+2l0TeLw88X3c+K6JOq+bhiPiqZjwvp5zm2dgFtyoO9JXCiBq92yYMxm/NlNU4H2DjEhFQnRMdIRYkMgQqArTypTuXzHr3RQMcqcHMh2VyjW7pq61DvGKpdQ76rR3a14c56vL3sb8tNdi5ODuSd40X3cj2610Uvx6zoyXasB0CPoZoi6WHmExzYsjIY2vU1FEsMBIa2QTi1rb1sj6F33Z9fcXw4tS2N7BTzA7OMKPMpde3MhI+oGDM15ulY6lFqhsZUiHrus9sDfKmZHC8F+3L+1rlg/ctwQx5tqslNbf1933w3Mmu7/PN68lnZ+7Y02VYcnGy7d32UZ7rB9YCnDlMukR4SPpI+TF2oh0naitWiz+5PwKW+f7DufJ8bfLXofFaAH1X030rmP/Lmb4vpFwts3RzckUPHq+Rqmz0cy1ygG8AMkNXIkOqY6ATrGKURVAFIPaBHsS6M+YMGvlwGR4tgWz7ZWiNbO3JLP93U5RvaeEMTbKhFGyv+pqKzeXG0Oz86Vp5eagT3emDeofVADpLUxzoiaZZEwhObwQ1jBmJuV0ljAWNhaxFXsfyl09Bq7+ZXj2csP0BegdVMTCjK0tSWWdJphtNhfMrFVMipUo7WHZGWkHwZ8vtTen2IznTQwRraVsQbCnRdga8pya/q6Zdt/XlTfFpDn5WjdRVvS8U51g1uBWSO6xLXbaGHPB0T6UDhQRmiNETaxXqM0waUczG976OLw2h/w91UCb6p4FurWJIAACAASURBVM8q6ael9ON8+tmiWrfIti7ioxVytcMfT2QuSDtIT4jxiAmJiYi94hFOQ5z6KHWRnkDdjfXciN+qwbPF5EAh2ZxPNlXwxib7vsXW1dFa+wmjDbV4az3Z1YgPNKJTnfjqEPw8RXMBrSdyiJSLVIwVIBIxgThDnNj+GtwursV2fQ0kHM4ygLN0KNs37FexvVdBPyxLm5llE0JmLD2rmtQO74z6jAacBUr4Op2kaV+lDZEukvQpVD8G6uxI7WupjSX++Tz922v6t7z8qKI/qoiPK+SzCvymGm2u+Uf6yfWQPeNmUZiaMB2u+0SOAHeh9TMBMTEzkTBjrps8XaTyXkDODZP9bbC5QddU1Zcl9XlOfbUoN+f5gQK91GQPJ7IY6x7WoTBQGsAz02pB2kUbn6Qu0RNs+sg0Ev10yC6XwbFcvDsXb8wl3xfht1X8dRV9UYg+WZh+VQi+ryU72uRQn50Zi+u+fARknqoWTydCR0InVEEsMOWUcyoZEdhminIAeZLYtgyzwm+YBYGtSsxmF/9FnH8ISxZR6lHiUuoy6nLmMeIzHHAcSB5o5ep0pHU3NRVlp2UPkLkSmONjs70p1+bZJwvso5z8W1H/rSj/VmQfF/GacrK+Eu7tgPMuvQvT51QXhGkI3WE2LO4SFVMNmQFMxzz1hB4q3VD6FZK3fXp2RPZ12Pqq+LbEv8mx9Yt0f5ldaPB7A7Hgqw6yiVhApFikkKUJSSOSBkR5xM5MRtR0sKlCsxDqO312qgT25uKtueTbPPimCNeW0Fcl+EU+/mzB/6YYb23iA31+xlHXI/0AmTlmaqmNBNmontQJsywR4XZbGzvjQJgDu0w9a8hA41kPI2Trn3DWPizDubSfzWxXm5XH9yrlynj5wWzs0hQzoGRK8JQRVzBPcU8Qj0GPI1/SQEtHp4NUt5VluajME2ZuQXMhNIfG6da2WldVX5XTTwr6bzn1Hwv8P+bJp4tgTT7aUksO9/BFl91N5GumK9K0pB6K1BU6FhpyHVMVYulR6ch0kJoyS59D+aPPT/X5jhrbWsKbF8HOHDjfIA9GcjGbGIyhHXFtBwrMIyxCLC1IljpcD5huM1NC5mVs7rn6QpftK4Et+eS7PFhTgF8W0BdF9GURry3hdSW8pU7398QpR10L0wfYvOLG3m3K9IRxuPGZDomKcZbQZZMsUNbAyDbXQDTCNCJZyXBWmghXpVrOYuW/PNrtNAjLwl3ve8wcH0I+HEuY1WX5BDsEThh2FfON9BRxOZgy4EniGzFJVU/qprAs86l5qczP3NzA5mxkDk3N9r75rm4+L5iP5tN/eyn+13P6n6/gp3PxukK8rQYOd9FVnz8haU6ZhjYDY1xtw9lQ6IhIL2Ee4r5QvrH1eBVhnoH06pgfquF9pWTPYnAkH9zp4XKc9mDqQBFAFiTUj7EfEx8wHwmXqinXI2Ha3FSYeQnNT765MNIHW2xzCX6TB18V4KdF9GkBfZLHnxfouorYUtf7uubk2FwOzH1k5qQppaamTEuaHjMjYhysXZwGWIaYhQRHBEYkiUkESIRISEnIiM0Rs20YsnI2ajXzjc5/K/mvb7V3f+vp7M8+lB9r0ygTSnyCHAIchjKWaqrYhMERhUNOhoI3CSsm5HWInwb4QYBuefjyFJ8Zk6MDvq8rtzfVhnL6dS79Yk5++pJ//IJ89gp+NRd9l4+2VeIDreR0P7kyTu558EVMi9gmOo+YLVV3sBon0sHSE6lvzCC1w+pLmN6cyOMNdqSCDhXjU+X43oCUI9mD0sEiJNwK5gEWHpEOsamRHaprWC+C9Fmk7kzFpQE/1qJ7qmhjIf42H39dAGuK6Ks8/DIH1uTgt3m0qUh2VsjBBjnVwVdG5J5HnwTsZcgWQlYMeS2SrUj2YjFKhAO5h6nNECMwJgnAMcIRzYThiNlM7oRiuJQIvQJw1cFb8N56+kewxD6BDk4sS8l9kzqSDxnuEtgmuEFYLkLPJtHdnnej415quqfr7tGqv78S7q2AXRW6vcw35+X3C2rdnFj7kn71Aq99BdbNRRty4bZyuKcW7q9OD5VHZ+rjm4PwqU8WY9FAqa2cRbqX2Fo+V+jAmGFqmtLMQ33HUWda4lSdnqyiC3X4cETKkeghMaUiEiIWMhYqEOmUpyOuW0SXkJmL9UNP3hzx811ytA53l2xW9IZcuD4Xrc8n3xXht/lk3UK8bj5aPx9umAu3zAc7F/z9Of9EObhYj6634jud5EEPPBuiuQkpuLTqs1bI+wmfIO5Tm/AXYQhs9nZMUESRzam2adU2exGQLLXS5rG/8/MWvLee/iEsAwKnJJky6EnmazXkrIVgOU4Ww+S1Dx6Nwltt91J1fKY4OpobHFgY7l0Y75x3di8GewpwT4HszrOdOb5jke1YpDtyZEce7Swmu8rxnkq4t+rvLox2znf2L3bP1Jwbvfj+BL/0RD5Ky5GuxaaDzEiYqTYDZVkuIH13mp5tp6cbtmvBhSZ+MKalmHewGHPpK+mp1Ett+4kOS2tYLSTqSaDuOPLKgJ9pkaM1uL+U7CpEVorRrlK8pwz3VvHuEtyZT7Yvhtvm/a2v3e2vpjtfObtfTQ7OT48vemcL/qVScK0S3GpE99vJkx54MQDzI1j1SB9wl0qfsAiTBCOIAbb8lohmB2DWMnWWzf4WzfftB7cCdOlvP5iNzVoKoIgCnyYeA54gU8lbEC66wZOBe7fjXKtPLlUnZ0uTE4XJkdxo//xg39xw79xo7/z4YM47WoyOl8HJMjpdIefr7FKbX+6JH/r80oCd66GT7fhowz9YnuzN9fct9g4XRifK0/P16GoL3e6zxxP5OtBFYJrM9FI7XFWFeQ3Nrak+1dbHGvJIlZ2q058mfBGqGlNtkfZl2pVpW+gKSedi/sglP47wxS4+2cJH6/hABR+s4MMVfKyCTzfwxTa53KVXe+xaj19ps0tNcq6GTpbjIwX/cM49tDg9tDg9vOgdXfSPL/onc/7pnH+u4F0supdL02sl58fy+EU3bAR0SlKPyNB6WzRZqlAAiFgdzeosAMYznLMmuLOxc+lxtlvj33v8sHppMwIhRYCCmMUhSzyOJgyXgvBR17lW6Z9Z6Bx83tz/smP5zU92z412vhrufjXY93p4cG50POecK3s/1MLrjfhWCzwY0he+nAf6JdTPoL4f8GsjeLYVHK9ODxZHexcHu+YG21/2d885BxbC40V0ucPvu/pFYvLE1KR1fIrcvIDmxtQca5tDdbWvzA/X2A1Hvs5mNWVpKtIUuU3xepbI2w6+0ImO1sJdxXBzLtySS7bm0d4iOV7lF5vydl89maYvPf3a0/Oufumkz0bqQZ/fasPLtfB81T9T9k4UvWN5//BCcGg+ODjnH3jtHng1OfByePBF7/Cz1rGn9VvlcdFBDtEu0b4NR8iI8KwdA0ooBBSALFMREYAsTkt0dROmVV3iVtrFvXHwIVmSpUIlCEiSkCgksUeBQ1HJCx91JtfKg7OL3cMv2odeDw4vOkcK/tGif7zkn6r4F2r+5UZwsx3d7SUPB/DZGL12SD7gFaBqRJeJzpP0ZSJ+9sjNEbjci841g+NV92De2TU32vXa2fXa3zsfHS/Di216Y8jvu/JppJ6D9AXSP8fmB8cc7pr9zXRXVe6ri4tj9QDqp1g/Q+o5kI9j8XPAfnTQhW50tOruLXpbc/6mxXB7Aeyp0BMNfqUj7w3TF1NdjEwtNvXQNANd93XFSwuufO3Qx2N4fwhu9cG1TvJDE5yvwjNleKoIThTi47ng2ML02Nzo+KveiRetO9VJcYonxEwtSx1gFRJbrZCVH2U4bQlRVmHyfpZouePfGwhXTn5glhlOCHGcwCBEoY+TKYYVN3jSmfxYGf5QGJ5eGJ7OT8+Ww/N18EMHXR+QO2P6cEqfB/R1wBZDXopFA4gulj2i+lleSIuqGpEFJOYS8TTkP7v09oRc6cHT9ehQwdu74O146W174e16He5biI+VwPkGvtpjNyfyp0DfCMzZiTnYN3vaens93dVITw71tcD8GKQ/evymQ66O4KVefKYVHKlM9+bHO3LOlkVvaz7aX8Un2vLqQD2cpguhrsamB80ImnGsJ6Eex3qc6CFM21DVkMgD/jriT33+s8NvD8SNrrjW5peb7FIdXajE50v+hfzkwuLgftMv+XRMbQTfw1Y1AyJDKsIlnLb6JksYm1UJvauX/2yWtts5RFEC/Aj4AYw9CBpu+Ko3/bnh3KlNr5e9G/XoZgve6rP7jnwa6jlgSsQ0symdnZBx4yodaR0q7YnU4WrIZJfwJhFVkhaJnod2tnDfFdf6+Ew9OVwId895W567m5+6m56421/4+xbiIyV0qs0ujNVZRx8dmT0Ds6NjtjTN1qY50NOnJvrMSJ7pk9MdcKIRHal6B0vTvbnxzoXhzpyzu+AfqCRn2vT6WD/0TS4xHazHRAdExzgr6olUAlNA0oTrQOolP4vbb7GQmOeBeeyah465PzZ3B+J2l9xugVuN8FbVfdaPqyGfsXRtBFj7RNmCTlsQaINliU3+wzb5z7qywGbmLnUmX+rDtKKC7z34b+vlG2PyqjZQNlcEoRiAIAFBDOMQgVGUNNyoNIlzo2R+COfHeH7KFnxpnU+o69jmjw+4HnI94haeJ1QkZSikz4XHuMP4iLI+5V0qW1RVkMoB9SoSjz1+b0Kvd9GFOjhejA4s+DtfTne8cnfMBzvz8e4K2tNiuzpyWzfd1DUb2mZ903zf0Nuaak+b72/Rgw10uJYcrsZHqtGRSnC07B8reeea0bU+/MmhT3w5F+sS1B2cOkT5RMazxs+QwcS2uIWYJ0QETLpCjXjaY3Y+U0emDEwxNoXI5EOd89WiyxcdujDBCyNQ8UgXyAnTTlav6dl8F8sypCKiPCbM1nzb7PVZSeYSv9U434tw5eTvYfmeN5t1QMMoQSCEIAQwBiiJIPIhcSFzAB8DOYJqiNIh1kNiY54TZpysp53LU1dIj4uA85CxkNGQ0cDGcm10fsrYhPERE10iGlhWkSxBlYfpy0A+nPAfu/hcJTo47+x87Wyec9cv+Oty8doiWlNha+pyTdusaZk1TfN1I11X5euLeFMRbi8ku4vx/nJyuApO1MDZBvihCX6ekEUgGjztCj2UZipseUJCOSAU2XJXWxdLIbCmB6EEkRAzlwiHqglNR1bsN7JC9IjYdZsxSsdQjYEcAzlByqHK4emUqylTLpN2CXbGkliWYKnVE82mljNteeMir2B778F/j+V73mb17ZNtRBAjGNvvi0CWMUxtQ3MiEiITWzysIqZCli6LCrgKbLtCCzJgPGAssCB/EZ8xl/MptwuiPSw6RLZpalvZYb2YqGcevzWA5+rh4UqwoxSuL0Zri+CzIv64xD6uyk8a5tOG+axuvqilX5X4mhz6Ng83F+DOEjxQw8fb5HyPXhvSu2P6OhJNqiYqdVUaKBVLATiDjNiS9Jnds4NagjGAGCV2bwXmU+nZKobUY6nP0oCnIVchVxGXMZOJrXrPhNgsCJ9Jl89EuMxm6wd2vOS2W/gyy1kXlQzMSorjH2hj32X5psm1+ftgJtaxzlpmZX0Xlso0Z4UTli7lCeUxsxIxHnIecO5z7jHuce5m4nHmc+bZk/b7T2yCD+8T0WfpQNrFrwbTRayex/wnj1yakCMDuq1Dv2vyL2rio6r6z2r67xX9nxXzUdV8UtGfFcWXebquSDdX2J4GP9oT5yfyuifvR/IFkEUk21SNmZza+4lGNqqGwBsbbNgu/tm8iyS2ga2ILDwrEbdZSAmfdUFkWW1/1mY629YCETbLuPAZ87Lmph5jPmPZSMkyA7ukl38GljMVn91PK/u/2BK05Q0LlregmG1EkTXrmeVjzorhE9tMlM1yhaZcOlw6wsqUCzdLIPJsRrx0iM16GhM+4cpJzVibkTZdY8qpea3MXWrOx2bf1Gwami/b5qO6+beK/v+K+n8V9b+XzH+W9McF+Vmef1MWWxrpvq455ZirsbmPzUthyto0RNolcoT4FOEAgggltrCexomtWgHJcj/imJNYsFiIWKpEmUQaIDUQKRQCC4ptM41sJZdCTqzM6lMQQQnFIcN24ODZmi6joe28actibKa87VXBMpazi/nP0MsZgtW6mO25tGpflZXuJ7PNV2Zt/mZNqbJNQOxWILaAwG7WRGzJH2WxLY2zyjfhcsBVX6Q9K2rA1YhLm2jC1ITaPLwBlgOqRiIdp2aoTd+YljYFZV4IcxuZM4HZMzYbe/rLRvpRVf17Sf3PvPzfhfQ/SvpvJf1xUX1a4GsrcmMz3d03x6fmh8TcIeapMDltakp3RTpickptSo5Pscewy/HUVmUTh5EJI2MrbGKT05QrUz81YWoSZYDSUAjEKbLdRRG1yU+QESu29gtDnG3QYLNDaBaEtd1mZvXj2AZhrflaumzLBvafxHKVFs6yQ7J7aqnqbLlTzyyF3u5JZxsvWVneiidrHDe7Ay1QBu3gbzuuOFQNmI2rNYVuZNLiusN0l+k+1YOs9UOP6B7VfaGH2vR0lvOuzYI0T7i5CcxJ1+zsm+9b6Zc1+VFJ/HuB/89F/m95+Z+l9KOy/rikPimIryry+1a6Y2COuOYCMD9S80iaOWNVs5vaIqSplB5nU87Hgg+E6HPR5aLNRJPyOuVNKtpMdXk6VNrRxtcm1gamGkoJOYV2MzKUtRlfags/O8bExurgW4JtlMd2oLCwlzqLZEzf8Hpm7sh7XZ6VkzMkvzMea3VvuVHqsu7Z9lM2FYJkQu3tyrPOMLOG5VnT3FUskWUpfWK7rLSwKiKZQ3IRqQWkclAVoCoBVUlULUlrQNehaWDTYqYt7ZJvVZm8NM+pvgfTy0F6dJTu6KTf1+WaMv+0QP+Wp/97kf5HQXxUSj+ppJ8U5cd59mWZfdsQW3pq/0SdCtVlkN4h6WOhFmXaSPVA66FSIy56Fp6oElHCIof4AmBzCX0VkYWE5aGoYJsFMki1k+pA60TrREpgiynt5hxZz1vb9naVAGz9ptUSYxxnZ2zQ7t0J5WqPMksmf3/EZ4bz97O0C9/WplhN47aDGLaV3TPJ2mdJjKVN412SJaLWCNkPNvsA9hUS2wlJDZAshuTxJHkwAfcddM/BP0/wwzF+NCKPh/TpkL105Lyvc7EtNy8S28l3DptnUN8N1ZWpODMUhzpiZ11srLBvivjLAv40Tz7K00+K/LOK+ryiPi3QjxfAF/nkmzLcUEc7O/jgkJ506EWPXg/oIyhyIq0pXeWqgnkesNcReRrghy68NwF3hvGtfnij698dRo8d+CogRcBbTA2Emkrr90ZCZF327V44tnnDqh3m7DGxgRTb7WdJrHuYucPWMf6Xs1xqzmTH+kwRM4R2P4LVgrEiSBEkrcw6o836ca3aLhITkpWSqx7kr8bx9frkcn16seFfaIQX6+EPtfCHanS5mlytgjsd9nCcPnXN89C8SMyT2DyIzB1fXx6JU21yuEH21cjOMtlcROvz4Js8/KqAPy/SL8r8q6r8siI+y8NP5vzP59y1i963BX9TOdxeT/a2wOFOcrKX3PTIU6IWhH5N5MuEP/LJnQm4NogutYOzdfdU2TlRsOt05yuT6y3//jB+5eMK5G0ih1khacBFbJsVLKnmbC+j5e03iE0AsVuw2Er2rJUTohZqRvSfzvKX3JOl/eKW2vrYvUEwse2zMFaZpBgvCcIpWjq2DdGs1lp/1t6ltmvYLL8lK9MHtkhYDhCbc+KbzcnlmnOuOj1V8U5V/JPl4GQ5PlkCp0r4fJ1faafXe+Za38oP/fRiT53tiOMNcrACD1bQoSo5VKP7a3R3lWytkO/LZG2JrC3TrytsXZWur8CNpWhLOdxRDndVwt3VaE893luP99XD/bXgVC/5YYpvBuymz3/0xJUxPdcFx+vR0UpwqOgdyk0PLUwOzY/OFKdX68G9XvJqiiuAt7EYUjG1Uapsndk2NVpyapLZbie2GcmsGZdtZGD3H7Ocsz0BbdQhC9vZxefVY+TbAbwPZ2MttneFLRcIzoZGSYgiJCU4JVgTbFu+YKIR0dD2fkkBlgBxYNtS2HUdG0e2XdSzbmMMQkESyceE5r34Xte51nTOVSfHSs6RknewFB4oJvuLZH9RHCqpoxV9tGIOF83BvNmXV3vybFcO78qBXbl4fwkcr5GzLXG6I0515eG22FGn35bxtxUrG2p4dxMf6+KTXXS6A0+3wfFmcrgR769Gu8r+1oK7s+LvaYT728mRPjk5kke6bF8N7ixEO3PhroVgz7y/b947ODc9U/Cv1aKfu+C1Q6ox7yA+Ityl3CXERchHMEAwRNBmZVE7B42ZjLMWGwlWwPYVkQCKBPAEsMRGBGe9Q2zHtGzUyXok2GDs2zhX3Jz3HvzG8XLJlr7TEIHPXJvlR8uSkpQSTbEh2CCsAUoTlNryDChDmy7FA0gDaPehjOyaOrQzcQaQAMCWyDCH0XKUPB75P3bdCw3neHV6qOrvs9cabS/xrcV0W15vz5mtC2bTK/P9M7P+mfzuOfnuBdz0Otm+EB0qgXNNeqOvro/S6xN9YZQeaPONVbyhAjdUwLY6PNYj1xz+o8NuTeitEb7cQ2fa4HAt2lX0NyxMv1t01+XcdYVwUx3v6KbbmmJjEX83H2+cj7fMxzsXov2L0dF8dKGS/NiEj/p4fkprCe9APsTcIczBZIKgA+EUQhciDxOfchsYItLDykdpgHSIdJT13oqALXOIEgGA3fvRtg+xVaW24WpG8T2u0HsRrpz80CxxppdEE2oAToOETwI89HDXRR0XdX3cDekgYSPEHcKnlFujxGkoSCxJpFiYyrEUVURfBuihB2+74KoDzk/Q8TE50Oc7mnJjWW8s6A2L5vt5s/6V+e6F+f5VumlebMuzfWV6rEEudtntsXjspY98/TAwP7rpyb7Y0aBba2hzNdlZS0534a0J+XlKH03Zkym757CbY3qhT4420c4y2FQC35bANxX0bYN930m/b6rvKvy7At1cIruq5FCDnOmSqyNyx6GPPPYq5AUgGkS1iexi0cd8QPmQsSFlfUK7iHYgbQHaTGgjJHUPtwPaD/k4li5QIUrtqgtSCVIJ5IndudV2N1yejcx2gvjX6WXmtdpGhYhqxE2I5ChAzVFYGQS5nr/QD/LjpOjafoAtJHss7fN0KNKJVK5tDcl9LT2djlJd5+kCUq+IesbUA6Z+JOoiSo8G6Y6B/q5m1hXN14vm6znzzWuz7pXZuKi3l/T+enqyl16epHf99IVtja8XoVnIWuNfGqt9bb6rgbdX4z216HwnuT+Gz6dk3uf5UL4K1ZMwveOq8wN1sCl3NMT6Ol9b52ua6qu2XtvUX9fTb6vptlZ6oJeecdIbcfqIpi9YOs9t/W9V6JbQLZY2iWwi0Wayp9KOTBtMlbHMJ2w+xK9c+Gocv+gHi6O4MsWdgI8TaVfQqE6YBkwniEeJXfKFcAZvZl3/KL3M+p+/PV7Oiqp/qanHNjVbQiJt+yWeOpA1p9Fi13nRmjyoje/WnPvt4Oc+eDTBzzz2MhJzsVwEqohUjdhpeEeortRNaUrc5n0/Z+YRN3eZuYLTk0Dtc9WmnlpbVV8V0y8W9JdzZu2cWTdvthTNvro50TVXHHM/shmtRWKnnjVqysS8SPQ1Rx3qiL0NvKsa76+GlzrJozGa92g5Fk2YVqDOQfM0Mjcdc7qn93XSje10bVN90VSfNNSndfVFNV1bSTc20l0ddWycXon0z8wGJV4Km3SfF6YkTJHpPFE5pBZJumBLo/UzoB5G8q5HfpyAG4PwRse70XDut93nvTA/Slo+sdm52VWCIk0o+z/tfQeTFEfW7X9+L95+u1pJIIQQAgY7eO+NhPAgCRAIhPDMTHvvbbms9KZMvrjVMwhY9hOrRdKGYicyarp7qnu6+vRNc/PccxCliGDCYD2adbAvj6/Oht7nXvQ/zmNfg5ODBi7kygNpXGk6mOXG7v1m/9tK70K+ey43OFuanqmis/XwbJN82aYXuvzqQN4cq3sArX5OogWeLkj7VNmH2t4V9ga1X6P0mGN2DeVcR3xWlx8X1ce56KOFdPULu3bBfrFod5btsZa9MLS3ffuM26KyLWMHkHMHH5nnOL0xiY609IEa21MOD1WCK23yaMwLvmrRaJilkxoSzC1+8O3lkT3WT3d003WtZFU9+p+K+mtJ/b2gV+X1ZwW9sah2NcyJUXw5tN8Qe5vae9w+kPaxgjTFTzy9z5LvcXoDpZe95KtpdHqkj/fo4VZwqO4cqYyPl/rny4Mb1eH9xmRpGHQCPmEq0IYmETEylBljVmTm2D/D+RqQ728eOxtY3zwuV7HM5kRMgHcH6BVINRKyivCjweSbWufLQvvw89bup52dL0Y7ltxti97mBW/zgj+fD/eX6fEGP98VN0bqphPdQcldau+K9K5Or9P0Sy89PEp2dOS6Gl5dxh8W6V/z/G9L+oMXyccv7NoluzFv99Xs2Z79xrGPiK1EwMAbp9ZNQaGlo+0iSb6dRMea6lCN7SuFR8roeoc+m8haaEYyCRLrxHYU2boExcJbjj07trsHdn0n+aim/0+B/98c/8sS/9uC+PAFX/WMfZGTu5vRibE959iLvr2G7LfE3uL2JrffcnuV2i+99Mgo3duL59t6c1NurOL1JXd9YbQp19+21Dmw1Dqz1LxWaD9sjytOOCDM05JZTRNOYAIE7pArzthvjpS/Sw7vlY53liLHSmXeaabPZSHAD0bejbZztjw5nJ/szbk7csHWJbR5Cc8tka0FOl9ieyvsSJ2eatIzbXauy871+bkhPztmxwfsQIfNN9lcDa+roE8r4ScVCkqwRfVhzqxaitblo7lidKAen+8lt530OU4b2g5jgCeI7cTYnrI5nNwcmxNNeRiYruhYGX3bYQtT3QzjqUxxbH3YcLYgWkjs+ONoigAAIABJREFUj779epzs7UbrG3p1Vf5PWXxQlqsram1Fry3ItYtifU5sLcs9TXWgrY/09ImBPj3W5xx9xtEnpvrIWO/t6a0ts6muv6irz2tyfZWur6KNFXdbZbK7PDpRHV1tTu51nMVx0AzIkDJPCZJImnAaUzpbry27nP8hWL4SqVlddGYsaCIeJ34Ud6TJUXXf4Ve65FQ9PFAOt+fDrXkyl+ebCnKuIOaKYkuRbi+GO4vBzoK/q+DtLLjzRXdHydladOYKzoaCu77orSv766rh5w32eUt9WlOrSvKTolxfUpvL6nBTX+pH96bxEk66CoAJItiEcjXI3RVwcntkTjbkkQo9WETHS+hmh+fdqIMTT6TM2FBbX9mBgHquZ6G9Mo72tcQXVfZplX9YFWsaakMn2tqNN9XNF0W5Psc35OimPEx3t5XpfJXtbLDdbTYPkid0rkE/r7LVRbGqKFaV5OqKXFvj6xt0cxPvbAYHm+75XnB3QhY8VkGsS9iYgw5cGAsCaZUsUWbAk3em7f163mC5s325/HjrjRkU/2ZufRnPLMMuqdTCRCpOSJxOYI6XLuDoB0ddHYhzHX6kzg7Uxe6anq+ZrRU9V5IbC3RjDm1YdL9YmK5/Pln/fPz58/G6F6PPF8afL03W56cby97mGtraItu6YnvfbGzJT2v80wr7osK2VNixlrw+NI+9uEySkbK+sdhYZqyvgatRDJPbI32yLo5WyEEgUqNbXVH0kh4YJlquLJEgQzzltsVsgdhvx/pQg24qhevKZHWVrW+rHcN4v5Pu7sfbG3pLWcwV6cYchkqEPN5QwBtKeGMFr6/gzyr4kzL+uEg/yPMPCxmQsKpR8z15YCBODNmXQ/ydw56Cz4JuUzGkbMqpJxkynESQJRMxzB0hc5Kl4/94LLOdDyWkkSqiICmQDETSYHGBRM9C82Ngbnr6qmPOT+KTw/hgx8zX5JYS25BH6xbczxactS+mny5M1y5O1y5N1xe8uXKwvR7u7dAjA3FsrI5NzNFpvLOvNrTYujreWAu3VNGpLvt+qnNh0lmpiuUm5Qa8CUYrWJ6osyMVfKAQHC+h211R8pJ+aD2aMpZSZgmzPrMDZuvU3p2oEw28rehvKPpri8HmFj04NWdCe8JNjo7iQz2zv6P3NOWOmthcZhuKdH2ZrKuQtVW6pso+qYrVFbWqotfWzVwn2jWMjkyjr4LoWmhuIX0PqWehLBHRprxP6YRgh2KP00CyUHEK+vMCdu1nKXjg473Z/jEN9Dres7Xpe6rZgyQtDJ+ggzuTwg1p5LF4KpORSXtx2ojTUpI+0+k9bm+E6dlxtL+ltlfYhny4ZsH7ZMFdteiuWnI/yXlrCt6Gari9xfb31ampuRQkV1F6BaUXg/TIRG3tkQ3NYFPd21J1zvbxA183OFQ68tiqOFUmlTpBKh0JWwzjWyN1vE4PV8L9K1iWvaSPrBumBKcMp5xYTK1DQbLg4USeawS7CtMtuennS5P5JjrlqavSXmawZX0+SM866clxur9rttXEhjL7rExhFK/yVXW5umHWNOK1jXSum+6b2NOhvcbsfZ0+j9K8SasgP2u6nA8pnhDk4sAjyKfEn7lsznaus5TPbDtltnPy+vHtg+gKor8FlssmCCBrTFiMeOKpdBqBVtysfvapSO6E0WVHn+rLfQ2+tUzWF9Ani97qRffjJXdVzv0k735a9ObqeHdXHB9HX3vJd2F6C9vvUHrdj0+O+Hzb31x3djSc3U334pA8CXSbp1OZUBULHQllOHCiooGI86H5biiO1vGBMtpb8I4Uof4S+liUApZhwnAqiKXE+tSOqX0+kVeaweHiZFduOPeiv7fqnBvTGyT+hiTfkPQ6tpeRveDbYwOzsyE2lOnaEvmoiD+q8I9renUj/qQer6nGG5vx3kF6yrPXMCxaFg0UO7Qj29fxSKqp4B5nASeIUwS7l5l0MhC3ZoRK4MfOeGKvA/kW6vMKirPR9P1iCbseWZoYDC3AiYuKmKg00DAlGRjb0Lag7E84ujGV57rsSJPsquDNJfR5wV+dAxQ/XnJW5ZxPCu7akru1iQ8O1Dk3uR6k97C9j9O7QXLTNWd7eHdtvL063NecHu16Nyb0BdIdlkyYQUyRmcMLFNnLnlCLSN4Y0kN1tK/s78q7h4reNx2W8+IOShyUkDDhOJXEcmIRgdDMT+WtDjpbmRzK9XY8ax4sDs530beuuo2iuyS9Q+1NYr/B9szY7GnyjSW8phD+LR9+UGIfAZbJqkq0qqA/L5udrfjY0F7xwFxzUUElaA8WP8nUxJ4GA+OM3qepMlSC1RBIKa4YXIDFxXINwqyq5OXx94zLFSx5JlvOuCEqwQamlCNt2yot8fQ5Tb939YUePVpD+6povozmSmh90V9T9D4puKvyzuq882lhuq40nW/h42N9KbC3QyjxeYLTn/z4h6m60AkOlPt7y71jrclXQ3THYXmkezQeE+1hjihs71LFppJ3hHgRsmsjfKAe7C5783lnf9G93qGLXtRGyTSMSRhznCgCoYmJ9UladeSDHrpam5zJdw88q53Idy833e9H7L6nHpHkEbMPGAgsXJjqAy02VwrX5NFfl4K/FenHNbO6ma4qm4+WxGd5ua0aHWqn50fp7cA+YbYgswyGsZMo9aI0jBIWJzwCnQSuUiYiwhQBQxqWya5TBqLd/9h+RyyXWVhZp4GgAFg7KhrrtC3TskgXaPIgiG46+us+P9oI91SCXTU832DbGmxzg25s4PXV4LOS81lhsr443lQc72+jrxx1E9sH1C5yu0STBRQ9cdR33eBceXi6PLjU9r4b08eeLIcRYAn6MBLqGhW48k0N62j+nLKrU7yvhXbW/O0ld2/Zv9pjC17UDJNJGGMcswxLSVJKEoSTticXRvhe2/mmOjifa14td79vTR8NwxeeyNMkL+yCsE+EveHqE202Xw4/L6C/LwUfFukndfNpK11TMauXxGdLYq6od1Wio634q0FyfZre8ewjBEvYGrM9mU4ViIvQKGXZNI0JA0r0y/r5/wzI37ePhfWlyHS3pHSEHEnVVaap47yIH5P4ThBdncizPXa4Ee4s+5uL3rY6me+onT0931fzfbmlFW6sOBuLo83F4bbi4FjHv+qpH7l9LmxZ2gpLymGUd+WDbnCjMrpWGd3poseOyvmmDqpk8ZhFDteBlNhwktBpzNoRf87ZFRfv7aL5ZrC16u2uBZcH/LkfNcJkjOOQxIwkkqSSJAzHGEcjX9SmZGHgP2yN7lTa9+u9p+1xbuhXfNZmcUvZirJ5Ze94+ssO3VcJNxXRx0vBqhJd2zDr2iC29+mS+GxRfLEkN+fUzrI5UI+Pt9OveunVob07tc8CWyG2K6CvCiPQohFRyqQG8wicOVu8JRxfBujvGJdZ3gc0Rz0lx0p0pKhysUTFT4jfdOjFITndRgdr3u6yu73obC25u1r0wMgcnMYHptH+qZnv4M2V6VxhuL0w2FXsn+n6NwP1VMIQ29S2LdM2i5uhzo3JTy33Qct7PqJFP6qjuIPjIY2nHFjhgdFhLMNUjFLZTOQTKS76bFcfb2+Hm+toZyO8OBRPUFwlyYAkAU0ITQRNJIk5NhQrJxA9j9WmuDj0FrqTfH9aGXnNKeqFYiLikQIPjJqyP/n6cpceqYXby+HaYvhZjX/RieYG6ZZOtK2ht1fV9rLaUdQ7S3p3We+v6qN1fbpprnTN3aF57pgqigcs9VSKTcqjlEqFKcEYUbpM/HlbB/v7xiXoVCoJWsBaDrVocLYYhg9c79uhc749Pl4bHigN5vP9HfnhfHG8q+oe6tNTXnQapSdRcsyP9/TIltJk81J/Z76/v9j/uuv/gNSSholD19ihSccKynTaSJbHtDSmDU/1AJJ4SKMJizwVh1ESJjFKI9+afhrV0uihMl8Hcn7At3bopgbZ0STnx+phmBRp2mWpy2AHkbNYUMOJYqEIQjFBYhDwns86Hu35dBSwacg9phHUF0D1S1fZZ77+pkdO19HeGt5UpXNtuXUY7XTtQS854cUnJ/GxXny4Hu+v6j0lsbvA9hfp4RI5VyHX6uSHNlsYq2YQjxgsgnmUgIggxRgHlIb/BMVZaP6ecQncFhloNdGyb0SZ4cee811/cL7RPlKs716s7liobX5e377U2VMaHW54pyfsEo0vcXue2TM4PdCnWwuTzQu9Pbn+0WL/as9/FKqKgdn8KBM9mlGKgXcZmiEyUxL7UMUYO8y4XCMd0zTF1gY2dWzasWnJwvLuHIq2DdVcV2xosm0tfm6i7+F0idkmTycClHcY0ATBJJWDP44IiPKoCXiMZBrKBITPhOGw2klplvAbS5v31fc9cr6JjjTJ9hbf0Ve7nfggtueEvRHZG8Je8uyXPXusofcVCfBLFr29C87RJefLnHuj5P/UZqVp1AsTVyQsiokUmIaY+P+JWE6N6keywskTz7nV711utc5U68dKtaOl5pFy+0xjeKnnfTOlt0N1Tya3pL1E7Ek/3dfhWwru1sXxwdL0y4Z7a0yeE1M3thfZSWLdOPWjBJk4kLEHfIvIo9oj0qPCo9xnHMj82nhRPE2Sfgq634+VvU7SI9N4Q1eva8pPq+yLGjvSU9ed+GFWLtiXqauyVanUjHIa4hDzgGqfxb5IfJkikWKR2XCKhEtLJWjmOdxWgujhWFzr0mMtvKWGtrTw9gHb48izOPpOpXeE/T5Mb02Ta311oQUVS2fLzpnC6Ovi+Hp5cqfmPB/guq+GFIq8WBQBdzhzz2LiDT7ta6mf3zXvw1bichqpQayqgjz1prf7neud5sVG7etG/WKrfaXTvz1xHyO6JExOx/k4fajstdAen6R7WmJzHm3L+cdr4bU+/dFVeRa3Tbb1kVgvTj0d+8qEOiYmISpCjHso9MMwwAjR0GfU5XysdD+Km4l9Ju0tDF4iu/vxpw2zqqo+LPI1RbarIc/1zS0nXiBJG3LxKY0Srg3lHIcIER5w40OVa+plyIVAWUrpSrYvzBJ+LZQsuOb2SJxso7nyZGNtOtfy5wfhWV9+L5KHMn1Ck2cofuSq+2N2p49uNqc3Kv2b1f7d+uBRe1yYoA4RYIKgNYuNiJSMJKg5z3J4M1YtcNjf3L98PTnwxl/fa64gw1IFWjmRHsW6Idkicn8c9++MujcH7ZuDzp3x4Edn+iJENSl7cdxOklZqn0t7I0iPDpLddTmX+YueabLbE/0URVWe9I0dZ14RXpR4KvK4xioSUSJMhBn3EUIhwgQczjxKJ5T3uK7LOKfsD9hedOzhQbqlHa+qRX8vqb/m2Yc5Oldmhxri4kD96Jkii7sy8aMEG/D7CSlGTPhgj2g9CRKkvrCIW8wsoZZSOGJqEbX9MC0FyX1Hn+2gzeXRhspoU32yveOec+g9Fr2QaUHEVR6ViSoiseTiZ0P3YWf4uDN81hsuDcd1Pxhy7mqFjKKR4pHMsJRCZ/nYFYb0H4wlUSrU2jN6EumuFlVOlrD/IvSeIudp6C4QP0/DmqB9IyexGcRACnnB0mtOfKhjdlX53FK4Mx9+1eY/utESTloiHWvwTvNN6qvE56B6RoQROpYqYlxiQmFVli2tPS7H3DRotICTe0F6ZWJP9O2udvpFPf6wYv5WlH/J0b8t4XV5vL0YHm+Qq33+wJV5rHvSOFndZwgFvMZTiZsB6Qlw/wtXgGQzOLOswhCntTB97JmvB3i+PtlSH2+uj+fbk/MO/ombgk4a4PMY91XUl6bLZDMkVTeoul7Vdeue2yN4qoRvJDIC7MxBIQ9qdCGx/kr7I7HkUNeksNa+0U5kRpHuGdU0shGJesQbMW/HopfIcSK9WAaxnJior9MFnFwdRQcaar5E5xbR7kJ4qSufBsDE6UtYh/kKJHqRiAPwYZOEaSGyb7IAGWQB/haaSuNBCVhawumPTnplkJ5qp3sbdnM1XVuJPijr/ymI/5cjf1lEHy/46164O/P+yRq61gVJ/hKFdfA0isM09WP4j456LSgptYxanh0psQTbCbFtYl+g6OqY7m27O5qTrY3hztbw4hQ95apmQGjeTxOUJjhNcBIHRrtSTDkbMTxkaKqoBz5zEmkWSoIERixELCSc/AdhCVrASiOA0ziRmcRmGJtBYnqJ7qdqkKpRqqaJ9GO4krHWHRk/R+bKUB6os91lvD0fHCiHN4ZyiUD5/xhyuSmSKeYJpjHGBoeaESNZrHgMlg/SsKzq2BNxjybVMHniJN8OorMtc6hu5qvRhopZU1EflMVfi/QvefzXpeDjRX/tgrc55+0r+6ca6PqAPPDEEtENFY9TO84ICVNlPZkGmdgEyQxXOez9pwzSQynGdkrBoDZH429ccaiHdrXcHY3xrsbwwsh/hHlFqJ7SbmSCOMJJTOIoNJDEgApAyRxFPSNQolC8giVfxhK/giUUKvyB4+VM15lmcIbagH5E9vV002SaxhNQG9WTRLoZln4kh0o1uX7iy8t9dqCG91bQrpJ/rIFuT2VFpj2duiYlGhQ7KI0pjlgYMaDSxookiqVKphJ8K8F0u8+TMkqeOvHtgTnflIcrfHdFbCmL9WW+psz+XiEflMK/FdEH+eDjnL8m56/PeVsL3p6Sd7KJrgzoXU++4FEjAXVLkGADLBMkYsxjxiJOoQkKSSJCkhCnDrcDbUsyuRWo40O2rxPsbEx21Ybn++4DDxcwazE+kcKDEdFgA0UmSIAgZWAkimQYK5xkOQ3NICgzLEMWEuBuQTebFe+9MbX5xbvvde6TbURnpqbg8RoRE+M4wWmK0sRPE6C/JtpZ7mCVb4AT3GDqicev9PDhanCo6h+semc76L4vmwY06oIoYTpmIoKt9zASQSSCWKJEhamiVkoroozhwW0Vp0+d+PueudSUJypsTwFvL5K5El1fpp9W8MfV8KMK+rAcfFQKVhfRp0W0rhB8kXM356Z7yv7xRnhpyO4ivWjAabGn7VSlnkxAVZtFjJmstNmIzKmcANk8cUU6imzVpD9gc2YiD/fCPQ1nb214oec8cMI8Ik1Cx4y7UgRahRr0XmB7S0I1NU40yRqOZahZCPqjOOTLzq8AJPDWf0V7T1jOXmZGKmAweoELJgaHVtCS8LRyjHKMdCPpwkipwliHsZko0+bmhS++7eNTdf90wz/dCq4M8GMk2+B2GQcmAgt4rjmGonIwZZkBia2glnIbSjsgaTlIn0zi2111scZOl/ChPNq95O8shturbHOdf9Fga5t0TYN8UidrauTzGttU53MVsinvzy1Od+SdvUXvRANdHvK7yLygcUOmI20dGKETDLayJivl0RmWUCmBSOSKZAISuOlPxFx05OkBPtpyjjZG1wfeUw9XMesx4QrpAytRg6yBEAFlAWeBzMRFtcCRIkZmEx+aGZ8yrrImGdSy/rFYZv8f7DX4DEtpQqF9Lh3Gp5yNBZlI6hjuARyaJBFJwPK8L+J8IO8M8PmGd7HtX+6h2xO6QGDFMolMYBSRkjLFQyUQYKlDq7CVBCYjiMK4VfPTJ6PkZttcqLLjueBglmHZteDsLqI9dbazLbZ0xBddsb4j1rX5+pbY0lE7u9F8Q2wpBpsWJpsXJlsWJrvz7ol6eKkv7numxJMBhCYsSLLQ1AxqsmBHllGQSEcUSkSmUdo26TOQjpYXx/hc1z3XGn8/9nOItqgYCRVkghpg7ipVyHhAqE+IR7HHSCBYqATJtAwYlMcJFUloOqsNgqLUXwHn+4jLV/7zrJR9pg4CprQ+h7qnKScTgScSu5r6EQf7qjhicRroZCKSeqifOfzOILw7Jvem7EkgylwOYj2NlG9EKDmZaTaERuBEYiuI5cyG1I7DtB2kC+Po+46+UOWni/jQondwyTuc94+W0LE6PdGVh3t6Z09v6qoNHfVFS25qy919c3ycHOsBR2tfKdiV87YvODsX3YPF4GQV3+jzJ56ukLhNkxGzLksCajCY1GrONIddRhVS6Uvtmqhv4qIwP2F912e3p+Htsf/Ux3XCB1w5mTgKUbOSfkW4CClDlILoESMhBxEKkJrRQoDnk1SR0itYZkSb3x3L2TdhFpEgtACGFppIAzIvmS6YL4UnmSupo7CjsauJb1hoJIsiYRKsUp+D/UoTmyJSRayLxFS5bis5isQ0Yq6hgcryzeDjrDmJObWUWSysQ9NWkOQm8b2uvFSlJwvoSN4/kHOPloIv6/RyV14e6Cvj6MtxfKAfbe6YTS29oam2ttTRUXTJT6+68aWh/rotTlTJvhyCerwFb9+id64SftdljyYq50WNMO3jdEpiRA1hBmpMuaKZOigSwldqonVH6bI0Ba5yVOQIrzMxEACkn2ndUAm+eULAE2cMO8iRi0xpQgqwr8hMgqQWatYUOP+A+c/LltWOv5VB+caDWVERECJ/JafyZUTOzC9nYj1YmgxI0HjzlfA19zR1DXZN6GnsgxeH4NpIlXCREgaJFU/aqQZ28hiyPPE4kpOITCPsZE9BgkK9JtWUxSwDMpB2QNOiE/3U09fr9FTB37843Z9z9ufd0zV8va/vu/aeZ38I7HU3PT5MtrTiuWa0qa53tMCq4A5NfyT2fmDvTtNLbX2sxPYtol3P3O2PJocWvC/L4Tct9mCo817aQOkQJz6NMYsyW0pQ3yKMhoIiyXwtnEiN42iUxKMkHsexE4HcFIIxErpWtuwAtOxcAIZAUnG1XJbHoURPKAVuBzNgll0PMziXEX1nLF/KBfx6LFfgnAUlxOUsKJFUgZRBhqWvqadDX6NAh0hhDFlHJYAPmjAG2c6Qp4FMfBm7KgJNJsOXsTfI1whJkkltKMoiAvWLyZQmbd8s9NmdGrpc8k7mpody02OwXsRX+uKeE70I7TNsnxB7G9kzk3RHN9naijY3zM62/moa32fpE2afEvskSG+PogstdarCj+bD/Qv+0SXvdN69VPbvdOjzial4US+MPBJhGNa0gGkJIxxjgUOJkSK+4TChi1TWtG8U0iqTLAAVHJ5ZxigwsoA2czEAAAE6YC1mxgZCgdDKjMD4moU7ROfvhuWM45zBmS1FsnoScKcFsR6QIIIVleKBJr4OA42QAmtzAnsCknPDWcxpwmi2fGQx5iYUKgA1I+Jr5OvA136gg1BiAqpsivAIs8Ql8RBF1Yl41PRv5IZfLw1PLg2P5SfnGuHlgbrjRi9wUhNQ5JWX9kdqz7t2Vz/d0Ym3Ns3utrngxA95uihtntsCtY/89NYoudIxX9XFiRI5kfOOL4zOLo6+qQUPB7wwVZ1Au8SETAvwThVcEioQkQFW4MMXgvEPhaUFOBmIUAmswAQUgASAlAKXzuUGEQgvkmEI0tpgQ/FGLL569w/Actn9KZOFoULBqCkkhgYzlxC4vAQuWwVYIiJRJncrOcz1I0FiaBR8ybIRhYEDugxD5WfNw8onIszkbwRIQ7LICc3AV5UhfVSb3ljoXFrsfZUbflmeXuuSO270FAO3qGds09iKto+4veiluwfJjm60taV3tdUFJ3rE01zG9qgrqPB6FNg7k/hGT11o0HNF9+SL/pkXvRtV96c+LUxlJ4DtTMwyVx5YyGMqA6J8rLL3phBRhChYV8yUJqgE6SmehZniSnNtVprmWYf6UiA9s1N7Fbw3bv9RWL7U3coUtiABNSPTc2CXgTpRQEVW2S5QJlQgOeAXgesjNYIqCXvmVGR6gVz4THhMuExAlTjnMIfPdBoEZcoP5dgXzRF+0ZjezXVuFfrflcc3m96PI/YcxSWWthXsXbdhLW8f8fSCF+/qm20dNdfkO9r8K8c8YOmiAjX2VgT8nRyzT1F8fyJv9cjVmnN+qff1Uud23Xk2YhVPDrBGXBPABiR7mEQZkD9jSUEeb5YWhzNeAimZUpl9V8T0rBkOUxwYM5fbm8bQ/xFYLheU/MxbB9GwTDkhEznkoeC+4OATKAAYkumyv8yNaUm5omDNrpmvmaeZq5mz0sBvSGfzWcmgDDwMmeOz7ggVm5NHhc7DyvBhY/qkh/KuaNCkp2CPzEmBj1qL7COefO2Z+Z7c0uYbGmRri5ydqh9YuqDBDqab2nZmfVEW8QISjybh963J1WLnar59rzVdmrJmICcUlliZTiXhHFERZBHphdrD2icKMTkrmpwpFS0XMcpM9EYzFUHiarlFEKZvYrksZjXTylmZ9cxA/WPi8mVx0PJcelkMTmTfV5rpvgWS+5JD3iOLsFlcGiikgKBkmWog0sw3zDPUfb15hgaaIkmJAL4a9QM6dnB76Jc7Trnvl8e46vIWOBAnI5VkGnVxP4rrJn7MoguO2tnhW5tkYw1tbaDTI/Y90s94VNZxJ046cdqN0qaKykQsefjpyH/QdR50nRcjVPF5L5Qum/U0DERxGSIiAKch5YXQzQaZjxPJkuAzzVfAcgakYqAw9gaWWWi+Fpf/iVjONAyzI9jtgbBfxqrP4MSZmF+wIulHQZeKmVkDDzDGFAs1RYb6EfUi6sXUjcmseRHxIxJoghTBwCLFJAypj6gT0JHHxkhMiJ5wM+Fg/AMCu8b4sR4YXVfmMVEXJ3xXi2yro00Vb1vVO9ULb7rscSiKXLd11DPxMEr6OmozUUO4imgZsQoS9VC0sRwRGYBcn4CiABYCljwIpR9KH0MLqMRZVTqoEq5cO2A5U4szb2AJhuUqW3LO4MwM21c0WEwmr/NqN/sHxeUsrf7yCIKbmRMmzIW4YsBxy6xxQgXajDMsZ5kUnWFJAUuGDA0i6sfUj4mfZC3OgIwIyrAMJSGcwAY0AdcdhbkhMqYmoVEa6hXtcq2CSA61bCj5BItLY7q3Ee6o+ltKzo6yc7oT3JzixwErUtmRBvSyoniqo6GQPUIHQg51PDLJSEYjplwGWMEy/FUsRYAhOgMiQyZIlm/jMNuBy5evBmWGJYTmSlPgm5i1bMh8DcuZ7sN/AJaviJDCJS33sTA3z/L+DAR1WSarCzdYFpcqU5YtVkIDAAAGyklEQVRVK3FJFMMwt2dg0xq90gwNNcUKhICIoJRTKLjIZB0l4ZrKiKmY6hhS+VIjBZv1QcRHWrSkeI759RE53Aj3VvydRXdf2b3QDX/0+BJWDQ6GuTN5d09HjlATJqZCuTrydOwpA+4+GXsbRhDAEjMWgsUD2KqFBCa0hMGkYDkRmv1+s4/V0NOuqHPOUOSZRGymXAY76Ry0V19t2dfi59TPyuvP/sv/clwe6H5lrmBlyvPm75WvZ9bZwrd1Jg08m7SD7N9yad/yyli+eoKC1clrDRgU4GADW3sZoSnTls9mjJk4ZibFJw0whoE8JkLDUETHmnUkXwzZdyNyooGOVPwDBe9o2b/Ro88CXWVxXyauTpcltVXmLSEUaNirCOsIK0OUphKUeTMss4QPiIPOREOX566Z/O0rl7+y4p9FJ3ynYbchyxq87LSyG7PnZKH8iuru6+dk//iVF3+3m+8ZS8hXrKgXrrzdWS8Ex0wCD8aCV9oM7+VzXv2SZnrBL581e+7yNa1ceKa8C0KZEubOihPNsKFTRXuC5RC9PQjPVP3jRe9wzjlZcG/1aB5FLZaMJRSgIZWAupmMsDCYgyI8VQaWEjDl1OCqPsMykyzmgoLoG7Rsxzi7mNc+4RUsl2dAmRDnyifwM2Y/P2XlGv7xnGyU/vnEd7/1/rF8ZXYtVzqhl/3D7I29VJiZ3X35159RX+5tltWoshhY1ihdvrTXPwoY1iB4NaWGuIoOBC0G5G4fnSu7p3LTYwvjM7np3S6phHGfgxFTqIDNjEVMeES5oRxkU0GkUWoBTUGS7ecfeIezb9PL489/nN16BcuVJPmbp/wv999AFD63f/3nfWO54ni8guirn8i//u7e9RmzZGI23dLEl2TEadnH97v+18Xp2cXxqWeDrxbHDzqkGcZjbn2RYpkSnlAgDwB/gDOYf0iepcKzZBvk2VZ+ZumalXv/5Pc/YvlPTnzrw/+xWL7ShS53U299/+/xQcASkhSSCIVDQRzOGgF50kc3yu6VgnNxaXK96D4bsB4BkgcSKRUg38EzRo+gZiY+/QaWMzhf5t1+4e3+e1iCTuVKV/PrgvLX73n9woX93n9enmEpQRS4vlKf8W7AlgbhnZp/u+J/V/Lv1lBhLCYsQQIiEqqCWCxpJGmkqIHGtOLZnsZKXL5E8XeIy/fygb33Pva9vKt/8UWy2TLo7GZrG85g13Mc8sqYPm7jRy38sEWedVnD1R5PiUgZT8QMRQLcG02ztozl8obGG0C+2uW+/c3923H59pf9Vx79E2HJqKZYg20E5Rx2NLquLAxFcSSLY1V19ADFCISJUw4RaRSBpgFLrZnWTKk3dzNeA/QXPtX/YvkLH9A7/nkWl8CvAk60ATKkYsw4KOq4cddP+mE6piDlQ7jlLIF+lWhFtMYgBaGB8ZflvmEh8hp+r975hffyXyx/4QN6tz/P7KU0o8B7xDiC6amSzCAcj1EyCVOHWI/ZkGW96ywoaYbiDEiqgNORAfm/YPlL3ewrM74ZdeDd3vx7POvP0MdmxhrcAJGExpiArjmVGgjKMSIpohZlQFKWwHyHwTQHYnHWIBsOjBnIWP3zoHw1QN96O0ss/LyMeY8IvftL/RmwVDNjDcpjQhNME5CplxHVisWcpywbI2k2d82cUsAmBUbH5TYj1sDi6a0gveOD7/6J/3Zn/smwZIAl4QkBqSgNC0ewRoF1JNwwkF+cseFWuFFZNhGSOpkTwTsC95bTfjuE3v2V/1xY0ozcR2DlkUBoKg32U2BClWWJl0NwthifZQ5fMosBzbdg9K4Pvfsn/tud+WfAcmZEBf5TFPJyWVzyhIIAvF4xG5tlVbIAhMwq7IjLzPVl5Qj8439jxPztEHr3V/6TYClhyMzsxCiLofGYMqjuyayKgJabsatmKFLJiYKGX2lQFwCbir9yAvTun/hvd+afAcsZE1BxcNY0WbIcliWwMqEmK2BQHJy1ZpZpNOM6zPa+kWYvG4aaEdiw+nU97W+H0Lu/8p8QS8gVZBFpXmIJfA7AEhyCFcMzWsorQCLN/ovlu39pfsszsx0G2MdmHDyVfm4U5B04US+xfB3IwLDALIfmf7H8LRH6V157NrV5E0u+jKUELMEK7ue4VD/3rkA0go4X+tj/jpf/yqf+m52bwfkaFSqjiGVUo8zDhYvlYgEiOZGvTXzIst3drxwsfym995td8+sv/KcYL1cuaRadK8cZ42R5BisyQ+aXq8llPzspyIxkP6thfNfF5FvOW3kLf+TvPxWWr+7Oz8IUOFbLpKMZYWflzuu15Mv0mrdg9K4P/ZEYrvzv/w8Z5JXYzu4uUQAAAABJRU5ErkJggg==;" vertex="1" parent="1">
          <mxGeometry x="353.87" y="603.6800000000001" width="20" height="18.82" as="geometry" />
        </mxCell>
        <mxCell id="UdDubUNsqIhO31zFjMTl-55" value="" style="shape=image;verticalLabelPosition=bottom;labelBackgroundColor=default;verticalAlign=top;aspect=fixed;imageAspect=0;image=data:image/png,iVBORw0KGgoAAAANSUhEUgAAAJkAAACQCAIAAACUMV4lAAAgAElEQVR4Aey9hZccx7LgvX/zt7sPrtmWbNmymJmZLLYkS7IYB5qZqbq4kqky92T1zHgE19fvWb7X+63nxGlV14wa6lcRGRkZEfk/MCGYEJTJ7Jh8yJ+V1569w68//s73p5QwSvhvF0b4ilDMKWYUvS0Es5lQQim1D/ZN2OyZPTP7+f3XjGLy94W++8FWzhC09An/B8lYzq4i/v2f6O1X+IcsV975d4IkZOky/xdYvkE9Y7lC7t2DFXr2fZYRrvz79vf+fc/fgfo2yxV+qz+nZflH/vwWlh/q/f/LevkGS8JXX5d3j98DcIUkpR/qOyy9zts6+g7LZWux+nP+xfIXPV59Xd49/ovlX3r539LYP6te/grO3z9Grr5Sf6SNfdfbWWVgrU/0oX/eHDLfsLHvHSwJZn+0jX3LtXrL0/mwztbvZfnW8Pnm08x5fZPf6mcfGuWbr4fpuzb/3TP/BJZvfqw/8NkfzJKy1fDeOv4Dv5Z96b9Y/lfmmm9q4S8O0S/n/2L5B9+wq1/+D9VLTv9iufpi/8HH/1KWH977WX21KPkNQ+Zf4+X7zGlmnAnhvwjlhLJZxOfvPK6+9H/E8Qznrz3+xfL9LC1FyvEbwjCzIdv3Cvlj9fI33Rx/OpaY4BVZDhX/+jdZmdhQ6+8RtiRWk1bJaiV78/gX72bZV5qp45sgOWa/xhL/xfItSpYiXSV2Cef98YRsKr30t9nfLP0dwsTGTCjFlGXyhm5ZVSMzYTjTvCUrin9ZYHmfRmYv8hfLt2j9ytMZSETRimC6ska2onz2BZZjIphilIn9LSYYYQwxtv9naeWKQTYTjhhHlCPCVskyZrKyqmXt7TumdfZn7B/p5b9eMf8sNnYFJKQwEwApQBRiCvEbq6tLusgwZhhlAi1OgjBBECOAIaAIMgIYjggKMAwxjgiJCAkRDgAKIY4xBYRDyhEVmAqrqTh7vZnK2vPvCkN0hvN9j9YGLN9gK3famweZ/Z+NArPHX7mrZ79asUnvt0zv/v8/BcvVIAEDmSSQJZAmiIJVOGdaaBFylAmGDAOGASUQEwAxSDBIKEw4jhjycDIB4RQmHoYeRk4CxmE8jUEASUI4oALNhAiIOcJLWgspg5SBNwXSjOUbrtCyWi+dXK3xbx9jYu+VVVG3f4hzxu/9ZuldirMzfxaWmV2FkMEZSMBiwOIMJ5jhnOU+zIzqMkvIf2EJLEsCEgJiCi1IAkYgbAduJ/R7cdSP434Y9fxwHCYewDHhCRWQSUgFJBxgBjGDJJM3Kc6gZizfgvfGU0TeMuBv4PxvsVwBiWYOwd9DuHL+z8YSAJbMQGaPCWQzYzvTTkjIL6o5M7AMQ5oJIRARCAiMKAwomsCkFfiFySQTpzRx61O/40WjCHiAzFgCJgETCWEJpgmhgLxHI/9iuXKv/KYD67ZYlwdCa2CtRi5LAhhYjXO1di47Pkt0yWzIpCgiyMOwn8Slqfu8N3jW6T9t9190hoWR2/KiYQRdQCLMYyoAkwkTMaURxjEhFuf7lBJkVhf9moHlf+nlEmk7XhLLElEAaQJpDK2BtTZ2NnxanAzCJRd3ZQKa/Xc7stgpiBU7v6QxJi4knRAsjPx7zfFP9eHtav9ebTjX8xouGIbYBXTGMuEi4TyiNCQoIiShv4Pl207yh7WxMzP7ljf09tM/hY3NxgOEM/8FE4BpgmmMLdEllsCOoygT6+dkQiGliNhpIsacIEGxYMRKgribsKaHn/eja1Xncml8MT+4Whw+awf1KR6EzE1YbPWSx5zHnEWMhNYy45jShLG3ZEVTrd/L/r784SxXD5/vP/4TsczsJyQEZNYuJjRG1I6XgMGEw4SjhOOEkZjRmLGYWecFWM9FQqwQVgQrhhUnKoFqGsuaSx91wYWyfybvnFwYnc+NH7aiqsMGoXATESERURFxEQoecOJTFDASZa/8FsuELfm08FdAvmfy+sH18v38ZoPO7PHPypJYltjaW8sSMJQwHGcgI8YjJkImQ6YCpkKaRjSNSQqJJkRTksYwdZK06oqHPXK+mpwuhcdz7tmC96ANKlPRD9U0USFSAVWeUK6UjhATzlzOAs4jzuN3VZMxwPg/neVb05L/C1lmFjShJCbEssxG0BlLq5ER5yGXAVc+1y7XU64dblxmfGYiaiAxmJgQmkliql76YCDONujJCjxWjM6UovsdUnbTXqidRAdYu0xPpB4pPZRpX6ixkK4QgRAR52+pJuAc8H8yy5kn8V/D+Qfp5UqA4zf5sbPxcmZjV7MkJMFZ9AdSDCiNKAuYmBI5hKKTiFrEiwHL+6wcykai+9C4yMTEeMiMoSkH6f0BP1UjxyrwSDE+XU7u92jJSzuxGSPjUjNgpsVNhaaLCXvlo3wAamHSjZIxAD7KXCHGoBBQiBWWMNPO9z4i+oZRXRUptOd/2/zyvRftbQcnu1ZvnVxS2Q/O8s0Ftt+6FLSSq7c8XmY21g6cBGACkWXJQsI9IgdA1Hw6P4aPe8ntZnSjEd/v0WeTtOCbLjAuMRNihtiUIvXTgB6rgMOl5FAxOlVJ7vVpKdBtaIbUjIVpMLNIzJNI3BolF+vOreb4SXu42B81HHcSRQFCgHOsFJJyCSfjs5DQ33t8i9/qp7+B5a9ct7fIvfepxfmhWb69/P0bI87vsLRz95iShFpXCGFCIGEhFlOsOpFYHKMH7fBq2Tux4Byem54tgWst+Wisi6HuY90jpkdNPla3BuRQKT5YjA8Wo5NVcHfICpFuYtPlpqdMnppH0Fxz6Imat/NV+8R881qu/qjSzHcHfdf1AACcU62xUsss3w7srbi4dgL6RtT+bR39xyz/m9ftDVP852H5Ns4MZGJjrRgRG19nMZEeSftAFT32bIBuNuLTxeDQgn+sEJ8qo2st8mjIFj1RiFQJ6pdRen3ED9XxgSraV4ZHa+jmiM/FOg9NAZocNI8ifd1Nz/TpoWqwc65/Mte7Weo8bfRKg/HA9zyQJIyRNF2ll++y5IAuyV8s3xpNf8E5m0MyDLgNnSNqowksITJg6QjraqReT8VPPXKuCg7lowO5YN+Cf6IYXWnA+33yeCpexumjSF+eqMMdub/J9lTJoTq5MhJPY/08Nk8C88A118bpqb462KJ7y9GOxfGp0uh2ffSyM66MnVHg+TBJGP0FJOdgeXKyrI42Or8sHP7OeOz/j/RyBaodDChBlECGIcdAIMARZDbUQyEVEVMOTdsgLYTq0ZhdbeMTleRg3t/5erJ/YXqyFFxqgOtD+pOf3vTN2Yne3093t+WOOt/dYGeG8nao7/j65kRfGaSnu/JgS+ytk32VeF/Ju1B3f+66iyO34XrjyPdhElOy4vhYkG+wXA1yNs39tTDe/1M2dpnlch0Fw5hjJBCUCAgEOUIUY0Qp4MJnckhkE6o5n98fkcstcKLk7X493D03OpCbHikHJzvo3ESdmZpDY7Ozr7e21ca63FIXB/vq3NScG6enevJYkx9s0L01sq+GjjTAyWZ0sxc9n4RlP+xEoQNCHyURRQlfFQn6JVQ7s6sCELkikIgsJPv+1ZL/F1namCpidqnQXhgsIFIQZDitsSUUI05jwV0uhkxVgXjls7tDdK7q7X3d2/Gqt31+uC3n7Kon+/py78jsGJrNA/N9R69rpN/W1baO3j80+7pqV51tL+EdZbSzDPfXwKk2vDxADxyYC2ELgAFMXBwFJAkJjG1gj8SU2vDeEstljbQg1YpAItHfx/l/I8uZY/3moqsdCd4Um1GfyXKqlf2qszV9LDCWGAuSVbYyu0AMOQIMJwwnhELEUSKIL5jDRZuIIhDPPXqzG54sjQ/kh7vyo62F8dZauK2Nt3T5hq78tpN+3Uy/qqmvquq7htzSklvrfEsZbymCXWV4oAZPttDVIbnvstcRrUEyIHhCoEfigICIohnIiLKI8kxERGUmKqbpL0JUYtHapdBlJ4gislp+yVyaTSmWDVH272xgeXux+o0/+UdP7Et8OD/2rdF7OeUmK8WmFFlZhmphZ2kZWRoVFYhISFQmKcAptKKQhUqJXZtMrHrgyIaBOAAChZJ4kg25aFFVgOKhA6603ZO1yb7KeEtptLHirq9F6+pwbYN+2ZCf1+WnVflpWX5R5mvLbF0Rry+ATflobwUcb6LLfXrf5XOJqmDZ49wR1OUoYCCkS9H2GciQioDKgKmAppnogFkJmc6CiCqm0saHM5bQ5inNJEtvWVmcI9YjR0uJhkt0sP3JTmVrd8u5B79xLrca8QdjOeO0rJGI2fQpaDOomBXOsJWsJwAndiicicBEImotVYzSAKYeUE4iPahCbO/6xC70I4QThCOMQ0QjxGMgk1jCQOGpYiOlWlzNx+T+JLrc9462nR310aaqs67ifVWJPq+iT2v846r4qCw+KolPCvSzPF6bh+vz8bZCdKQGLnXw3TF7Fcoa0V2uJkr4KQskDjmIGIqsdbUaGVLpU+XSdErTCUnHSI2QGpPUoXpKtUtTn6YhneHkdkE7y2qBGEOCIIGQLOUuIQaXhGbpgiTjiLHNObOQs7ylJe38b7Akv18v39A2WxqIGIFL61LMBqS5wEJSKYXiTFIiCBIYZm4NUogoSNMQKieSPY/XJzjfB/UpGQA5ZanHREhJREBM4oQEgIVQREDGkYx9kbgSO4oPpKxRPg/Iz37yw8Q/0pvsbjsbG843Nf+rGvisyj6psI9L/OMi+7xA1hTQ90W4owIO1cDFDro7Ii89Vop5F4sR466gFqRAyyxpTCzIIAM5JrpPdDMRlYCUfFyNWBPILlJDkk5Y6tpAv4yozVKw6SoYAZQAFCcoilGQkAjyGMoECmCF27Q0hCFCEEGI7aF17WwO2i+WduXC/qOD5eDa72b5jmm1RhFQnBAcEwaYRDKlKhWp1lqKlBFFoMRAwURBaBc3ANXTRHU9URrgF43obsF50Y2qMe8LPeLSYdSlyKdxQP2YB0CGiQxDEXjc92TipWSqxSCVbZUuUHYvii840yODyfb2+PvG9Ota9HmVfFqmHxfpJwX6VQGvK8JtFXiogc530E8j8tqllYh1AXUw9SgOOIoEjASwwnFMbXQiJMqn2iGmh00DmXxAn4/ix4PwlQNzAaskokXUgOsJTz2uQiYiyhKCE5QkMEyAFwE3BE6EvUQEMI1gGoM0BsKmpUGUIAgQAAjA97FcNnK/0P17Z5YywX43S0KXEhJxtuoPCUqWxDorgAkkJFGKKSVTKZRgyuJEKYIpRBpgGw0fRbI+ofMd8KAaXM1N7rej+ZDVuG5zNeB8zPCUJT4LIh4k0kokvIC7gYyCFHqaTrQYaFUR/DmGt+PwgusfHro7uv6GZrKmhr8o48+K+IsC/q5MttXI4Ra50Ke3J+yFzyux6EE+QSwgJKQo4iDmSSyAlRWWNPWoHhHTxKYIzbMpvtPxbzSde73g6QQsBLSGZI/r8TLLmFFAMSAA4AjgIMZehN2Y+YkMEx0laZSoKBFxQmOAYgATmLFE79HLv0fu3fMfiGU2IWQIU4iynEaAQWwFJgTZTEfGkOBYsGzRnzMpRSqFZkxjrCE2CTYhNj2fFwfoeSu+XfEv5J2b7fixzxeILlPV5mLA6YQDn0chDxMRAOHH3I3YNBJBqJIgRdOUDlPeVCwvyDOK7gB40U+OjMGOLvy2jteW0ZcFuLaAttXo4Y64OJI/ueqFjfOpHkmnVIaUA5tPixIGEp4kPIk5sH4zZYn9rfKYHlBTQeZVYu6O4MWac6Y4uFJ3fur6z6ewBHjGUnl2SZUn1k/AdlzkCeIx5FEirC2J0yjScZRGkYwiHkUkimGcwARCgCD817PM3GubqAHt0hS2VgOgOEZJggEgNj/Hfi1O0Cz3kTIilEy1NkIaki03xtgESLc9ttgDDxvBtYp3qji91I5vu/wx1PMkrXHVFWwskC/ikEcJDwDzAHMBmybcj2UUKuAqNJakq2g9ZcWUP2P8NmTnfXpggDfW0Xdl+HU+WV+A+5vswkj/5JmXiakQ02XGFSYSqV0P4QQxtJw5liSWJQKMJlSETLlcd6nJ2xCuudoHR4ujA/Od08XB1cbk4SgqxMyyZMpjIrLhIWIzdwXCEiIFYAqATmKdRDoJ0jhQUSCigEUhiUIYxzABEEKIkHV/3hov39W/v3fmd+vlbJ6ECJ2llQJilzZsciJiCbL5HTNJEEmsJ2eFUC5UqrRhUmOWAqpiogKsWj6e70f3m94Ptenh0uRkK7w4wbci8QzJMlcdKSaShhLFPAY0gNRD1MPUg1ZN41BAl6MRQ31OO4o3tFrk8gmWNwJ+YkC21+DmUrIhH20rxCfb9LaTPgttbL1NzZBpl6cBlxFjiR3iUZbAMMu0tqvf0KZy8ZDJKdctal4Dczs0Z7tgb360c657rDC8XJ8+HMbFmA+4nlqlZAnDkCHEAODWUIcCBBJ4yoorgSuhK4DHgc9AQGFEYGwT7bFNuccU2Yz8v0fr18//PpbLIAlcykPkgHHARCZ2phXZJSoaYOwj5EMUIhQjjBi346bWVKWIz/IZRUB4KwBzQ/+ntnOuPtlbGR9oeceGyQWP/gxEgadtmU6kiCRLGIA4wNgjxGc0JCyGHEQcTgkcIjigZCjFQOua0ItU/xzJCwOytwp2FaPtuWBfMbzcJU/9tJCYJrJLmBOaulR5VPgky8OjKMlwLif82boUSGjIhCN0nZqnibnim6NtsHVxvOlV71B+dKnqPhwk5ZiPufaYSCiBNpUwwSSKaeyz2OHJmIOhACMBxxxNOHY4dhh2GZmlF1mDnGXEzxY7Z57HKlf21xGu/PZ3s5wtZmc3r02HSZhIuIwzCShzIBpEcS8IO37QDYJhFDsA+YQBqZDWQKlIiJBb8ZloxXBuEvzUm55uTnZURrua03296MQE3Y75ItctqSdKxUoAhhAKCfIZDgWNCU0AgwGFYwS6SdIBqEtYl6saSwvMPInV5SHdXwF7i9HufHCoFF7vkVdBWkpMC+oBTgdYDbEYITaGeAJtkUJE7aKMLU8hKBMMKQm4cKSuUvMgNmddvb+NNubdDfPjQyX3h2b0aIwqiZhw7XMJbB2S9XoSHHk4GuKog6MmimswbsCkBWEXoj7CQ0wcSj3GIsETwSHniC/VLb0T6luh9esHH5RlQi3L2KZUcZ/xEYRN1yv0h4vdwVynP98bliZeIwQ9SCdceamZytThciqkJ5UnVQuRBT+5O/JPtadbqqOtdWdH2z84jG+EdJ6lTanHKo2UskMRiikMOY4lBSQzU1MM+klcD6JKkJRDXIxZHskc009A+sOI7a+ivaVkTyE6XI6v9+iLIM3FuhyrRiIbCW/EtBnjVgQ7YTwGMCDE8iAEYoSwxZmx5BOZlqj5KdLHJ3pPh24sx5uL4dEGuD4gTz1RQelYGE+kiZQJ5yHBHgR9kNTjqBCGC77/aurNu37eDcte3AhhJ8ZDRKeUR1IkUkApkMxSNd+TSvLrCFd++6FZxoyHTHiMOZS2o2ihP3hYrt4rVm7nKndLjaed0cI0LsWkQWVXmZ5Me1wNZeqk2tW6xXguQfen0ameu7E62lCbbGxMd/WCyz5+zdK6NCOlQ5UCRrEd1GJBgGIYU1vGNQJJK4yK02DBCV9NkhcT9DpmCyx9jNIfxnxfFe8tw32l5GgVXOuzZ4GeC9PFUOYDng9IzkcFH5S8uOyGvRh6mNkxglDrVyKYscS+4GOVFqj5MdQHR+nODt9YJ1vr5ERf3HL1i9hUiRlJ4ykTpyYSyiV8CHAtAgt+9NzxHw6nd7vjB93Js547NwgKk7juo15CHcpDpeJUQi2QElY1/4UslxeObc4xoCyxqY7co2xCaTOO54fjn2vNW6XmlVzjcr59vTa61Qnuj8Bjn75M5AJUBeuj6o7SQ2MaUuUJexihM6N4S8Pb1PA2N/3d3ejSFD+DskzTHkt9kcaUI1toCxnFghNA8RTDThLnp+6T7vBee3yrPb3RCe+4+GekbgF9aiR31PiOCt1RJvtq9NxA3Pb1XU/+NMZ3BvGdfnCn5/3c956PwoVp0oywSwTgEmC2MuUDlLpcDISeR+nlqdjRppsa+Nsq2ljHx4fiVqhfIFPhpq/MUJmxMj2qqjFbmKLHw+h2x73aGF+pDS9V+jdro/ut6fNesDiOax7qxnRCeKhknArLMuVIcFsTOCvYxjbM+T5ZUcR3DrKE/d8VK1jGSUC2JBQx5lI2prSRJK8n03ut3rVK92y+c2KxdyI/OlFyz9TDi114bUx/8sVjkM5RXZambUwt1UWVPsHivIu3t+MtrXhLM97dSS6M8cOA5YBsY+WyNLKZzbYBhO3OImy++QijWhQ9G46uV5sXSq1T5f6x6uTsMLkcy/ORPjjUm+vppqraVJXb6/LIIL3gmfMTdroTHa9OTpSHJ0v9i7XRna7/woHViDpEJTxNME8SnABs8+cpd6jqMP0iVucG5Ptysq6cfFUC6+vo6JjfBvoFNSVp2tq0UtNUpoDVM5fe7oAfat7J/OjwfPfIfPfoXOd8fvBj1XncDuaHSXWKuhGdEBZIEaccao5TjkVWNWZZCvp+eX9fhaxAfwnt72I5a5Bm/T2rmjad3GNszFgTogUvfDR0brYm5yrjo/nxgdxkz4Kzr+AfrETHWvD8kF735c+JeknSgkjzSue0eczTCwHf0cNb23BLC+xqgbMDdNchr0NWB3JiQ9jSFk0ygTnHkvuMDjAqR9HD/vBisXYsV9u32NqR7+9vBUen7LCb7ujr9Q2zvma+q+mNDb2rp4846cE+3l3ztuf7u3LdvQudE6XBjU7wzCGVSExomvA0RjyOcZwQO9UnckxUE+snvjjZQd/kw7XF+MsS/K5BjjjiR6QfMzMvTEnqRaZfk/RRKG4O8NlqfDTn7n012PWiu+9V79Dr/rn8+Mea97gTLYxAzSU9q5cskCxWDGqGUzZjSajIWEpK3hLxblOF1Wdmru8HYGm1c5mlz7nDeY+yOsL5GDx1wa1hcrEdHa/4exenu3Pu7kKwpxQdqicnO+jikNyc0p9D/hjJZ0LfY/pMILf12eYO3tSE25vJ8S64PgRPXFyMeR+rKVWRrbKTkNu0VY+xASaVGDwZTa/WOyeLrT2LrU3z7S1lZ1s72dKlG9rym4b5pm6+rpl1db2xpbZ3xfYm3Fr2tuRHuwujg8XR2bp7ZwBe+aIGlEN1zHWMRBTTKGExkhFOBzCtxumDqTjexusK8TcV+E2dbuyKw1N1BZjbUN8H+mGS/uSLGw671EOna/HhfHBw0T2w4BxacE4VvYvV6Mdm8qiH5kak5NJWyAaAOYT6gkaKgpSilCLBsO2U8S9lOVtAW2EZcOEKOZFqqFRPpUWaPk/S21N+tpXsz7k7F6Zb593N8+62RX9nIThQiU40wcU+uuHzezT9keoTgdo6FJs6dEMTbq4nh1rRxU54b2zDnm2kRkQFLI25ykS6VAwwqyX4hRPc6oxPV7u7Fpvfvqp/s9BfU/DWlMGaGlvTNF81zJd181VNr62Kb6rk23KyvuBtyk92l6bHqt4PnfjnCV2MdRPpKTMx0xGSYcyiRERQhUh347QQqHtjfqyFvy2C7+rk+47cOtKHXH0+NpdC/YOXXprI0116tA4PFKO9i/7O19N9C97hXHCqHF9pkbsD+XSs5qeq7KlmJPtAjDGfUupxHEqcKAxVVtr052EJMxsbcu5x4Qg5UWqodJPrAjYvYnXPIVc68dlGdKQc7iv4e/L+rpy/Ox/sL0WHq8mpAb0YqnOxPuCmm0fq+y77tgHXV6Pddf9Ew73Rj174pI7TPk1dloY8DZmKqHSJGGHRBiznwcej4FrbOVrpb8u11+cGaxYnn+fDz8vk87r5rGY+q5jPyumXJb62gL4rJFuK4e6Sf7we/dABd0fEKiU0fWw8amKqI6TCWQgVph7UzUDNT8TtLj1WR98XwIY63dRV20Zmr5MeddUxRx4b8iNdcqAO9hSD3Tlv76K7b2F6vBhcrMY32/jhkM95uhjoeph2YjUAYoLYlFCPYd8uyyDLUhLEbeMT28Tm/YPlP7Kxtn0G/b02dqaXmFhvNqEszIbMKecTLkZc9XjaYrpGdAHK+YQ/dMn1PjzbSI6Vw/15b/eiv2Mh2LYY7a7hgwO1f2J2jPWGsV7XY2saYE3F31yZ7quML3b9hz4u07TNUru0xJRPZUCEh+UUqSGQjZDlPPJwFF/uuIdro+2l0TeLw88X3c+K6JOq+bhiPiqZjwvp5zm2dgFtyoO9JXCiBq92yYMxm/NlNU4H2DjEhFQnRMdIRYkMgQqArTypTuXzHr3RQMcqcHMh2VyjW7pq61DvGKpdQ76rR3a14c56vL3sb8tNdi5ODuSd40X3cj2610Uvx6zoyXasB0CPoZoi6WHmExzYsjIY2vU1FEsMBIa2QTi1rb1sj6F33Z9fcXw4tS2N7BTzA7OMKPMpde3MhI+oGDM15ulY6lFqhsZUiHrus9sDfKmZHC8F+3L+1rlg/ctwQx5tqslNbf1933w3Mmu7/PN68lnZ+7Y02VYcnGy7d32UZ7rB9YCnDlMukR4SPpI+TF2oh0naitWiz+5PwKW+f7DufJ8bfLXofFaAH1X030rmP/Lmb4vpFwts3RzckUPHq+Rqmz0cy1ygG8AMkNXIkOqY6ATrGKURVAFIPaBHsS6M+YMGvlwGR4tgWz7ZWiNbO3JLP93U5RvaeEMTbKhFGyv+pqKzeXG0Oz86Vp5eagT3emDeofVADpLUxzoiaZZEwhObwQ1jBmJuV0ljAWNhaxFXsfyl09Bq7+ZXj2csP0BegdVMTCjK0tSWWdJphtNhfMrFVMipUo7WHZGWkHwZ8vtTen2IznTQwRraVsQbCnRdga8pya/q6Zdt/XlTfFpDn5WjdRVvS8U51g1uBWSO6xLXbaGHPB0T6UDhQRmiNETaxXqM0waUczG976OLw2h/w91UCb6p4FurWJIAACAASURBVM8q6ael9ON8+tmiWrfIti7ioxVytcMfT2QuSDtIT4jxiAmJiYi94hFOQ5z6KHWRnkDdjfXciN+qwbPF5EAh2ZxPNlXwxib7vsXW1dFa+wmjDbV4az3Z1YgPNKJTnfjqEPw8RXMBrSdyiJSLVIwVIBIxgThDnNj+GtwursV2fQ0kHM4ygLN0KNs37FexvVdBPyxLm5llE0JmLD2rmtQO74z6jAacBUr4Op2kaV+lDZEukvQpVD8G6uxI7WupjSX++Tz922v6t7z8qKI/qoiPK+SzCvymGm2u+Uf6yfWQPeNmUZiaMB2u+0SOAHeh9TMBMTEzkTBjrps8XaTyXkDODZP9bbC5QddU1Zcl9XlOfbUoN+f5gQK91GQPJ7IY6x7WoTBQGsAz02pB2kUbn6Qu0RNs+sg0Ev10yC6XwbFcvDsXb8wl3xfht1X8dRV9UYg+WZh+VQi+ryU72uRQn50Zi+u+fARknqoWTydCR0InVEEsMOWUcyoZEdhminIAeZLYtgyzwm+YBYGtSsxmF/9FnH8ISxZR6lHiUuoy6nLmMeIzHHAcSB5o5ep0pHU3NRVlp2UPkLkSmONjs70p1+bZJwvso5z8W1H/rSj/VmQfF/GacrK+Eu7tgPMuvQvT51QXhGkI3WE2LO4SFVMNmQFMxzz1hB4q3VD6FZK3fXp2RPZ12Pqq+LbEv8mx9Yt0f5ldaPB7A7Hgqw6yiVhApFikkKUJSSOSBkR5xM5MRtR0sKlCsxDqO312qgT25uKtueTbPPimCNeW0Fcl+EU+/mzB/6YYb23iA31+xlHXI/0AmTlmaqmNBNmontQJsywR4XZbGzvjQJgDu0w9a8hA41kPI2Trn3DWPizDubSfzWxXm5XH9yrlynj5wWzs0hQzoGRK8JQRVzBPcU8Qj0GPI1/SQEtHp4NUt5VluajME2ZuQXMhNIfG6da2WldVX5XTTwr6bzn1Hwv8P+bJp4tgTT7aUksO9/BFl91N5GumK9K0pB6K1BU6FhpyHVMVYulR6ch0kJoyS59D+aPPT/X5jhrbWsKbF8HOHDjfIA9GcjGbGIyhHXFtBwrMIyxCLC1IljpcD5huM1NC5mVs7rn6QpftK4Et+eS7PFhTgF8W0BdF9GURry3hdSW8pU7398QpR10L0wfYvOLG3m3K9IRxuPGZDomKcZbQZZMsUNbAyDbXQDTCNCJZyXBWmghXpVrOYuW/PNrtNAjLwl3ve8wcH0I+HEuY1WX5BDsEThh2FfON9BRxOZgy4EniGzFJVU/qprAs86l5qczP3NzA5mxkDk3N9r75rm4+L5iP5tN/eyn+13P6n6/gp3PxukK8rQYOd9FVnz8haU6ZhjYDY1xtw9lQ6IhIL2Ee4r5QvrH1eBVhnoH06pgfquF9pWTPYnAkH9zp4XKc9mDqQBFAFiTUj7EfEx8wHwmXqinXI2Ha3FSYeQnNT765MNIHW2xzCX6TB18V4KdF9GkBfZLHnxfouorYUtf7uubk2FwOzH1k5qQppaamTEuaHjMjYhysXZwGWIaYhQRHBEYkiUkESIRISEnIiM0Rs20YsnI2ajXzjc5/K/mvb7V3f+vp7M8+lB9r0ygTSnyCHAIchjKWaqrYhMERhUNOhoI3CSsm5HWInwb4QYBuefjyFJ8Zk6MDvq8rtzfVhnL6dS79Yk5++pJ//IJ89gp+NRd9l4+2VeIDreR0P7kyTu558EVMi9gmOo+YLVV3sBon0sHSE6lvzCC1w+pLmN6cyOMNdqSCDhXjU+X43oCUI9mD0sEiJNwK5gEWHpEOsamRHaprWC+C9Fmk7kzFpQE/1qJ7qmhjIf42H39dAGuK6Ks8/DIH1uTgt3m0qUh2VsjBBjnVwVdG5J5HnwTsZcgWQlYMeS2SrUj2YjFKhAO5h6nNECMwJgnAMcIRzYThiNlM7oRiuJQIvQJw1cFb8N56+kewxD6BDk4sS8l9kzqSDxnuEtgmuEFYLkLPJtHdnnej415quqfr7tGqv78S7q2AXRW6vcw35+X3C2rdnFj7kn71Aq99BdbNRRty4bZyuKcW7q9OD5VHZ+rjm4PwqU8WY9FAqa2cRbqX2Fo+V+jAmGFqmtLMQ33HUWda4lSdnqyiC3X4cETKkeghMaUiEiIWMhYqEOmUpyOuW0SXkJmL9UNP3hzx811ytA53l2xW9IZcuD4Xrc8n3xXht/lk3UK8bj5aPx9umAu3zAc7F/z9Of9EObhYj6634jud5EEPPBuiuQkpuLTqs1bI+wmfIO5Tm/AXYQhs9nZMUESRzam2adU2exGQLLXS5rG/8/MWvLee/iEsAwKnJJky6EnmazXkrIVgOU4Ww+S1Dx6Nwltt91J1fKY4OpobHFgY7l0Y75x3di8GewpwT4HszrOdOb5jke1YpDtyZEce7Swmu8rxnkq4t+rvLox2znf2L3bP1Jwbvfj+BL/0RD5Ky5GuxaaDzEiYqTYDZVkuIH13mp5tp6cbtmvBhSZ+MKalmHewGHPpK+mp1Ett+4kOS2tYLSTqSaDuOPLKgJ9pkaM1uL+U7CpEVorRrlK8pwz3VvHuEtyZT7Yvhtvm/a2v3e2vpjtfObtfTQ7OT48vemcL/qVScK0S3GpE99vJkx54MQDzI1j1SB9wl0qfsAiTBCOIAbb8lohmB2DWMnWWzf4WzfftB7cCdOlvP5iNzVoKoIgCnyYeA54gU8lbEC66wZOBe7fjXKtPLlUnZ0uTE4XJkdxo//xg39xw79xo7/z4YM47WoyOl8HJMjpdIefr7FKbX+6JH/r80oCd66GT7fhowz9YnuzN9fct9g4XRifK0/P16GoL3e6zxxP5OtBFYJrM9FI7XFWFeQ3Nrak+1dbHGvJIlZ2q058mfBGqGlNtkfZl2pVpW+gKSedi/sglP47wxS4+2cJH6/hABR+s4MMVfKyCTzfwxTa53KVXe+xaj19ps0tNcq6GTpbjIwX/cM49tDg9tDg9vOgdXfSPL/onc/7pnH+u4F0supdL02sl58fy+EU3bAR0SlKPyNB6WzRZqlAAiFgdzeosAMYznLMmuLOxc+lxtlvj33v8sHppMwIhRYCCmMUhSzyOJgyXgvBR17lW6Z9Z6Bx83tz/smP5zU92z412vhrufjXY93p4cG50POecK3s/1MLrjfhWCzwY0he+nAf6JdTPoL4f8GsjeLYVHK9ODxZHexcHu+YG21/2d885BxbC40V0ucPvu/pFYvLE1KR1fIrcvIDmxtQca5tDdbWvzA/X2A1Hvs5mNWVpKtIUuU3xepbI2w6+0ImO1sJdxXBzLtySS7bm0d4iOV7lF5vydl89maYvPf3a0/Oufumkz0bqQZ/fasPLtfB81T9T9k4UvWN5//BCcGg+ODjnH3jtHng1OfByePBF7/Cz1rGn9VvlcdFBDtEu0b4NR8iI8KwdA0ooBBSALFMREYAsTkt0dROmVV3iVtrFvXHwIVmSpUIlCEiSkCgksUeBQ1HJCx91JtfKg7OL3cMv2odeDw4vOkcK/tGif7zkn6r4F2r+5UZwsx3d7SUPB/DZGL12SD7gFaBqRJeJzpP0ZSJ+9sjNEbjci841g+NV92De2TU32vXa2fXa3zsfHS/Di216Y8jvu/JppJ6D9AXSP8fmB8cc7pr9zXRXVe6ri4tj9QDqp1g/Q+o5kI9j8XPAfnTQhW50tOruLXpbc/6mxXB7Aeyp0BMNfqUj7w3TF1NdjEwtNvXQNANd93XFSwuufO3Qx2N4fwhu9cG1TvJDE5yvwjNleKoIThTi47ng2ML02Nzo+KveiRetO9VJcYonxEwtSx1gFRJbrZCVH2U4bQlRVmHyfpZouePfGwhXTn5glhlOCHGcwCBEoY+TKYYVN3jSmfxYGf5QGJ5eGJ7OT8+Ww/N18EMHXR+QO2P6cEqfB/R1wBZDXopFA4gulj2i+lleSIuqGpEFJOYS8TTkP7v09oRc6cHT9ehQwdu74O146W174e16He5biI+VwPkGvtpjNyfyp0DfCMzZiTnYN3vaens93dVITw71tcD8GKQ/evymQ66O4KVefKYVHKlM9+bHO3LOlkVvaz7aX8Un2vLqQD2cpguhrsamB80ImnGsJ6Eex3qc6CFM21DVkMgD/jriT33+s8NvD8SNrrjW5peb7FIdXajE50v+hfzkwuLgftMv+XRMbQTfw1Y1AyJDKsIlnLb6JksYm1UJvauX/2yWtts5RFEC/Aj4AYw9CBpu+Ko3/bnh3KlNr5e9G/XoZgve6rP7jnwa6jlgSsQ0symdnZBx4yodaR0q7YnU4WrIZJfwJhFVkhaJnod2tnDfFdf6+Ew9OVwId895W567m5+6m56421/4+xbiIyV0qs0ujNVZRx8dmT0Ds6NjtjTN1qY50NOnJvrMSJ7pk9MdcKIRHal6B0vTvbnxzoXhzpyzu+AfqCRn2vT6WD/0TS4xHazHRAdExzgr6olUAlNA0oTrQOolP4vbb7GQmOeBeeyah465PzZ3B+J2l9xugVuN8FbVfdaPqyGfsXRtBFj7RNmCTlsQaINliU3+wzb5z7qywGbmLnUmX+rDtKKC7z34b+vlG2PyqjZQNlcEoRiAIAFBDOMQgVGUNNyoNIlzo2R+COfHeH7KFnxpnU+o69jmjw+4HnI94haeJ1QkZSikz4XHuMP4iLI+5V0qW1RVkMoB9SoSjz1+b0Kvd9GFOjhejA4s+DtfTne8cnfMBzvz8e4K2tNiuzpyWzfd1DUb2mZ903zf0Nuaak+b72/Rgw10uJYcrsZHqtGRSnC07B8reeea0bU+/MmhT3w5F+sS1B2cOkT5RMazxs+QwcS2uIWYJ0QETLpCjXjaY3Y+U0emDEwxNoXI5EOd89WiyxcdujDBCyNQ8UgXyAnTTlav6dl8F8sypCKiPCbM1nzb7PVZSeYSv9U434tw5eTvYfmeN5t1QMMoQSCEIAQwBiiJIPIhcSFzAB8DOYJqiNIh1kNiY54TZpysp53LU1dIj4uA85CxkNGQ0cDGcm10fsrYhPERE10iGlhWkSxBlYfpy0A+nPAfu/hcJTo47+x87Wyec9cv+Oty8doiWlNha+pyTdusaZk1TfN1I11X5euLeFMRbi8ku4vx/nJyuApO1MDZBvihCX6ekEUgGjztCj2UZipseUJCOSAU2XJXWxdLIbCmB6EEkRAzlwiHqglNR1bsN7JC9IjYdZsxSsdQjYEcAzlByqHK4emUqylTLpN2CXbGkliWYKnVE82mljNteeMir2B778F/j+V73mb17ZNtRBAjGNvvi0CWMUxtQ3MiEiITWzysIqZCli6LCrgKbLtCCzJgPGAssCB/EZ8xl/MptwuiPSw6RLZpalvZYb2YqGcevzWA5+rh4UqwoxSuL0Zri+CzIv64xD6uyk8a5tOG+axuvqilX5X4mhz6Ng83F+DOEjxQw8fb5HyPXhvSu2P6OhJNqiYqdVUaKBVLATiDjNiS9Jnds4NagjGAGCV2bwXmU+nZKobUY6nP0oCnIVchVxGXMZOJrXrPhNgsCJ9Jl89EuMxm6wd2vOS2W/gyy1kXlQzMSorjH2hj32X5psm1+ftgJtaxzlpmZX0Xlso0Z4UTli7lCeUxsxIxHnIecO5z7jHuce5m4nHmc+bZk/b7T2yCD+8T0WfpQNrFrwbTRayex/wnj1yakCMDuq1Dv2vyL2rio6r6z2r67xX9nxXzUdV8UtGfFcWXebquSDdX2J4GP9oT5yfyuifvR/IFkEUk21SNmZza+4lGNqqGwBsbbNgu/tm8iyS2ga2ILDwrEbdZSAmfdUFkWW1/1mY629YCETbLuPAZ87Lmph5jPmPZSMkyA7ukl38GljMVn91PK/u/2BK05Q0LlregmG1EkTXrmeVjzorhE9tMlM1yhaZcOlw6wsqUCzdLIPJsRrx0iM16GhM+4cpJzVibkTZdY8qpea3MXWrOx2bf1Gwami/b5qO6+beK/v+K+n8V9b+XzH+W9McF+Vmef1MWWxrpvq455ZirsbmPzUthyto0RNolcoT4FOEAgggltrCexomtWgHJcj/imJNYsFiIWKpEmUQaIDUQKRQCC4ptM41sJZdCTqzM6lMQQQnFIcN24ODZmi6joe28actibKa87VXBMpazi/nP0MsZgtW6mO25tGpflZXuJ7PNV2Zt/mZNqbJNQOxWILaAwG7WRGzJH2WxLY2zyjfhcsBVX6Q9K2rA1YhLm2jC1ITaPLwBlgOqRiIdp2aoTd+YljYFZV4IcxuZM4HZMzYbe/rLRvpRVf17Sf3PvPzfhfQ/SvpvJf1xUX1a4GsrcmMz3d03x6fmh8TcIeapMDltakp3RTpickptSo5Pscewy/HUVmUTh5EJI2MrbGKT05QrUz81YWoSZYDSUAjEKbLdRRG1yU+QESu29gtDnG3QYLNDaBaEtd1mZvXj2AZhrflaumzLBvafxHKVFs6yQ7J7aqnqbLlTzyyF3u5JZxsvWVneiidrHDe7Ay1QBu3gbzuuOFQNmI2rNYVuZNLiusN0l+k+1YOs9UOP6B7VfaGH2vR0lvOuzYI0T7i5CcxJ1+zsm+9b6Zc1+VFJ/HuB/89F/m95+Z+l9KOy/rikPimIryry+1a6Y2COuOYCMD9S80iaOWNVs5vaIqSplB5nU87Hgg+E6HPR5aLNRJPyOuVNKtpMdXk6VNrRxtcm1gamGkoJOYV2MzKUtRlfags/O8bExurgW4JtlMd2oLCwlzqLZEzf8Hpm7sh7XZ6VkzMkvzMea3VvuVHqsu7Z9lM2FYJkQu3tyrPOMLOG5VnT3FUskWUpfWK7rLSwKiKZQ3IRqQWkclAVoCoBVUlULUlrQNehaWDTYqYt7ZJvVZm8NM+pvgfTy0F6dJTu6KTf1+WaMv+0QP+Wp/97kf5HQXxUSj+ppJ8U5cd59mWZfdsQW3pq/0SdCtVlkN4h6WOhFmXaSPVA66FSIy56Fp6oElHCIof4AmBzCX0VkYWE5aGoYJsFMki1k+pA60TrREpgiynt5hxZz1vb9naVAGz9ptUSYxxnZ2zQ7t0J5WqPMksmf3/EZ4bz97O0C9/WplhN47aDGLaV3TPJ2mdJjKVN412SJaLWCNkPNvsA9hUS2wlJDZAshuTxJHkwAfcddM/BP0/wwzF+NCKPh/TpkL105Lyvc7EtNy8S28l3DptnUN8N1ZWpODMUhzpiZ11srLBvivjLAv40Tz7K00+K/LOK+ryiPi3QjxfAF/nkmzLcUEc7O/jgkJ506EWPXg/oIyhyIq0pXeWqgnkesNcReRrghy68NwF3hvGtfnij698dRo8d+CogRcBbTA2Emkrr90ZCZF327V44tnnDqh3m7DGxgRTb7WdJrHuYucPWMf6Xs1xqzmTH+kwRM4R2P4LVgrEiSBEkrcw6o836ca3aLhITkpWSqx7kr8bx9frkcn16seFfaIQX6+EPtfCHanS5mlytgjsd9nCcPnXN89C8SMyT2DyIzB1fXx6JU21yuEH21cjOMtlcROvz4Js8/KqAPy/SL8r8q6r8siI+y8NP5vzP59y1i963BX9TOdxeT/a2wOFOcrKX3PTIU6IWhH5N5MuEP/LJnQm4NogutYOzdfdU2TlRsOt05yuT6y3//jB+5eMK5G0ih1khacBFbJsVLKnmbC+j5e03iE0AsVuw2Er2rJUTohZqRvSfzvKX3JOl/eKW2vrYvUEwse2zMFaZpBgvCcIpWjq2DdGs1lp/1t6ltmvYLL8lK9MHtkhYDhCbc+KbzcnlmnOuOj1V8U5V/JPl4GQ5PlkCp0r4fJ1faafXe+Za38oP/fRiT53tiOMNcrACD1bQoSo5VKP7a3R3lWytkO/LZG2JrC3TrytsXZWur8CNpWhLOdxRDndVwt3VaE893luP99XD/bXgVC/5YYpvBuymz3/0xJUxPdcFx+vR0UpwqOgdyk0PLUwOzY/OFKdX68G9XvJqiiuAt7EYUjG1Uapsndk2NVpyapLZbie2GcmsGZdtZGD3H7Ocsz0BbdQhC9vZxefVY+TbAbwPZ2MttneFLRcIzoZGSYgiJCU4JVgTbFu+YKIR0dD2fkkBlgBxYNtS2HUdG0e2XdSzbmMMQkESyceE5r34Xte51nTOVSfHSs6RknewFB4oJvuLZH9RHCqpoxV9tGIOF83BvNmXV3vybFcO78qBXbl4fwkcr5GzLXG6I0515eG22FGn35bxtxUrG2p4dxMf6+KTXXS6A0+3wfFmcrgR769Gu8r+1oK7s+LvaYT728mRPjk5kke6bF8N7ixEO3PhroVgz7y/b947ODc9U/Cv1aKfu+C1Q6ox7yA+Ityl3CXERchHMEAwRNBmZVE7B42ZjLMWGwlWwPYVkQCKBPAEsMRGBGe9Q2zHtGzUyXok2GDs2zhX3Jz3HvzG8XLJlr7TEIHPXJvlR8uSkpQSTbEh2CCsAUoTlNryDChDmy7FA0gDaPehjOyaOrQzcQaQAMCWyDCH0XKUPB75P3bdCw3neHV6qOrvs9cabS/xrcV0W15vz5mtC2bTK/P9M7P+mfzuOfnuBdz0Otm+EB0qgXNNeqOvro/S6xN9YZQeaPONVbyhAjdUwLY6PNYj1xz+o8NuTeitEb7cQ2fa4HAt2lX0NyxMv1t01+XcdYVwUx3v6KbbmmJjEX83H2+cj7fMxzsXov2L0dF8dKGS/NiEj/p4fkprCe9APsTcIczBZIKgA+EUQhciDxOfchsYItLDykdpgHSIdJT13oqALXOIEgGA3fvRtg+xVaW24WpG8T2u0HsRrpz80CxxppdEE2oAToOETwI89HDXRR0XdX3cDekgYSPEHcKnlFujxGkoSCxJpFiYyrEUVURfBuihB2+74KoDzk/Q8TE50Oc7mnJjWW8s6A2L5vt5s/6V+e6F+f5VumlebMuzfWV6rEEudtntsXjspY98/TAwP7rpyb7Y0aBba2hzNdlZS0534a0J+XlKH03Zkym757CbY3qhT4420c4y2FQC35bANxX0bYN930m/b6rvKvy7At1cIruq5FCDnOmSqyNyx6GPPPYq5AUgGkS1iexi0cd8QPmQsSFlfUK7iHYgbQHaTGgjJHUPtwPaD/k4li5QIUrtqgtSCVIJ5IndudV2N1yejcx2gvjX6WXmtdpGhYhqxE2I5ChAzVFYGQS5nr/QD/LjpOjafoAtJHss7fN0KNKJVK5tDcl9LT2djlJd5+kCUq+IesbUA6Z+JOoiSo8G6Y6B/q5m1hXN14vm6znzzWuz7pXZuKi3l/T+enqyl16epHf99IVtja8XoVnIWuNfGqt9bb6rgbdX4z216HwnuT+Gz6dk3uf5UL4K1ZMwveOq8wN1sCl3NMT6Ol9b52ua6qu2XtvUX9fTb6vptlZ6oJeecdIbcfqIpi9YOs9t/W9V6JbQLZY2iWwi0Wayp9KOTBtMlbHMJ2w+xK9c+Gocv+gHi6O4MsWdgI8TaVfQqE6YBkwniEeJXfKFcAZvZl3/KL3M+p+/PV7Oiqp/qanHNjVbQiJt+yWeOpA1p9Fi13nRmjyoje/WnPvt4Oc+eDTBzzz2MhJzsVwEqohUjdhpeEeortRNaUrc5n0/Z+YRN3eZuYLTk0Dtc9WmnlpbVV8V0y8W9JdzZu2cWTdvthTNvro50TVXHHM/shmtRWKnnjVqysS8SPQ1Rx3qiL0NvKsa76+GlzrJozGa92g5Fk2YVqDOQfM0Mjcdc7qn93XSje10bVN90VSfNNSndfVFNV1bSTc20l0ddWycXon0z8wGJV4Km3SfF6YkTJHpPFE5pBZJumBLo/UzoB5G8q5HfpyAG4PwRse70XDut93nvTA/Slo+sdm52VWCIk0o+z/tfQeTFEfW7X9+L95+u1pJIIQQAgY7eO+NhPAgCRAIhPDMTHvvbbms9KZMvrjVMwhY9hOrRdKGYicyarp7qnu6+vRNc/PccxCliGDCYD2adbAvj6/Oht7nXvQ/zmNfg5ODBi7kygNpXGk6mOXG7v1m/9tK70K+ey43OFuanqmis/XwbJN82aYXuvzqQN4cq3sArX5OogWeLkj7VNmH2t4V9ga1X6P0mGN2DeVcR3xWlx8X1ce56KOFdPULu3bBfrFod5btsZa9MLS3ffuM26KyLWMHkHMHH5nnOL0xiY609IEa21MOD1WCK23yaMwLvmrRaJilkxoSzC1+8O3lkT3WT3d003WtZFU9+p+K+mtJ/b2gV+X1ZwW9sah2NcyJUXw5tN8Qe5vae9w+kPaxgjTFTzy9z5LvcXoDpZe95KtpdHqkj/fo4VZwqO4cqYyPl/rny4Mb1eH9xmRpGHQCPmEq0IYmETEylBljVmTm2D/D+RqQ728eOxtY3zwuV7HM5kRMgHcH6BVINRKyivCjweSbWufLQvvw89bup52dL0Y7ltxti97mBW/zgj+fD/eX6fEGP98VN0bqphPdQcldau+K9K5Or9P0Sy89PEp2dOS6Gl5dxh8W6V/z/G9L+oMXyccv7NoluzFv99Xs2Z79xrGPiK1EwMAbp9ZNQaGlo+0iSb6dRMea6lCN7SuFR8roeoc+m8haaEYyCRLrxHYU2boExcJbjj07trsHdn0n+aim/0+B/98c/8sS/9uC+PAFX/WMfZGTu5vRibE959iLvr2G7LfE3uL2JrffcnuV2i+99Mgo3duL59t6c1NurOL1JXd9YbQp19+21Dmw1Dqz1LxWaD9sjytOOCDM05JZTRNOYAIE7pArzthvjpS/Sw7vlY53liLHSmXeaabPZSHAD0bejbZztjw5nJ/szbk7csHWJbR5Cc8tka0FOl9ieyvsSJ2eatIzbXauy871+bkhPztmxwfsQIfNN9lcDa+roE8r4ScVCkqwRfVhzqxaitblo7lidKAen+8lt530OU4b2g5jgCeI7cTYnrI5nNwcmxNNeRiYruhYGX3bYQtT3QzjqUxxbH3YcLYgWkjs+ONoigAAIABJREFUj779epzs7UbrG3p1Vf5PWXxQlqsram1Fry3ItYtifU5sLcs9TXWgrY/09ImBPj3W5xx9xtEnpvrIWO/t6a0ts6muv6irz2tyfZWur6KNFXdbZbK7PDpRHV1tTu51nMVx0AzIkDJPCZJImnAaUzpbry27nP8hWL4SqVlddGYsaCIeJ34Ud6TJUXXf4Ve65FQ9PFAOt+fDrXkyl+ebCnKuIOaKYkuRbi+GO4vBzoK/q+DtLLjzRXdHydladOYKzoaCu77orSv766rh5w32eUt9WlOrSvKTolxfUpvL6nBTX+pH96bxEk66CoAJItiEcjXI3RVwcntkTjbkkQo9WETHS+hmh+fdqIMTT6TM2FBbX9mBgHquZ6G9Mo72tcQXVfZplX9YFWsaakMn2tqNN9XNF0W5Psc35OimPEx3t5XpfJXtbLDdbTYPkid0rkE/r7LVRbGqKFaV5OqKXFvj6xt0cxPvbAYHm+75XnB3QhY8VkGsS9iYgw5cGAsCaZUsUWbAk3em7f163mC5s325/HjrjRkU/2ZufRnPLMMuqdTCRCpOSJxOYI6XLuDoB0ddHYhzHX6kzg7Uxe6anq+ZrRU9V5IbC3RjDm1YdL9YmK5/Pln/fPz58/G6F6PPF8afL03W56cby97mGtraItu6YnvfbGzJT2v80wr7osK2VNixlrw+NI+9uEySkbK+sdhYZqyvgatRDJPbI32yLo5WyEEgUqNbXVH0kh4YJlquLJEgQzzltsVsgdhvx/pQg24qhevKZHWVrW+rHcN4v5Pu7sfbG3pLWcwV6cYchkqEPN5QwBtKeGMFr6/gzyr4kzL+uEg/yPMPCxmQsKpR8z15YCBODNmXQ/ydw56Cz4JuUzGkbMqpJxkynESQJRMxzB0hc5Kl4/94LLOdDyWkkSqiICmQDETSYHGBRM9C82Ngbnr6qmPOT+KTw/hgx8zX5JYS25BH6xbczxactS+mny5M1y5O1y5N1xe8uXKwvR7u7dAjA3FsrI5NzNFpvLOvNrTYujreWAu3VNGpLvt+qnNh0lmpiuUm5Qa8CUYrWJ6osyMVfKAQHC+h211R8pJ+aD2aMpZSZgmzPrMDZuvU3p2oEw28rehvKPpri8HmFj04NWdCe8JNjo7iQz2zv6P3NOWOmthcZhuKdH2ZrKuQtVW6pso+qYrVFbWqotfWzVwn2jWMjkyjr4LoWmhuIX0PqWehLBHRprxP6YRgh2KP00CyUHEK+vMCdu1nKXjg473Z/jEN9Dres7Xpe6rZgyQtDJ+ggzuTwg1p5LF4KpORSXtx2ojTUpI+0+k9bm+E6dlxtL+ltlfYhny4ZsH7ZMFdteiuWnI/yXlrCt6Gari9xfb31ampuRQkV1F6BaUXg/TIRG3tkQ3NYFPd21J1zvbxA183OFQ68tiqOFUmlTpBKh0JWwzjWyN1vE4PV8L9K1iWvaSPrBumBKcMp5xYTK1DQbLg4USeawS7CtMtuennS5P5JjrlqavSXmawZX0+SM866clxur9rttXEhjL7rExhFK/yVXW5umHWNOK1jXSum+6b2NOhvcbsfZ0+j9K8SasgP2u6nA8pnhDk4sAjyKfEn7lsznaus5TPbDtltnPy+vHtg+gKor8FlssmCCBrTFiMeOKpdBqBVtysfvapSO6E0WVHn+rLfQ2+tUzWF9Ani97qRffjJXdVzv0k735a9ObqeHdXHB9HX3vJd2F6C9vvUHrdj0+O+Hzb31x3djSc3U334pA8CXSbp1OZUBULHQllOHCiooGI86H5biiO1vGBMtpb8I4Uof4S+liUApZhwnAqiKXE+tSOqX0+kVeaweHiZFduOPeiv7fqnBvTGyT+hiTfkPQ6tpeRveDbYwOzsyE2lOnaEvmoiD+q8I9renUj/qQer6nGG5vx3kF6yrPXMCxaFg0UO7Qj29fxSKqp4B5nASeIUwS7l5l0MhC3ZoRK4MfOeGKvA/kW6vMKirPR9P1iCbseWZoYDC3AiYuKmKg00DAlGRjb0Lag7E84ujGV57rsSJPsquDNJfR5wV+dAxQ/XnJW5ZxPCu7akru1iQ8O1Dk3uR6k97C9j9O7QXLTNWd7eHdtvL063NecHu16Nyb0BdIdlkyYQUyRmcMLFNnLnlCLSN4Y0kN1tK/s78q7h4reNx2W8+IOShyUkDDhOJXEcmIRgdDMT+WtDjpbmRzK9XY8ax4sDs530beuuo2iuyS9Q+1NYr/B9szY7GnyjSW8phD+LR9+UGIfAZbJqkq0qqA/L5udrfjY0F7xwFxzUUElaA8WP8nUxJ4GA+OM3qepMlSC1RBIKa4YXIDFxXINwqyq5OXx94zLFSx5JlvOuCEqwQamlCNt2yot8fQ5Tb939YUePVpD+6povozmSmh90V9T9D4puKvyzuq882lhuq40nW/h42N9KbC3QyjxeYLTn/z4h6m60AkOlPt7y71jrclXQ3THYXmkezQeE+1hjihs71LFppJ3hHgRsmsjfKAe7C5783lnf9G93qGLXtRGyTSMSRhznCgCoYmJ9UladeSDHrpam5zJdw88q53Idy833e9H7L6nHpHkEbMPGAgsXJjqAy02VwrX5NFfl4K/FenHNbO6ma4qm4+WxGd5ua0aHWqn50fp7cA+YbYgswyGsZMo9aI0jBIWJzwCnQSuUiYiwhQBQxqWya5TBqLd/9h+RyyXWVhZp4GgAFg7KhrrtC3TskgXaPIgiG46+us+P9oI91SCXTU832DbGmxzg25s4PXV4LOS81lhsr443lQc72+jrxx1E9sH1C5yu0STBRQ9cdR33eBceXi6PLjU9r4b08eeLIcRYAn6MBLqGhW48k0N62j+nLKrU7yvhXbW/O0ld2/Zv9pjC17UDJNJGGMcswxLSVJKEoSTticXRvhe2/mmOjifa14td79vTR8NwxeeyNMkL+yCsE+EveHqE202Xw4/L6C/LwUfFukndfNpK11TMauXxGdLYq6od1Wio634q0FyfZre8ewjBEvYGrM9mU4ViIvQKGXZNI0JA0r0y/r5/wzI37ePhfWlyHS3pHSEHEnVVaap47yIH5P4ThBdncizPXa4Ee4s+5uL3rY6me+onT0931fzfbmlFW6sOBuLo83F4bbi4FjHv+qpH7l9LmxZ2gpLymGUd+WDbnCjMrpWGd3poseOyvmmDqpk8ZhFDteBlNhwktBpzNoRf87ZFRfv7aL5ZrC16u2uBZcH/LkfNcJkjOOQxIwkkqSSJAzHGEcjX9SmZGHgP2yN7lTa9+u9p+1xbuhXfNZmcUvZirJ5Ze94+ssO3VcJNxXRx0vBqhJd2zDr2iC29+mS+GxRfLEkN+fUzrI5UI+Pt9OveunVob07tc8CWyG2K6CvCiPQohFRyqQG8wicOVu8JRxfBujvGJdZ3gc0Rz0lx0p0pKhysUTFT4jfdOjFITndRgdr3u6yu73obC25u1r0wMgcnMYHptH+qZnv4M2V6VxhuL0w2FXsn+n6NwP1VMIQ29S2LdM2i5uhzo3JTy33Qct7PqJFP6qjuIPjIY2nHFjhgdFhLMNUjFLZTOQTKS76bFcfb2+Hm+toZyO8OBRPUFwlyYAkAU0ITQRNJIk5NhQrJxA9j9WmuDj0FrqTfH9aGXnNKeqFYiLikQIPjJqyP/n6cpceqYXby+HaYvhZjX/RieYG6ZZOtK2ht1fV9rLaUdQ7S3p3We+v6qN1fbpprnTN3aF57pgqigcs9VSKTcqjlEqFKcEYUbpM/HlbB/v7xiXoVCoJWsBaDrVocLYYhg9c79uhc749Pl4bHigN5vP9HfnhfHG8q+oe6tNTXnQapSdRcsyP9/TIltJk81J/Z76/v9j/uuv/gNSSholD19ihSccKynTaSJbHtDSmDU/1AJJ4SKMJizwVh1ESJjFKI9+afhrV0uihMl8Hcn7At3bopgbZ0STnx+phmBRp2mWpy2AHkbNYUMOJYqEIQjFBYhDwns86Hu35dBSwacg9phHUF0D1S1fZZ77+pkdO19HeGt5UpXNtuXUY7XTtQS854cUnJ/GxXny4Hu+v6j0lsbvA9hfp4RI5VyHX6uSHNlsYq2YQjxgsgnmUgIggxRgHlIb/BMVZaP6ecQncFhloNdGyb0SZ4cee811/cL7RPlKs716s7liobX5e377U2VMaHW54pyfsEo0vcXue2TM4PdCnWwuTzQu9Pbn+0WL/as9/FKqKgdn8KBM9mlGKgXcZmiEyUxL7UMUYO8y4XCMd0zTF1gY2dWzasWnJwvLuHIq2DdVcV2xosm0tfm6i7+F0idkmTycClHcY0ATBJJWDP44IiPKoCXiMZBrKBITPhOGw2klplvAbS5v31fc9cr6JjjTJ9hbf0Ve7nfggtueEvRHZG8Je8uyXPXusofcVCfBLFr29C87RJefLnHuj5P/UZqVp1AsTVyQsiokUmIaY+P+JWE6N6keywskTz7nV711utc5U68dKtaOl5pFy+0xjeKnnfTOlt0N1Tya3pL1E7Ek/3dfhWwru1sXxwdL0y4Z7a0yeE1M3thfZSWLdOPWjBJk4kLEHfIvIo9oj0qPCo9xnHMj82nhRPE2Sfgq634+VvU7SI9N4Q1eva8pPq+yLGjvSU9ed+GFWLtiXqauyVanUjHIa4hDzgGqfxb5IfJkikWKR2XCKhEtLJWjmOdxWgujhWFzr0mMtvKWGtrTw9gHb48izOPpOpXeE/T5Mb02Ta311oQUVS2fLzpnC6Ovi+Hp5cqfmPB/guq+GFIq8WBQBdzhzz2LiDT7ta6mf3zXvw1bichqpQayqgjz1prf7neud5sVG7etG/WKrfaXTvz1xHyO6JExOx/k4fajstdAen6R7WmJzHm3L+cdr4bU+/dFVeRa3Tbb1kVgvTj0d+8qEOiYmISpCjHso9MMwwAjR0GfU5XysdD+Km4l9Ju0tDF4iu/vxpw2zqqo+LPI1RbarIc/1zS0nXiBJG3LxKY0Srg3lHIcIER5w40OVa+plyIVAWUrpSrYvzBJ+LZQsuOb2SJxso7nyZGNtOtfy5wfhWV9+L5KHMn1Ck2cofuSq+2N2p49uNqc3Kv2b1f7d+uBRe1yYoA4RYIKgNYuNiJSMJKg5z3J4M1YtcNjf3L98PTnwxl/fa64gw1IFWjmRHsW6Idkicn8c9++MujcH7ZuDzp3x4Edn+iJENSl7cdxOklZqn0t7I0iPDpLddTmX+YueabLbE/0URVWe9I0dZ14RXpR4KvK4xioSUSJMhBn3EUIhwgQczjxKJ5T3uK7LOKfsD9hedOzhQbqlHa+qRX8vqb/m2Yc5Oldmhxri4kD96Jkii7sy8aMEG/D7CSlGTPhgj2g9CRKkvrCIW8wsoZZSOGJqEbX9MC0FyX1Hn+2gzeXRhspoU32yveOec+g9Fr2QaUHEVR6ViSoiseTiZ0P3YWf4uDN81hsuDcd1Pxhy7mqFjKKR4pHMsJRCZ/nYFYb0H4wlUSrU2jN6EumuFlVOlrD/IvSeIudp6C4QP0/DmqB9IyexGcRACnnB0mtOfKhjdlX53FK4Mx9+1eY/utESTloiHWvwTvNN6qvE56B6RoQROpYqYlxiQmFVli2tPS7H3DRotICTe0F6ZWJP9O2udvpFPf6wYv5WlH/J0b8t4XV5vL0YHm+Qq33+wJV5rHvSOFndZwgFvMZTiZsB6Qlw/wtXgGQzOLOswhCntTB97JmvB3i+PtlSH2+uj+fbk/MO/ombgk4a4PMY91XUl6bLZDMkVTeoul7Vdeue2yN4qoRvJDIC7MxBIQ9qdCGx/kr7I7HkUNeksNa+0U5kRpHuGdU0shGJesQbMW/HopfIcSK9WAaxnJior9MFnFwdRQcaar5E5xbR7kJ4qSufBsDE6UtYh/kKJHqRiAPwYZOEaSGyb7IAGWQB/haaSuNBCVhawumPTnplkJ5qp3sbdnM1XVuJPijr/ymI/5cjf1lEHy/46164O/P+yRq61gVJ/hKFdfA0isM09WP4j456LSgptYxanh0psQTbCbFtYl+g6OqY7m27O5qTrY3hztbw4hQ95apmQGjeTxOUJjhNcBIHRrtSTDkbMTxkaKqoBz5zEmkWSoIERixELCSc/AdhCVrASiOA0ziRmcRmGJtBYnqJ7qdqkKpRqqaJ9GO4krHWHRk/R+bKUB6os91lvD0fHCiHN4ZyiUD5/xhyuSmSKeYJpjHGBoeaESNZrHgMlg/SsKzq2BNxjybVMHniJN8OorMtc6hu5qvRhopZU1EflMVfi/QvefzXpeDjRX/tgrc55+0r+6ca6PqAPPDEEtENFY9TO84ICVNlPZkGmdgEyQxXOez9pwzSQynGdkrBoDZH429ccaiHdrXcHY3xrsbwwsh/hHlFqJ7SbmSCOMJJTOIoNJDEgApAyRxFPSNQolC8giVfxhK/giUUKvyB4+VM15lmcIbagH5E9vV002SaxhNQG9WTRLoZln4kh0o1uX7iy8t9dqCG91bQrpJ/rIFuT2VFpj2duiYlGhQ7KI0pjlgYMaDSxookiqVKphJ8K8F0u8+TMkqeOvHtgTnflIcrfHdFbCmL9WW+psz+XiEflMK/FdEH+eDjnL8m56/PeVsL3p6Sd7KJrgzoXU++4FEjAXVLkGADLBMkYsxjxiJOoQkKSSJCkhCnDrcDbUsyuRWo40O2rxPsbEx21Ybn++4DDxcwazE+kcKDEdFgA0UmSIAgZWAkimQYK5xkOQ3NICgzLEMWEuBuQTebFe+9MbX5xbvvde6TbURnpqbg8RoRE+M4wWmK0sRPE6C/JtpZ7mCVb4AT3GDqicev9PDhanCo6h+semc76L4vmwY06oIoYTpmIoKt9zASQSSCWKJEhamiVkoroozhwW0Vp0+d+PueudSUJypsTwFvL5K5El1fpp9W8MfV8KMK+rAcfFQKVhfRp0W0rhB8kXM356Z7yv7xRnhpyO4ivWjAabGn7VSlnkxAVZtFjJmstNmIzKmcANk8cUU6imzVpD9gc2YiD/fCPQ1nb214oec8cMI8Ik1Cx4y7UgRahRr0XmB7S0I1NU40yRqOZahZCPqjOOTLzq8AJPDWf0V7T1jOXmZGKmAweoELJgaHVtCS8LRyjHKMdCPpwkipwliHsZko0+bmhS++7eNTdf90wz/dCq4M8GMk2+B2GQcmAgt4rjmGonIwZZkBia2glnIbSjsgaTlIn0zi2111scZOl/ChPNq95O8shturbHOdf9Fga5t0TYN8UidrauTzGttU53MVsinvzy1Od+SdvUXvRANdHvK7yLygcUOmI20dGKETDLayJivl0RmWUCmBSOSKZAISuOlPxFx05OkBPtpyjjZG1wfeUw9XMesx4QrpAytRg6yBEAFlAWeBzMRFtcCRIkZmEx+aGZ8yrrImGdSy/rFYZv8f7DX4DEtpQqF9Lh3Gp5yNBZlI6hjuARyaJBFJwPK8L+J8IO8M8PmGd7HtX+6h2xO6QGDFMolMYBSRkjLFQyUQYKlDq7CVBCYjiMK4VfPTJ6PkZttcqLLjueBglmHZteDsLqI9dbazLbZ0xBddsb4j1rX5+pbY0lE7u9F8Q2wpBpsWJpsXJlsWJrvz7ol6eKkv7numxJMBhCYsSLLQ1AxqsmBHllGQSEcUSkSmUdo26TOQjpYXx/hc1z3XGn8/9nOItqgYCRVkghpg7ipVyHhAqE+IR7HHSCBYqATJtAwYlMcJFUloOqsNgqLUXwHn+4jLV/7zrJR9pg4CprQ+h7qnKScTgScSu5r6EQf7qjhicRroZCKSeqifOfzOILw7Jvem7EkgylwOYj2NlG9EKDmZaTaERuBEYiuI5cyG1I7DtB2kC+Po+46+UOWni/jQondwyTuc94+W0LE6PdGVh3t6Z09v6qoNHfVFS25qy919c3ycHOsBR2tfKdiV87YvODsX3YPF4GQV3+jzJ56ukLhNkxGzLksCajCY1GrONIddRhVS6Uvtmqhv4qIwP2F912e3p+Htsf/Ux3XCB1w5mTgKUbOSfkW4CClDlILoESMhBxEKkJrRQoDnk1SR0itYZkSb3x3L2TdhFpEgtACGFppIAzIvmS6YL4UnmSupo7CjsauJb1hoJIsiYRKsUp+D/UoTmyJSRayLxFS5bis5isQ0Yq6hgcryzeDjrDmJObWUWSysQ9NWkOQm8b2uvFSlJwvoSN4/kHOPloIv6/RyV14e6Cvj6MtxfKAfbe6YTS29oam2ttTRUXTJT6+68aWh/rotTlTJvhyCerwFb9+id64SftdljyYq50WNMO3jdEpiRA1hBmpMuaKZOigSwldqonVH6bI0Ba5yVOQIrzMxEACkn2ndUAm+eULAE2cMO8iRi0xpQgqwr8hMgqQWatYUOP+A+c/LltWOv5VB+caDWVERECJ/JafyZUTOzC9nYj1YmgxI0HjzlfA19zR1DXZN6GnsgxeH4NpIlXCREgaJFU/aqQZ28hiyPPE4kpOITCPsZE9BgkK9JtWUxSwDMpB2QNOiE/3U09fr9FTB37843Z9z9ufd0zV8va/vu/aeZ38I7HU3PT5MtrTiuWa0qa53tMCq4A5NfyT2fmDvTtNLbX2sxPYtol3P3O2PJocWvC/L4Tct9mCo817aQOkQJz6NMYsyW0pQ3yKMhoIiyXwtnEiN42iUxKMkHsexE4HcFIIxErpWtuwAtOxcAIZAUnG1XJbHoURPKAVuBzNgll0PMziXEX1nLF/KBfx6LFfgnAUlxOUsKJFUgZRBhqWvqadDX6NAh0hhDFlHJYAPmjAG2c6Qp4FMfBm7KgJNJsOXsTfI1whJkkltKMoiAvWLyZQmbd8s9NmdGrpc8k7mpody02OwXsRX+uKeE70I7TNsnxB7G9kzk3RHN9naijY3zM62/moa32fpE2afEvskSG+PogstdarCj+bD/Qv+0SXvdN69VPbvdOjzial4US+MPBJhGNa0gGkJIxxjgUOJkSK+4TChi1TWtG8U0iqTLAAVHJ5ZxigwsoA2czEAAAE6YC1mxgZCgdDKjMD4moU7ROfvhuWM45zBmS1FsnoScKcFsR6QIIIVleKBJr4OA42QAmtzAnsCknPDWcxpwmi2fGQx5iYUKgA1I+Jr5OvA136gg1BiAqpsivAIs8Ql8RBF1Yl41PRv5IZfLw1PLg2P5SfnGuHlgbrjRi9wUhNQ5JWX9kdqz7t2Vz/d0Ym3Ns3utrngxA95uihtntsCtY/89NYoudIxX9XFiRI5kfOOL4zOLo6+qQUPB7wwVZ1Au8SETAvwThVcEioQkQFW4MMXgvEPhaUFOBmIUAmswAQUgASAlAKXzuUGEQgvkmEI0tpgQ/FGLL569w/Actn9KZOFoULBqCkkhgYzlxC4vAQuWwVYIiJRJncrOcz1I0FiaBR8ybIRhYEDugxD5WfNw8onIszkbwRIQ7LICc3AV5UhfVSb3ljoXFrsfZUbflmeXuuSO270FAO3qGds09iKto+4veiluwfJjm60taV3tdUFJ3rE01zG9qgrqPB6FNg7k/hGT11o0HNF9+SL/pkXvRtV96c+LUxlJ4DtTMwyVx5YyGMqA6J8rLL3phBRhChYV8yUJqgE6SmehZniSnNtVprmWYf6UiA9s1N7Fbw3bv9RWL7U3coUtiABNSPTc2CXgTpRQEVW2S5QJlQgOeAXgesjNYIqCXvmVGR6gVz4THhMuExAlTjnMIfPdBoEZcoP5dgXzRF+0ZjezXVuFfrflcc3m96PI/YcxSWWthXsXbdhLW8f8fSCF+/qm20dNdfkO9r8K8c8YOmiAjX2VgT8nRyzT1F8fyJv9cjVmnN+qff1Uud23Xk2YhVPDrBGXBPABiR7mEQZkD9jSUEeb5YWhzNeAimZUpl9V8T0rBkOUxwYM5fbm8bQ/xFYLheU/MxbB9GwTDkhEznkoeC+4OATKAAYkumyv8yNaUm5omDNrpmvmaeZq5mz0sBvSGfzWcmgDDwMmeOz7ggVm5NHhc7DyvBhY/qkh/KuaNCkp2CPzEmBj1qL7COefO2Z+Z7c0uYbGmRri5ydqh9YuqDBDqab2nZmfVEW8QISjybh963J1WLnar59rzVdmrJmICcUlliZTiXhHFERZBHphdrD2icKMTkrmpwpFS0XMcpM9EYzFUHiarlFEKZvYrksZjXTylmZ9cxA/WPi8mVx0PJcelkMTmTfV5rpvgWS+5JD3iOLsFlcGiikgKBkmWog0sw3zDPUfb15hgaaIkmJAL4a9QM6dnB76Jc7Trnvl8e46vIWOBAnI5VkGnVxP4rrJn7MoguO2tnhW5tkYw1tbaDTI/Y90s94VNZxJ046cdqN0qaKykQsefjpyH/QdR50nRcjVPF5L5Qum/U0DERxGSIiAKch5YXQzQaZjxPJkuAzzVfAcgakYqAw9gaWWWi+Fpf/iVjONAyzI9jtgbBfxqrP4MSZmF+wIulHQZeKmVkDDzDGFAs1RYb6EfUi6sXUjcmseRHxIxJoghTBwCLFJAypj6gT0JHHxkhMiJ5wM+Fg/AMCu8b4sR4YXVfmMVEXJ3xXi2yro00Vb1vVO9ULb7rscSiKXLd11DPxMEr6OmozUUO4imgZsQoS9VC0sRwRGYBcn4CiABYCljwIpR9KH0MLqMRZVTqoEq5cO2A5U4szb2AJhuUqW3LO4MwM21c0WEwmr/NqN/sHxeUsrf7yCIKbmRMmzIW4YsBxy6xxQgXajDMsZ5kUnWFJAUuGDA0i6sfUj4mfZC3OgIwIyrAMJSGcwAY0AdcdhbkhMqYmoVEa6hXtcq2CSA61bCj5BItLY7q3Ee6o+ltKzo6yc7oT3JzixwErUtmRBvSyoniqo6GQPUIHQg51PDLJSEYjplwGWMEy/FUsRYAhOgMiQyZIlm/jMNuBy5evBmWGJYTmSlPgm5i1bMh8DcuZ7sN/AJaviJDCJS33sTA3z/L+DAR1WSarCzdYFpcqU5YtVkIDAAAGyklEQVRVK3FJFMMwt2dg0xq90gwNNcUKhICIoJRTKLjIZB0l4ZrKiKmY6hhS+VIjBZv1QcRHWrSkeI759RE53Aj3VvydRXdf2b3QDX/0+BJWDQ6GuTN5d09HjlATJqZCuTrydOwpA+4+GXsbRhDAEjMWgsUD2KqFBCa0hMGkYDkRmv1+s4/V0NOuqHPOUOSZRGymXAY76Ry0V19t2dfi59TPyuvP/sv/clwe6H5lrmBlyvPm75WvZ9bZwrd1Jg08m7SD7N9yad/yyli+eoKC1clrDRgU4GADW3sZoSnTls9mjJk4ZibFJw0whoE8JkLDUETHmnUkXwzZdyNyooGOVPwDBe9o2b/Ro88CXWVxXyauTpcltVXmLSEUaNirCOsIK0OUphKUeTMss4QPiIPOREOX566Z/O0rl7+y4p9FJ3ynYbchyxq87LSyG7PnZKH8iuru6+dk//iVF3+3m+8ZS8hXrKgXrrzdWS8Ex0wCD8aCV9oM7+VzXv2SZnrBL581e+7yNa1ceKa8C0KZEubOihPNsKFTRXuC5RC9PQjPVP3jRe9wzjlZcG/1aB5FLZaMJRSgIZWAupmMsDCYgyI8VQaWEjDl1OCqPsMykyzmgoLoG7Rsxzi7mNc+4RUsl2dAmRDnyifwM2Y/P2XlGv7xnGyU/vnEd7/1/rF8ZXYtVzqhl/3D7I29VJiZ3X35159RX+5tltWoshhY1ihdvrTXPwoY1iB4NaWGuIoOBC0G5G4fnSu7p3LTYwvjM7np3S6phHGfgxFTqIDNjEVMeES5oRxkU0GkUWoBTUGS7ecfeIezb9PL489/nN16BcuVJPmbp/wv999AFD63f/3nfWO54ni8guirn8i//u7e9RmzZGI23dLEl2TEadnH97v+18Xp2cXxqWeDrxbHDzqkGcZjbn2RYpkSnlAgDwB/gDOYf0iepcKzZBvk2VZ+ZumalXv/5Pc/YvlPTnzrw/+xWL7ShS53U299/+/xQcASkhSSCIVDQRzOGgF50kc3yu6VgnNxaXK96D4bsB4BkgcSKRUg38EzRo+gZiY+/QaWMzhf5t1+4e3+e1iCTuVKV/PrgvLX73n9woX93n9enmEpQRS4vlKf8W7AlgbhnZp/u+J/V/Lv1lBhLCYsQQIiEqqCWCxpJGmkqIHGtOLZnsZKXL5E8XeIy/fygb33Pva9vKt/8UWy2TLo7GZrG85g13Mc8sqYPm7jRy38sEWedVnD1R5PiUgZT8QMRQLcG02ztozl8obGG0C+2uW+/c3923H59pf9Vx79E2HJqKZYg20E5Rx2NLquLAxFcSSLY1V19ADFCISJUw4RaRSBpgFLrZnWTKk3dzNeA/QXPtX/YvkLH9A7/nkWl8CvAk60ATKkYsw4KOq4cddP+mE6piDlQ7jlLIF+lWhFtMYgBaGB8ZflvmEh8hp+r975hffyXyx/4QN6tz/P7KU0o8B7xDiC6amSzCAcj1EyCVOHWI/ZkGW96ywoaYbiDEiqgNORAfm/YPlL3ewrM74ZdeDd3vx7POvP0MdmxhrcAJGExpiArjmVGgjKMSIpohZlQFKWwHyHwTQHYnHWIBsOjBnIWP3zoHw1QN96O0ss/LyMeY8IvftL/RmwVDNjDcpjQhNME5CplxHVisWcpywbI2k2d82cUsAmBUbH5TYj1sDi6a0gveOD7/6J/3Zn/smwZIAl4QkBqSgNC0ewRoF1JNwwkF+cseFWuFFZNhGSOpkTwTsC95bTfjuE3v2V/1xY0ozcR2DlkUBoKg32U2BClWWJl0NwthifZQ5fMosBzbdg9K4Pvfsn/tud+WfAcmZEBf5TFPJyWVzyhIIAvF4xG5tlVbIAhMwq7IjLzPVl5Qj8439jxPztEHr3V/6TYClhyMzsxCiLofGYMqjuyayKgJabsatmKFLJiYKGX2lQFwCbir9yAvTun/hvd+afAcsZE1BxcNY0WbIcliWwMqEmK2BQHJy1ZpZpNOM6zPa+kWYvG4aaEdiw+nU97W+H0Lu/8p8QS8gVZBFpXmIJfA7AEhyCFcMzWsorQCLN/ovlu39pfsszsx0G2MdmHDyVfm4U5B04US+xfB3IwLDALIfmf7H8LRH6V157NrV5E0u+jKUELMEK7ue4VD/3rkA0go4X+tj/jpf/yqf+m52bwfkaFSqjiGVUo8zDhYvlYgEiOZGvTXzIst3drxwsfym995td8+sv/KcYL1cuaRadK8cZ42R5BisyQ+aXq8llPzspyIxkP6thfNfF5FvOW3kLf+TvPxWWr+7Oz8IUOFbLpKMZYWflzuu15Mv0mrdg9K4P/ZEYrvzv/w8Z5JXYzu4uUQAAAABJRU5ErkJggg==;" vertex="1" parent="1">
          <mxGeometry x="530" y="555" width="10" height="9.41" as="geometry" />
        </mxCell>
        <mxCell id="UdDubUNsqIhO31zFjMTl-56" value="" style="shape=image;verticalLabelPosition=bottom;labelBackgroundColor=default;verticalAlign=top;aspect=fixed;imageAspect=0;image=data:image/png,iVBORw0KGgoAAAANSUhEUgAAAJkAAACQCAIAAACUMV4lAAAgAElEQVR4Aey9hZccx7LgvX/zt7sPrtmWbNmymJmZLLYkS7IYB5qZqbq4kqky92T1zHgE19fvWb7X+63nxGlV14wa6lcRGRkZEfk/MCGYEJTJ7Jh8yJ+V1569w68//s73p5QwSvhvF0b4ilDMKWYUvS0Es5lQQim1D/ZN2OyZPTP7+f3XjGLy94W++8FWzhC09An/B8lYzq4i/v2f6O1X+IcsV975d4IkZOky/xdYvkE9Y7lC7t2DFXr2fZYRrvz79vf+fc/fgfo2yxV+qz+nZflH/vwWlh/q/f/LevkGS8JXX5d3j98DcIUkpR/qOyy9zts6+g7LZWux+nP+xfIXPV59Xd49/ovlX3r539LYP6te/grO3z9Grr5Sf6SNfdfbWWVgrU/0oX/eHDLfsLHvHSwJZn+0jX3LtXrL0/mwztbvZfnW8Pnm08x5fZPf6mcfGuWbr4fpuzb/3TP/BJZvfqw/8NkfzJKy1fDeOv4Dv5Z96b9Y/lfmmm9q4S8O0S/n/2L5B9+wq1/+D9VLTv9iufpi/8HH/1KWH977WX21KPkNQ+Zf4+X7zGlmnAnhvwjlhLJZxOfvPK6+9H/E8Qznrz3+xfL9LC1FyvEbwjCzIdv3Cvlj9fI33Rx/OpaY4BVZDhX/+jdZmdhQ6+8RtiRWk1bJaiV78/gX72bZV5qp45sgOWa/xhL/xfItSpYiXSV2Cef98YRsKr30t9nfLP0dwsTGTCjFlGXyhm5ZVSMzYTjTvCUrin9ZYHmfRmYv8hfLt2j9ytMZSETRimC6ska2onz2BZZjIphilIn9LSYYYQwxtv9naeWKQTYTjhhHlCPCVskyZrKyqmXt7TumdfZn7B/p5b9eMf8sNnYFJKQwEwApQBRiCvEbq6tLusgwZhhlAi1OgjBBECOAIaAIMgIYjggKMAwxjgiJCAkRDgAKIY4xBYRDyhEVmAqrqTh7vZnK2vPvCkN0hvN9j9YGLN9gK3famweZ/Z+NArPHX7mrZ79asUnvt0zv/v8/BcvVIAEDmSSQJZAmiIJVOGdaaBFylAmGDAOGASUQEwAxSDBIKEw4jhjycDIB4RQmHoYeRk4CxmE8jUEASUI4oALNhAiIOcJLWgspg5SBNwXSjOUbrtCyWi+dXK3xbx9jYu+VVVG3f4hzxu/9ZuldirMzfxaWmV2FkMEZSMBiwOIMJ5jhnOU+zIzqMkvIf2EJLEsCEgJiCi1IAkYgbAduJ/R7cdSP434Y9fxwHCYewDHhCRWQSUgFJBxgBjGDJJM3Kc6gZizfgvfGU0TeMuBv4PxvsVwBiWYOwd9DuHL+z8YSAJbMQGaPCWQzYzvTTkjIL6o5M7AMQ5oJIRARCAiMKAwomsCkFfiFySQTpzRx61O/40WjCHiAzFgCJgETCWEJpgmhgLxHI/9iuXKv/KYD67ZYlwdCa2CtRi5LAhhYjXO1di47Pkt0yWzIpCgiyMOwn8Slqfu8N3jW6T9t9190hoWR2/KiYQRdQCLMYyoAkwkTMaURxjEhFuf7lBJkVhf9moHlf+nlEmk7XhLLElEAaQJpDK2BtTZ2NnxanAzCJRd3ZQKa/Xc7stgpiBU7v6QxJi4knRAsjPx7zfFP9eHtav9ebTjX8xouGIbYBXTGMuEi4TyiNCQoIiShv4Pl207yh7WxMzP7ljf09tM/hY3NxgOEM/8FE4BpgmmMLdEllsCOoygT6+dkQiGliNhpIsacIEGxYMRKgribsKaHn/eja1Xncml8MT+4Whw+awf1KR6EzE1YbPWSx5zHnEWMhNYy45jShLG3ZEVTrd/L/r784SxXD5/vP/4TsczsJyQEZNYuJjRG1I6XgMGEw4SjhOOEkZjRmLGYWecFWM9FQqwQVgQrhhUnKoFqGsuaSx91wYWyfybvnFwYnc+NH7aiqsMGoXATESERURFxEQoecOJTFDASZa/8FsuELfm08FdAvmfy+sH18v38ZoPO7PHPypJYltjaW8sSMJQwHGcgI8YjJkImQ6YCpkKaRjSNSQqJJkRTksYwdZK06oqHPXK+mpwuhcdz7tmC96ANKlPRD9U0USFSAVWeUK6UjhATzlzOAs4jzuN3VZMxwPg/neVb05L/C1lmFjShJCbEssxG0BlLq5ER5yGXAVc+1y7XU64dblxmfGYiaiAxmJgQmkliql76YCDONujJCjxWjM6UovsdUnbTXqidRAdYu0xPpB4pPZRpX6ixkK4QgRAR52+pJuAc8H8yy5kn8V/D+Qfp5UqA4zf5sbPxcmZjV7MkJMFZ9AdSDCiNKAuYmBI5hKKTiFrEiwHL+6wcykai+9C4yMTEeMiMoSkH6f0BP1UjxyrwSDE+XU7u92jJSzuxGSPjUjNgpsVNhaaLCXvlo3wAamHSjZIxAD7KXCHGoBBQiBWWMNPO9z4i+oZRXRUptOd/2/zyvRftbQcnu1ZvnVxS2Q/O8s0Ftt+6FLSSq7c8XmY21g6cBGACkWXJQsI9IgdA1Hw6P4aPe8ntZnSjEd/v0WeTtOCbLjAuMRNihtiUIvXTgB6rgMOl5FAxOlVJ7vVpKdBtaIbUjIVpMLNIzJNI3BolF+vOreb4SXu42B81HHcSRQFCgHOsFJJyCSfjs5DQ33t8i9/qp7+B5a9ct7fIvfepxfmhWb69/P0bI87vsLRz95iShFpXCGFCIGEhFlOsOpFYHKMH7fBq2Tux4Byem54tgWst+Wisi6HuY90jpkdNPla3BuRQKT5YjA8Wo5NVcHfICpFuYtPlpqdMnppH0Fxz6Imat/NV+8R881qu/qjSzHcHfdf1AACcU62xUsss3w7srbi4dgL6RtT+bR39xyz/m9ftDVP852H5Ns4MZGJjrRgRG19nMZEeSftAFT32bIBuNuLTxeDQgn+sEJ8qo2st8mjIFj1RiFQJ6pdRen3ED9XxgSraV4ZHa+jmiM/FOg9NAZocNI8ifd1Nz/TpoWqwc65/Mte7Weo8bfRKg/HA9zyQJIyRNF2ll++y5IAuyV8s3xpNf8E5m0MyDLgNnSNqowksITJg6QjraqReT8VPPXKuCg7lowO5YN+Cf6IYXWnA+33yeCpexumjSF+eqMMdub/J9lTJoTq5MhJPY/08Nk8C88A118bpqb462KJ7y9GOxfGp0uh2ffSyM66MnVHg+TBJGP0FJOdgeXKyrI42Or8sHP7OeOz/j/RyBaodDChBlECGIcdAIMARZDbUQyEVEVMOTdsgLYTq0ZhdbeMTleRg3t/5erJ/YXqyFFxqgOtD+pOf3vTN2Yne3093t+WOOt/dYGeG8nao7/j65kRfGaSnu/JgS+ytk32VeF/Ju1B3f+66iyO34XrjyPdhElOy4vhYkG+wXA1yNs39tTDe/1M2dpnlch0Fw5hjJBCUCAgEOUIUY0Qp4MJnckhkE6o5n98fkcstcKLk7X493D03OpCbHikHJzvo3ESdmZpDY7Ozr7e21ca63FIXB/vq3NScG6enevJYkx9s0L01sq+GjjTAyWZ0sxc9n4RlP+xEoQNCHyURRQlfFQn6JVQ7s6sCELkikIgsJPv+1ZL/F1namCpidqnQXhgsIFIQZDitsSUUI05jwV0uhkxVgXjls7tDdK7q7X3d2/Gqt31+uC3n7Kon+/py78jsGJrNA/N9R69rpN/W1baO3j80+7pqV51tL+EdZbSzDPfXwKk2vDxADxyYC2ELgAFMXBwFJAkJjG1gj8SU2vDeEstljbQg1YpAItHfx/l/I8uZY/3moqsdCd4Um1GfyXKqlf2qszV9LDCWGAuSVbYyu0AMOQIMJwwnhELEUSKIL5jDRZuIIhDPPXqzG54sjQ/kh7vyo62F8dZauK2Nt3T5hq78tpN+3Uy/qqmvquq7htzSklvrfEsZbymCXWV4oAZPttDVIbnvstcRrUEyIHhCoEfigICIohnIiLKI8kxERGUmKqbpL0JUYtHapdBlJ4gislp+yVyaTSmWDVH272xgeXux+o0/+UdP7Et8OD/2rdF7OeUmK8WmFFlZhmphZ2kZWRoVFYhISFQmKcAptKKQhUqJXZtMrHrgyIaBOAAChZJ4kg25aFFVgOKhA6603ZO1yb7KeEtptLHirq9F6+pwbYN+2ZCf1+WnVflpWX5R5mvLbF0Rry+ATflobwUcb6LLfXrf5XOJqmDZ49wR1OUoYCCkS9H2GciQioDKgKmAppnogFkJmc6CiCqm0saHM5bQ5inNJEtvWVmcI9YjR0uJhkt0sP3JTmVrd8u5B79xLrca8QdjOeO0rJGI2fQpaDOomBXOsJWsJwAndiicicBEImotVYzSAKYeUE4iPahCbO/6xC70I4QThCOMQ0QjxGMgk1jCQOGpYiOlWlzNx+T+JLrc9462nR310aaqs67ifVWJPq+iT2v846r4qCw+KolPCvSzPF6bh+vz8bZCdKQGLnXw3TF7Fcoa0V2uJkr4KQskDjmIGIqsdbUaGVLpU+XSdErTCUnHSI2QGpPUoXpKtUtTn6YhneHkdkE7y2qBGEOCIIGQLOUuIQaXhGbpgiTjiLHNObOQs7ylJe38b7Akv18v39A2WxqIGIFL61LMBqS5wEJSKYXiTFIiCBIYZm4NUogoSNMQKieSPY/XJzjfB/UpGQA5ZanHREhJREBM4oQEgIVQREDGkYx9kbgSO4oPpKxRPg/Iz37yw8Q/0pvsbjsbG843Nf+rGvisyj6psI9L/OMi+7xA1hTQ90W4owIO1cDFDro7Ii89Vop5F4sR466gFqRAyyxpTCzIIAM5JrpPdDMRlYCUfFyNWBPILlJDkk5Y6tpAv4yozVKw6SoYAZQAFCcoilGQkAjyGMoECmCF27Q0hCFCEEGI7aF17WwO2i+WduXC/qOD5eDa72b5jmm1RhFQnBAcEwaYRDKlKhWp1lqKlBFFoMRAwURBaBc3ANXTRHU9URrgF43obsF50Y2qMe8LPeLSYdSlyKdxQP2YB0CGiQxDEXjc92TipWSqxSCVbZUuUHYvii840yODyfb2+PvG9Ota9HmVfFqmHxfpJwX6VQGvK8JtFXiogc530E8j8tqllYh1AXUw9SgOOIoEjASwwnFMbXQiJMqn2iGmh00DmXxAn4/ix4PwlQNzAaskokXUgOsJTz2uQiYiyhKCE5QkMEyAFwE3BE6EvUQEMI1gGoM0BsKmpUGUIAgQAAjA97FcNnK/0P17Z5YywX43S0KXEhJxtuoPCUqWxDorgAkkJFGKKSVTKZRgyuJEKYIpRBpgGw0fRbI+ofMd8KAaXM1N7rej+ZDVuG5zNeB8zPCUJT4LIh4k0kokvIC7gYyCFHqaTrQYaFUR/DmGt+PwgusfHro7uv6GZrKmhr8o48+K+IsC/q5MttXI4Ra50Ke3J+yFzyux6EE+QSwgJKQo4iDmSSyAlRWWNPWoHhHTxKYIzbMpvtPxbzSde73g6QQsBLSGZI/r8TLLmFFAMSAA4AjgIMZehN2Y+YkMEx0laZSoKBFxQmOAYgATmLFE79HLv0fu3fMfiGU2IWQIU4iynEaAQWwFJgTZTEfGkOBYsGzRnzMpRSqFZkxjrCE2CTYhNj2fFwfoeSu+XfEv5J2b7fixzxeILlPV5mLA6YQDn0chDxMRAOHH3I3YNBJBqJIgRdOUDlPeVCwvyDOK7gB40U+OjMGOLvy2jteW0ZcFuLaAttXo4Y64OJI/ueqFjfOpHkmnVIaUA5tPixIGEp4kPIk5sH4zZYn9rfKYHlBTQeZVYu6O4MWac6Y4uFJ3fur6z6ewBHjGUnl2SZUn1k/AdlzkCeIx5FEirC2J0yjScZRGkYwiHkUkimGcwARCgCD817PM3GubqAHt0hS2VgOgOEZJggEgNj/Hfi1O0Cz3kTIilEy1NkIaki03xtgESLc9ttgDDxvBtYp3qji91I5vu/wx1PMkrXHVFWwskC/ikEcJDwDzAHMBmybcj2UUKuAqNJakq2g9ZcWUP2P8NmTnfXpggDfW0Xdl+HU+WV+A+5vswkj/5JmXiakQ02XGFSYSqV0P4QQxtJw5liSWJQKMJlSETLlcd6nJ2xCuudoHR4ujA/Od08XB1cbk4SgqxMyyZMpjIrLhIWIzdwXCEiIFYAqATmKdRDoJ0jhQUSCigEUhiUIYxzABEEKIkHV/3hov39W/v3fmd+vlbJ6ECJ2llQJilzZsciJiCbL5HTNJEEmsJ2eFUC5UqrRhUmOWAqpiogKsWj6e70f3m94Ptenh0uRkK7w4wbci8QzJMlcdKSaShhLFPAY0gNRD1MPUg1ZN41BAl6MRQ31OO4o3tFrk8gmWNwJ+YkC21+DmUrIhH20rxCfb9LaTPgttbL1NzZBpl6cBlxFjiR3iUZbAMMu0tqvf0KZy8ZDJKdctal4Dczs0Z7tgb360c657rDC8XJ8+HMbFmA+4nlqlZAnDkCHEAODWUIcCBBJ4yoorgSuhK4DHgc9AQGFEYGwT7bFNuccU2Yz8v0fr18//PpbLIAlcykPkgHHARCZ2phXZJSoaYOwj5EMUIhQjjBi346bWVKWIz/IZRUB4KwBzQ/+ntnOuPtlbGR9oeceGyQWP/gxEgadtmU6kiCRLGIA4wNgjxGc0JCyGHEQcTgkcIjigZCjFQOua0ItU/xzJCwOytwp2FaPtuWBfMbzcJU/9tJCYJrJLmBOaulR5VPgky8OjKMlwLif82boUSGjIhCN0nZqnibnim6NtsHVxvOlV71B+dKnqPhwk5ZiPufaYSCiBNpUwwSSKaeyz2OHJmIOhACMBxxxNOHY4dhh2GZmlF1mDnGXEzxY7Z57HKlf21xGu/PZ3s5wtZmc3r02HSZhIuIwzCShzIBpEcS8IO37QDYJhFDsA+YQBqZDWQKlIiJBb8ZloxXBuEvzUm55uTnZURrua03296MQE3Y75ItctqSdKxUoAhhAKCfIZDgWNCU0AgwGFYwS6SdIBqEtYl6saSwvMPInV5SHdXwF7i9HufHCoFF7vkVdBWkpMC+oBTgdYDbEYITaGeAJtkUJE7aKMLU8hKBMMKQm4cKSuUvMgNmddvb+NNubdDfPjQyX3h2b0aIwqiZhw7XMJbB2S9XoSHHk4GuKog6MmimswbsCkBWEXoj7CQ0wcSj3GIsETwSHniC/VLb0T6luh9esHH5RlQi3L2KZUcZ/xEYRN1yv0h4vdwVynP98bliZeIwQ9SCdceamZytThciqkJ5UnVQuRBT+5O/JPtadbqqOtdWdH2z84jG+EdJ6lTanHKo2UskMRiikMOY4lBSQzU1MM+klcD6JKkJRDXIxZHskc009A+sOI7a+ivaVkTyE6XI6v9+iLIM3FuhyrRiIbCW/EtBnjVgQ7YTwGMCDE8iAEYoSwxZmx5BOZlqj5KdLHJ3pPh24sx5uL4dEGuD4gTz1RQelYGE+kiZQJ5yHBHgR9kNTjqBCGC77/aurNu37eDcte3AhhJ8ZDRKeUR1IkUkApkMxSNd+TSvLrCFd++6FZxoyHTHiMOZS2o2ihP3hYrt4rVm7nKndLjaed0cI0LsWkQWVXmZ5Me1wNZeqk2tW6xXguQfen0ameu7E62lCbbGxMd/WCyz5+zdK6NCOlQ5UCRrEd1GJBgGIYU1vGNQJJK4yK02DBCV9NkhcT9DpmCyx9jNIfxnxfFe8tw32l5GgVXOuzZ4GeC9PFUOYDng9IzkcFH5S8uOyGvRh6mNkxglDrVyKYscS+4GOVFqj5MdQHR+nODt9YJ1vr5ERf3HL1i9hUiRlJ4ykTpyYSyiV8CHAtAgt+9NzxHw6nd7vjB93Js547NwgKk7juo15CHcpDpeJUQi2QElY1/4UslxeObc4xoCyxqY7co2xCaTOO54fjn2vNW6XmlVzjcr59vTa61Qnuj8Bjn75M5AJUBeuj6o7SQ2MaUuUJexihM6N4S8Pb1PA2N/3d3ejSFD+DskzTHkt9kcaUI1toCxnFghNA8RTDThLnp+6T7vBee3yrPb3RCe+4+GekbgF9aiR31PiOCt1RJvtq9NxA3Pb1XU/+NMZ3BvGdfnCn5/3c956PwoVp0oywSwTgEmC2MuUDlLpcDISeR+nlqdjRppsa+Nsq2ljHx4fiVqhfIFPhpq/MUJmxMj2qqjFbmKLHw+h2x73aGF+pDS9V+jdro/ut6fNesDiOax7qxnRCeKhknArLMuVIcFsTOCvYxjbM+T5ZUcR3DrKE/d8VK1jGSUC2JBQx5lI2prSRJK8n03ut3rVK92y+c2KxdyI/OlFyz9TDi114bUx/8sVjkM5RXZambUwt1UWVPsHivIu3t+MtrXhLM97dSS6M8cOA5YBsY+WyNLKZzbYBhO3OImy++QijWhQ9G46uV5sXSq1T5f6x6uTsMLkcy/ORPjjUm+vppqraVJXb6/LIIL3gmfMTdroTHa9OTpSHJ0v9i7XRna7/woHViDpEJTxNME8SnABs8+cpd6jqMP0iVucG5Ptysq6cfFUC6+vo6JjfBvoFNSVp2tq0UtNUpoDVM5fe7oAfat7J/OjwfPfIfPfoXOd8fvBj1XncDuaHSXWKuhGdEBZIEaccao5TjkVWNWZZCvp+eX9fhaxAfwnt72I5a5Bm/T2rmjad3GNszFgTogUvfDR0brYm5yrjo/nxgdxkz4Kzr+AfrETHWvD8kF735c+JeknSgkjzSue0eczTCwHf0cNb23BLC+xqgbMDdNchr0NWB3JiQ9jSFk0ygTnHkvuMDjAqR9HD/vBisXYsV9u32NqR7+9vBUen7LCb7ujr9Q2zvma+q+mNDb2rp4846cE+3l3ztuf7u3LdvQudE6XBjU7wzCGVSExomvA0RjyOcZwQO9UnckxUE+snvjjZQd/kw7XF+MsS/K5BjjjiR6QfMzMvTEnqRaZfk/RRKG4O8NlqfDTn7n012PWiu+9V79Dr/rn8+Mea97gTLYxAzSU9q5cskCxWDGqGUzZjSajIWEpK3hLxblOF1Wdmru8HYGm1c5mlz7nDeY+yOsL5GDx1wa1hcrEdHa/4exenu3Pu7kKwpxQdqicnO+jikNyc0p9D/hjJZ0LfY/pMILf12eYO3tSE25vJ8S64PgRPXFyMeR+rKVWRrbKTkNu0VY+xASaVGDwZTa/WOyeLrT2LrU3z7S1lZ1s72dKlG9rym4b5pm6+rpl1db2xpbZ3xfYm3Fr2tuRHuwujg8XR2bp7ZwBe+aIGlEN1zHWMRBTTKGExkhFOBzCtxumDqTjexusK8TcV+E2dbuyKw1N1BZjbUN8H+mGS/uSLGw671EOna/HhfHBw0T2w4BxacE4VvYvV6Mdm8qiH5kak5NJWyAaAOYT6gkaKgpSilCLBsO2U8S9lOVtAW2EZcOEKOZFqqFRPpUWaPk/S21N+tpXsz7k7F6Zb593N8+62RX9nIThQiU40wcU+uuHzezT9keoTgdo6FJs6dEMTbq4nh1rRxU54b2zDnm2kRkQFLI25ykS6VAwwqyX4hRPc6oxPV7u7Fpvfvqp/s9BfU/DWlMGaGlvTNF81zJd181VNr62Kb6rk23KyvuBtyk92l6bHqt4PnfjnCV2MdRPpKTMx0xGSYcyiRERQhUh347QQqHtjfqyFvy2C7+rk+47cOtKHXH0+NpdC/YOXXprI0116tA4PFKO9i/7O19N9C97hXHCqHF9pkbsD+XSs5qeq7KlmJPtAjDGfUupxHEqcKAxVVtr052EJMxsbcu5x4Qg5UWqodJPrAjYvYnXPIVc68dlGdKQc7iv4e/L+rpy/Ox/sL0WHq8mpAb0YqnOxPuCmm0fq+y77tgHXV6Pddf9Ew73Rj174pI7TPk1dloY8DZmKqHSJGGHRBiznwcej4FrbOVrpb8u11+cGaxYnn+fDz8vk87r5rGY+q5jPyumXJb62gL4rJFuK4e6Sf7we/dABd0fEKiU0fWw8amKqI6TCWQgVph7UzUDNT8TtLj1WR98XwIY63dRV20Zmr5MeddUxRx4b8iNdcqAO9hSD3Tlv76K7b2F6vBhcrMY32/jhkM95uhjoeph2YjUAYoLYlFCPYd8uyyDLUhLEbeMT28Tm/YPlP7Kxtn0G/b02dqaXmFhvNqEszIbMKecTLkZc9XjaYrpGdAHK+YQ/dMn1PjzbSI6Vw/15b/eiv2Mh2LYY7a7hgwO1f2J2jPWGsV7XY2saYE3F31yZ7quML3b9hz4u07TNUru0xJRPZUCEh+UUqSGQjZDlPPJwFF/uuIdro+2l0TeLw88X3c+K6JOq+bhiPiqZjwvp5zm2dgFtyoO9JXCiBq92yYMxm/NlNU4H2DjEhFQnRMdIRYkMgQqArTypTuXzHr3RQMcqcHMh2VyjW7pq61DvGKpdQ76rR3a14c56vL3sb8tNdi5ODuSd40X3cj2610Uvx6zoyXasB0CPoZoi6WHmExzYsjIY2vU1FEsMBIa2QTi1rb1sj6F33Z9fcXw4tS2N7BTzA7OMKPMpde3MhI+oGDM15ulY6lFqhsZUiHrus9sDfKmZHC8F+3L+1rlg/ctwQx5tqslNbf1933w3Mmu7/PN68lnZ+7Y02VYcnGy7d32UZ7rB9YCnDlMukR4SPpI+TF2oh0naitWiz+5PwKW+f7DufJ8bfLXofFaAH1X030rmP/Lmb4vpFwts3RzckUPHq+Rqmz0cy1ygG8AMkNXIkOqY6ATrGKURVAFIPaBHsS6M+YMGvlwGR4tgWz7ZWiNbO3JLP93U5RvaeEMTbKhFGyv+pqKzeXG0Oz86Vp5eagT3emDeofVADpLUxzoiaZZEwhObwQ1jBmJuV0ljAWNhaxFXsfyl09Bq7+ZXj2csP0BegdVMTCjK0tSWWdJphtNhfMrFVMipUo7WHZGWkHwZ8vtTen2IznTQwRraVsQbCnRdga8pya/q6Zdt/XlTfFpDn5WjdRVvS8U51g1uBWSO6xLXbaGHPB0T6UDhQRmiNETaxXqM0waUczG976OLw2h/w91UCb6p4FurWJIAACAASURBVM8q6ael9ON8+tmiWrfIti7ioxVytcMfT2QuSDtIT4jxiAmJiYi94hFOQ5z6KHWRnkDdjfXciN+qwbPF5EAh2ZxPNlXwxib7vsXW1dFa+wmjDbV4az3Z1YgPNKJTnfjqEPw8RXMBrSdyiJSLVIwVIBIxgThDnNj+GtwursV2fQ0kHM4ygLN0KNs37FexvVdBPyxLm5llE0JmLD2rmtQO74z6jAacBUr4Op2kaV+lDZEukvQpVD8G6uxI7WupjSX++Tz922v6t7z8qKI/qoiPK+SzCvymGm2u+Uf6yfWQPeNmUZiaMB2u+0SOAHeh9TMBMTEzkTBjrps8XaTyXkDODZP9bbC5QddU1Zcl9XlOfbUoN+f5gQK91GQPJ7IY6x7WoTBQGsAz02pB2kUbn6Qu0RNs+sg0Ev10yC6XwbFcvDsXb8wl3xfht1X8dRV9UYg+WZh+VQi+ryU72uRQn50Zi+u+fARknqoWTydCR0InVEEsMOWUcyoZEdhminIAeZLYtgyzwm+YBYGtSsxmF/9FnH8ISxZR6lHiUuoy6nLmMeIzHHAcSB5o5ep0pHU3NRVlp2UPkLkSmONjs70p1+bZJwvso5z8W1H/rSj/VmQfF/GacrK+Eu7tgPMuvQvT51QXhGkI3WE2LO4SFVMNmQFMxzz1hB4q3VD6FZK3fXp2RPZ12Pqq+LbEv8mx9Yt0f5ldaPB7A7Hgqw6yiVhApFikkKUJSSOSBkR5xM5MRtR0sKlCsxDqO312qgT25uKtueTbPPimCNeW0Fcl+EU+/mzB/6YYb23iA31+xlHXI/0AmTlmaqmNBNmontQJsywR4XZbGzvjQJgDu0w9a8hA41kPI2Trn3DWPizDubSfzWxXm5XH9yrlynj5wWzs0hQzoGRK8JQRVzBPcU8Qj0GPI1/SQEtHp4NUt5VluajME2ZuQXMhNIfG6da2WldVX5XTTwr6bzn1Hwv8P+bJp4tgTT7aUksO9/BFl91N5GumK9K0pB6K1BU6FhpyHVMVYulR6ch0kJoyS59D+aPPT/X5jhrbWsKbF8HOHDjfIA9GcjGbGIyhHXFtBwrMIyxCLC1IljpcD5huM1NC5mVs7rn6QpftK4Et+eS7PFhTgF8W0BdF9GURry3hdSW8pU7398QpR10L0wfYvOLG3m3K9IRxuPGZDomKcZbQZZMsUNbAyDbXQDTCNCJZyXBWmghXpVrOYuW/PNrtNAjLwl3ve8wcH0I+HEuY1WX5BDsEThh2FfON9BRxOZgy4EniGzFJVU/qprAs86l5qczP3NzA5mxkDk3N9r75rm4+L5iP5tN/eyn+13P6n6/gp3PxukK8rQYOd9FVnz8haU6ZhjYDY1xtw9lQ6IhIL2Ee4r5QvrH1eBVhnoH06pgfquF9pWTPYnAkH9zp4XKc9mDqQBFAFiTUj7EfEx8wHwmXqinXI2Ha3FSYeQnNT765MNIHW2xzCX6TB18V4KdF9GkBfZLHnxfouorYUtf7uubk2FwOzH1k5qQppaamTEuaHjMjYhysXZwGWIaYhQRHBEYkiUkESIRISEnIiM0Rs20YsnI2ajXzjc5/K/mvb7V3f+vp7M8+lB9r0ygTSnyCHAIchjKWaqrYhMERhUNOhoI3CSsm5HWInwb4QYBuefjyFJ8Zk6MDvq8rtzfVhnL6dS79Yk5++pJ//IJ89gp+NRd9l4+2VeIDreR0P7kyTu558EVMi9gmOo+YLVV3sBon0sHSE6lvzCC1w+pLmN6cyOMNdqSCDhXjU+X43oCUI9mD0sEiJNwK5gEWHpEOsamRHaprWC+C9Fmk7kzFpQE/1qJ7qmhjIf42H39dAGuK6Ks8/DIH1uTgt3m0qUh2VsjBBjnVwVdG5J5HnwTsZcgWQlYMeS2SrUj2YjFKhAO5h6nNECMwJgnAMcIRzYThiNlM7oRiuJQIvQJw1cFb8N56+kewxD6BDk4sS8l9kzqSDxnuEtgmuEFYLkLPJtHdnnej415quqfr7tGqv78S7q2AXRW6vcw35+X3C2rdnFj7kn71Aq99BdbNRRty4bZyuKcW7q9OD5VHZ+rjm4PwqU8WY9FAqa2cRbqX2Fo+V+jAmGFqmtLMQ33HUWda4lSdnqyiC3X4cETKkeghMaUiEiIWMhYqEOmUpyOuW0SXkJmL9UNP3hzx811ytA53l2xW9IZcuD4Xrc8n3xXht/lk3UK8bj5aPx9umAu3zAc7F/z9Of9EObhYj6634jud5EEPPBuiuQkpuLTqs1bI+wmfIO5Tm/AXYQhs9nZMUESRzam2adU2exGQLLXS5rG/8/MWvLee/iEsAwKnJJky6EnmazXkrIVgOU4Ww+S1Dx6Nwltt91J1fKY4OpobHFgY7l0Y75x3di8GewpwT4HszrOdOb5jke1YpDtyZEce7Swmu8rxnkq4t+rvLox2znf2L3bP1Jwbvfj+BL/0RD5Ky5GuxaaDzEiYqTYDZVkuIH13mp5tp6cbtmvBhSZ+MKalmHewGHPpK+mp1Ett+4kOS2tYLSTqSaDuOPLKgJ9pkaM1uL+U7CpEVorRrlK8pwz3VvHuEtyZT7Yvhtvm/a2v3e2vpjtfObtfTQ7OT48vemcL/qVScK0S3GpE99vJkx54MQDzI1j1SB9wl0qfsAiTBCOIAbb8lohmB2DWMnWWzf4WzfftB7cCdOlvP5iNzVoKoIgCnyYeA54gU8lbEC66wZOBe7fjXKtPLlUnZ0uTE4XJkdxo//xg39xw79xo7/z4YM47WoyOl8HJMjpdIefr7FKbX+6JH/r80oCd66GT7fhowz9YnuzN9fct9g4XRifK0/P16GoL3e6zxxP5OtBFYJrM9FI7XFWFeQ3Nrak+1dbHGvJIlZ2q058mfBGqGlNtkfZl2pVpW+gKSedi/sglP47wxS4+2cJH6/hABR+s4MMVfKyCTzfwxTa53KVXe+xaj19ps0tNcq6GTpbjIwX/cM49tDg9tDg9vOgdXfSPL/onc/7pnH+u4F0supdL02sl58fy+EU3bAR0SlKPyNB6WzRZqlAAiFgdzeosAMYznLMmuLOxc+lxtlvj33v8sHppMwIhRYCCmMUhSzyOJgyXgvBR17lW6Z9Z6Bx83tz/smP5zU92z412vhrufjXY93p4cG50POecK3s/1MLrjfhWCzwY0he+nAf6JdTPoL4f8GsjeLYVHK9ODxZHexcHu+YG21/2d885BxbC40V0ucPvu/pFYvLE1KR1fIrcvIDmxtQca5tDdbWvzA/X2A1Hvs5mNWVpKtIUuU3xepbI2w6+0ImO1sJdxXBzLtySS7bm0d4iOV7lF5vydl89maYvPf3a0/Oufumkz0bqQZ/fasPLtfB81T9T9k4UvWN5//BCcGg+ODjnH3jtHng1OfByePBF7/Cz1rGn9VvlcdFBDtEu0b4NR8iI8KwdA0ooBBSALFMREYAsTkt0dROmVV3iVtrFvXHwIVmSpUIlCEiSkCgksUeBQ1HJCx91JtfKg7OL3cMv2odeDw4vOkcK/tGif7zkn6r4F2r+5UZwsx3d7SUPB/DZGL12SD7gFaBqRJeJzpP0ZSJ+9sjNEbjci841g+NV92De2TU32vXa2fXa3zsfHS/Di216Y8jvu/JppJ6D9AXSP8fmB8cc7pr9zXRXVe6ri4tj9QDqp1g/Q+o5kI9j8XPAfnTQhW50tOruLXpbc/6mxXB7Aeyp0BMNfqUj7w3TF1NdjEwtNvXQNANd93XFSwuufO3Qx2N4fwhu9cG1TvJDE5yvwjNleKoIThTi47ng2ML02Nzo+KveiRetO9VJcYonxEwtSx1gFRJbrZCVH2U4bQlRVmHyfpZouePfGwhXTn5glhlOCHGcwCBEoY+TKYYVN3jSmfxYGf5QGJ5eGJ7OT8+Ww/N18EMHXR+QO2P6cEqfB/R1wBZDXopFA4gulj2i+lleSIuqGpEFJOYS8TTkP7v09oRc6cHT9ehQwdu74O146W174e16He5biI+VwPkGvtpjNyfyp0DfCMzZiTnYN3vaens93dVITw71tcD8GKQ/evymQ66O4KVefKYVHKlM9+bHO3LOlkVvaz7aX8Un2vLqQD2cpguhrsamB80ImnGsJ6Eex3qc6CFM21DVkMgD/jriT33+s8NvD8SNrrjW5peb7FIdXajE50v+hfzkwuLgftMv+XRMbQTfw1Y1AyJDKsIlnLb6JksYm1UJvauX/2yWtts5RFEC/Aj4AYw9CBpu+Ko3/bnh3KlNr5e9G/XoZgve6rP7jnwa6jlgSsQ0symdnZBx4yodaR0q7YnU4WrIZJfwJhFVkhaJnod2tnDfFdf6+Ew9OVwId895W567m5+6m56421/4+xbiIyV0qs0ujNVZRx8dmT0Ds6NjtjTN1qY50NOnJvrMSJ7pk9MdcKIRHal6B0vTvbnxzoXhzpyzu+AfqCRn2vT6WD/0TS4xHazHRAdExzgr6olUAlNA0oTrQOolP4vbb7GQmOeBeeyah465PzZ3B+J2l9xugVuN8FbVfdaPqyGfsXRtBFj7RNmCTlsQaINliU3+wzb5z7qywGbmLnUmX+rDtKKC7z34b+vlG2PyqjZQNlcEoRiAIAFBDOMQgVGUNNyoNIlzo2R+COfHeH7KFnxpnU+o69jmjw+4HnI94haeJ1QkZSikz4XHuMP4iLI+5V0qW1RVkMoB9SoSjz1+b0Kvd9GFOjhejA4s+DtfTne8cnfMBzvz8e4K2tNiuzpyWzfd1DUb2mZ903zf0Nuaak+b72/Rgw10uJYcrsZHqtGRSnC07B8reeea0bU+/MmhT3w5F+sS1B2cOkT5RMazxs+QwcS2uIWYJ0QETLpCjXjaY3Y+U0emDEwxNoXI5EOd89WiyxcdujDBCyNQ8UgXyAnTTlav6dl8F8sypCKiPCbM1nzb7PVZSeYSv9U434tw5eTvYfmeN5t1QMMoQSCEIAQwBiiJIPIhcSFzAB8DOYJqiNIh1kNiY54TZpysp53LU1dIj4uA85CxkNGQ0cDGcm10fsrYhPERE10iGlhWkSxBlYfpy0A+nPAfu/hcJTo47+x87Wyec9cv+Oty8doiWlNha+pyTdusaZk1TfN1I11X5euLeFMRbi8ku4vx/nJyuApO1MDZBvihCX6ekEUgGjztCj2UZipseUJCOSAU2XJXWxdLIbCmB6EEkRAzlwiHqglNR1bsN7JC9IjYdZsxSsdQjYEcAzlByqHK4emUqylTLpN2CXbGkliWYKnVE82mljNteeMir2B778F/j+V73mb17ZNtRBAjGNvvi0CWMUxtQ3MiEiITWzysIqZCli6LCrgKbLtCCzJgPGAssCB/EZ8xl/MptwuiPSw6RLZpalvZYb2YqGcevzWA5+rh4UqwoxSuL0Zri+CzIv64xD6uyk8a5tOG+axuvqilX5X4mhz6Ng83F+DOEjxQw8fb5HyPXhvSu2P6OhJNqiYqdVUaKBVLATiDjNiS9Jnds4NagjGAGCV2bwXmU+nZKobUY6nP0oCnIVchVxGXMZOJrXrPhNgsCJ9Jl89EuMxm6wd2vOS2W/gyy1kXlQzMSorjH2hj32X5psm1+ftgJtaxzlpmZX0Xlso0Z4UTli7lCeUxsxIxHnIecO5z7jHuce5m4nHmc+bZk/b7T2yCD+8T0WfpQNrFrwbTRayex/wnj1yakCMDuq1Dv2vyL2rio6r6z2r67xX9nxXzUdV8UtGfFcWXebquSDdX2J4GP9oT5yfyuifvR/IFkEUk21SNmZza+4lGNqqGwBsbbNgu/tm8iyS2ga2ILDwrEbdZSAmfdUFkWW1/1mY629YCETbLuPAZ87Lmph5jPmPZSMkyA7ukl38GljMVn91PK/u/2BK05Q0LlregmG1EkTXrmeVjzorhE9tMlM1yhaZcOlw6wsqUCzdLIPJsRrx0iM16GhM+4cpJzVibkTZdY8qpea3MXWrOx2bf1Gwami/b5qO6+beK/v+K+n8V9b+XzH+W9McF+Vmef1MWWxrpvq455ZirsbmPzUthyto0RNolcoT4FOEAgggltrCexomtWgHJcj/imJNYsFiIWKpEmUQaIDUQKRQCC4ptM41sJZdCTqzM6lMQQQnFIcN24ODZmi6joe28actibKa87VXBMpazi/nP0MsZgtW6mO25tGpflZXuJ7PNV2Zt/mZNqbJNQOxWILaAwG7WRGzJH2WxLY2zyjfhcsBVX6Q9K2rA1YhLm2jC1ITaPLwBlgOqRiIdp2aoTd+YljYFZV4IcxuZM4HZMzYbe/rLRvpRVf17Sf3PvPzfhfQ/SvpvJf1xUX1a4GsrcmMz3d03x6fmh8TcIeapMDltakp3RTpickptSo5Pscewy/HUVmUTh5EJI2MrbGKT05QrUz81YWoSZYDSUAjEKbLdRRG1yU+QESu29gtDnG3QYLNDaBaEtd1mZvXj2AZhrflaumzLBvafxHKVFs6yQ7J7aqnqbLlTzyyF3u5JZxsvWVneiidrHDe7Ay1QBu3gbzuuOFQNmI2rNYVuZNLiusN0l+k+1YOs9UOP6B7VfaGH2vR0lvOuzYI0T7i5CcxJ1+zsm+9b6Zc1+VFJ/HuB/89F/m95+Z+l9KOy/rikPimIryry+1a6Y2COuOYCMD9S80iaOWNVs5vaIqSplB5nU87Hgg+E6HPR5aLNRJPyOuVNKtpMdXk6VNrRxtcm1gamGkoJOYV2MzKUtRlfags/O8bExurgW4JtlMd2oLCwlzqLZEzf8Hpm7sh7XZ6VkzMkvzMea3VvuVHqsu7Z9lM2FYJkQu3tyrPOMLOG5VnT3FUskWUpfWK7rLSwKiKZQ3IRqQWkclAVoCoBVUlULUlrQNehaWDTYqYt7ZJvVZm8NM+pvgfTy0F6dJTu6KTf1+WaMv+0QP+Wp/97kf5HQXxUSj+ppJ8U5cd59mWZfdsQW3pq/0SdCtVlkN4h6WOhFmXaSPVA66FSIy56Fp6oElHCIof4AmBzCX0VkYWE5aGoYJsFMki1k+pA60TrREpgiynt5hxZz1vb9naVAGz9ptUSYxxnZ2zQ7t0J5WqPMksmf3/EZ4bz97O0C9/WplhN47aDGLaV3TPJ2mdJjKVN412SJaLWCNkPNvsA9hUS2wlJDZAshuTxJHkwAfcddM/BP0/wwzF+NCKPh/TpkL105Lyvc7EtNy8S28l3DptnUN8N1ZWpODMUhzpiZ11srLBvivjLAv40Tz7K00+K/LOK+ryiPi3QjxfAF/nkmzLcUEc7O/jgkJ506EWPXg/oIyhyIq0pXeWqgnkesNcReRrghy68NwF3hvGtfnij698dRo8d+CogRcBbTA2Emkrr90ZCZF327V44tnnDqh3m7DGxgRTb7WdJrHuYucPWMf6Xs1xqzmTH+kwRM4R2P4LVgrEiSBEkrcw6o836ca3aLhITkpWSqx7kr8bx9frkcn16seFfaIQX6+EPtfCHanS5mlytgjsd9nCcPnXN89C8SMyT2DyIzB1fXx6JU21yuEH21cjOMtlcROvz4Js8/KqAPy/SL8r8q6r8siI+y8NP5vzP59y1i963BX9TOdxeT/a2wOFOcrKX3PTIU6IWhH5N5MuEP/LJnQm4NogutYOzdfdU2TlRsOt05yuT6y3//jB+5eMK5G0ih1khacBFbJsVLKnmbC+j5e03iE0AsVuw2Er2rJUTohZqRvSfzvKX3JOl/eKW2vrYvUEwse2zMFaZpBgvCcIpWjq2DdGs1lp/1t6ltmvYLL8lK9MHtkhYDhCbc+KbzcnlmnOuOj1V8U5V/JPl4GQ5PlkCp0r4fJ1faafXe+Za38oP/fRiT53tiOMNcrACD1bQoSo5VKP7a3R3lWytkO/LZG2JrC3TrytsXZWur8CNpWhLOdxRDndVwt3VaE893luP99XD/bXgVC/5YYpvBuymz3/0xJUxPdcFx+vR0UpwqOgdyk0PLUwOzY/OFKdX68G9XvJqiiuAt7EYUjG1Uapsndk2NVpyapLZbie2GcmsGZdtZGD3H7Ocsz0BbdQhC9vZxefVY+TbAbwPZ2MttneFLRcIzoZGSYgiJCU4JVgTbFu+YKIR0dD2fkkBlgBxYNtS2HUdG0e2XdSzbmMMQkESyceE5r34Xte51nTOVSfHSs6RknewFB4oJvuLZH9RHCqpoxV9tGIOF83BvNmXV3vybFcO78qBXbl4fwkcr5GzLXG6I0515eG22FGn35bxtxUrG2p4dxMf6+KTXXS6A0+3wfFmcrgR769Gu8r+1oK7s+LvaYT728mRPjk5kke6bF8N7ixEO3PhroVgz7y/b947ODc9U/Cv1aKfu+C1Q6ox7yA+Ityl3CXERchHMEAwRNBmZVE7B42ZjLMWGwlWwPYVkQCKBPAEsMRGBGe9Q2zHtGzUyXok2GDs2zhX3Jz3HvzG8XLJlr7TEIHPXJvlR8uSkpQSTbEh2CCsAUoTlNryDChDmy7FA0gDaPehjOyaOrQzcQaQAMCWyDCH0XKUPB75P3bdCw3neHV6qOrvs9cabS/xrcV0W15vz5mtC2bTK/P9M7P+mfzuOfnuBdz0Otm+EB0qgXNNeqOvro/S6xN9YZQeaPONVbyhAjdUwLY6PNYj1xz+o8NuTeitEb7cQ2fa4HAt2lX0NyxMv1t01+XcdYVwUx3v6KbbmmJjEX83H2+cj7fMxzsXov2L0dF8dKGS/NiEj/p4fkprCe9APsTcIczBZIKgA+EUQhciDxOfchsYItLDykdpgHSIdJT13oqALXOIEgGA3fvRtg+xVaW24WpG8T2u0HsRrpz80CxxppdEE2oAToOETwI89HDXRR0XdX3cDekgYSPEHcKnlFujxGkoSCxJpFiYyrEUVURfBuihB2+74KoDzk/Q8TE50Oc7mnJjWW8s6A2L5vt5s/6V+e6F+f5VumlebMuzfWV6rEEudtntsXjspY98/TAwP7rpyb7Y0aBba2hzNdlZS0534a0J+XlKH03Zkym757CbY3qhT4420c4y2FQC35bANxX0bYN930m/b6rvKvy7At1cIruq5FCDnOmSqyNyx6GPPPYq5AUgGkS1iexi0cd8QPmQsSFlfUK7iHYgbQHaTGgjJHUPtwPaD/k4li5QIUrtqgtSCVIJ5IndudV2N1yejcx2gvjX6WXmtdpGhYhqxE2I5ChAzVFYGQS5nr/QD/LjpOjafoAtJHss7fN0KNKJVK5tDcl9LT2djlJd5+kCUq+IesbUA6Z+JOoiSo8G6Y6B/q5m1hXN14vm6znzzWuz7pXZuKi3l/T+enqyl16epHf99IVtja8XoVnIWuNfGqt9bb6rgbdX4z216HwnuT+Gz6dk3uf5UL4K1ZMwveOq8wN1sCl3NMT6Ol9b52ua6qu2XtvUX9fTb6vptlZ6oJeecdIbcfqIpi9YOs9t/W9V6JbQLZY2iWwi0Wayp9KOTBtMlbHMJ2w+xK9c+Gocv+gHi6O4MsWdgI8TaVfQqE6YBkwniEeJXfKFcAZvZl3/KL3M+p+/PV7Oiqp/qanHNjVbQiJt+yWeOpA1p9Fi13nRmjyoje/WnPvt4Oc+eDTBzzz2MhJzsVwEqohUjdhpeEeortRNaUrc5n0/Z+YRN3eZuYLTk0Dtc9WmnlpbVV8V0y8W9JdzZu2cWTdvthTNvro50TVXHHM/shmtRWKnnjVqysS8SPQ1Rx3qiL0NvKsa76+GlzrJozGa92g5Fk2YVqDOQfM0Mjcdc7qn93XSje10bVN90VSfNNSndfVFNV1bSTc20l0ddWycXon0z8wGJV4Km3SfF6YkTJHpPFE5pBZJumBLo/UzoB5G8q5HfpyAG4PwRse70XDut93nvTA/Slo+sdm52VWCIk0o+z/tfQeTFEfW7X9+L95+u1pJIIQQAgY7eO+NhPAgCRAIhPDMTHvvbbms9KZMvrjVMwhY9hOrRdKGYicyarp7qnu6+vRNc/PccxCliGDCYD2adbAvj6/Oht7nXvQ/zmNfg5ODBi7kygNpXGk6mOXG7v1m/9tK70K+ey43OFuanqmis/XwbJN82aYXuvzqQN4cq3sArX5OogWeLkj7VNmH2t4V9ga1X6P0mGN2DeVcR3xWlx8X1ce56KOFdPULu3bBfrFod5btsZa9MLS3ffuM26KyLWMHkHMHH5nnOL0xiY609IEa21MOD1WCK23yaMwLvmrRaJilkxoSzC1+8O3lkT3WT3d003WtZFU9+p+K+mtJ/b2gV+X1ZwW9sah2NcyJUXw5tN8Qe5vae9w+kPaxgjTFTzy9z5LvcXoDpZe95KtpdHqkj/fo4VZwqO4cqYyPl/rny4Mb1eH9xmRpGHQCPmEq0IYmETEylBljVmTm2D/D+RqQ728eOxtY3zwuV7HM5kRMgHcH6BVINRKyivCjweSbWufLQvvw89bup52dL0Y7ltxti97mBW/zgj+fD/eX6fEGP98VN0bqphPdQcldau+K9K5Or9P0Sy89PEp2dOS6Gl5dxh8W6V/z/G9L+oMXyccv7NoluzFv99Xs2Z79xrGPiK1EwMAbp9ZNQaGlo+0iSb6dRMea6lCN7SuFR8roeoc+m8haaEYyCRLrxHYU2boExcJbjj07trsHdn0n+aim/0+B/98c/8sS/9uC+PAFX/WMfZGTu5vRibE959iLvr2G7LfE3uL2JrffcnuV2i+99Mgo3duL59t6c1NurOL1JXd9YbQp19+21Dmw1Dqz1LxWaD9sjytOOCDM05JZTRNOYAIE7pArzthvjpS/Sw7vlY53liLHSmXeaabPZSHAD0bejbZztjw5nJ/szbk7csHWJbR5Cc8tka0FOl9ieyvsSJ2eatIzbXauy871+bkhPztmxwfsQIfNN9lcDa+roE8r4ScVCkqwRfVhzqxaitblo7lidKAen+8lt530OU4b2g5jgCeI7cTYnrI5nNwcmxNNeRiYruhYGX3bYQtT3QzjqUxxbH3YcLYgWkjs+ONoigAAIABJREFUj779epzs7UbrG3p1Vf5PWXxQlqsram1Fry3ItYtifU5sLcs9TXWgrY/09ImBPj3W5xx9xtEnpvrIWO/t6a0ts6muv6irz2tyfZWur6KNFXdbZbK7PDpRHV1tTu51nMVx0AzIkDJPCZJImnAaUzpbry27nP8hWL4SqVlddGYsaCIeJ34Ud6TJUXXf4Ve65FQ9PFAOt+fDrXkyl+ebCnKuIOaKYkuRbi+GO4vBzoK/q+DtLLjzRXdHydladOYKzoaCu77orSv766rh5w32eUt9WlOrSvKTolxfUpvL6nBTX+pH96bxEk66CoAJItiEcjXI3RVwcntkTjbkkQo9WETHS+hmh+fdqIMTT6TM2FBbX9mBgHquZ6G9Mo72tcQXVfZplX9YFWsaakMn2tqNN9XNF0W5Psc35OimPEx3t5XpfJXtbLDdbTYPkid0rkE/r7LVRbGqKFaV5OqKXFvj6xt0cxPvbAYHm+75XnB3QhY8VkGsS9iYgw5cGAsCaZUsUWbAk3em7f163mC5s325/HjrjRkU/2ZufRnPLMMuqdTCRCpOSJxOYI6XLuDoB0ddHYhzHX6kzg7Uxe6anq+ZrRU9V5IbC3RjDm1YdL9YmK5/Pln/fPz58/G6F6PPF8afL03W56cby97mGtraItu6YnvfbGzJT2v80wr7osK2VNixlrw+NI+9uEySkbK+sdhYZqyvgatRDJPbI32yLo5WyEEgUqNbXVH0kh4YJlquLJEgQzzltsVsgdhvx/pQg24qhevKZHWVrW+rHcN4v5Pu7sfbG3pLWcwV6cYchkqEPN5QwBtKeGMFr6/gzyr4kzL+uEg/yPMPCxmQsKpR8z15YCBODNmXQ/ydw56Cz4JuUzGkbMqpJxkynESQJRMxzB0hc5Kl4/94LLOdDyWkkSqiICmQDETSYHGBRM9C82Ngbnr6qmPOT+KTw/hgx8zX5JYS25BH6xbczxactS+mny5M1y5O1y5N1xe8uXKwvR7u7dAjA3FsrI5NzNFpvLOvNrTYujreWAu3VNGpLvt+qnNh0lmpiuUm5Qa8CUYrWJ6osyMVfKAQHC+h211R8pJ+aD2aMpZSZgmzPrMDZuvU3p2oEw28rehvKPpri8HmFj04NWdCe8JNjo7iQz2zv6P3NOWOmthcZhuKdH2ZrKuQtVW6pso+qYrVFbWqotfWzVwn2jWMjkyjr4LoWmhuIX0PqWehLBHRprxP6YRgh2KP00CyUHEK+vMCdu1nKXjg473Z/jEN9Dres7Xpe6rZgyQtDJ+ggzuTwg1p5LF4KpORSXtx2ojTUpI+0+k9bm+E6dlxtL+ltlfYhny4ZsH7ZMFdteiuWnI/yXlrCt6Gari9xfb31ampuRQkV1F6BaUXg/TIRG3tkQ3NYFPd21J1zvbxA183OFQ68tiqOFUmlTpBKh0JWwzjWyN1vE4PV8L9K1iWvaSPrBumBKcMp5xYTK1DQbLg4USeawS7CtMtuennS5P5JjrlqavSXmawZX0+SM866clxur9rttXEhjL7rExhFK/yVXW5umHWNOK1jXSum+6b2NOhvcbsfZ0+j9K8SasgP2u6nA8pnhDk4sAjyKfEn7lsznaus5TPbDtltnPy+vHtg+gKor8FlssmCCBrTFiMeOKpdBqBVtysfvapSO6E0WVHn+rLfQ2+tUzWF9Ani97qRffjJXdVzv0k735a9ObqeHdXHB9HX3vJd2F6C9vvUHrdj0+O+Hzb31x3djSc3U334pA8CXSbp1OZUBULHQllOHCiooGI86H5biiO1vGBMtpb8I4Uof4S+liUApZhwnAqiKXE+tSOqX0+kVeaweHiZFduOPeiv7fqnBvTGyT+hiTfkPQ6tpeRveDbYwOzsyE2lOnaEvmoiD+q8I9renUj/qQer6nGG5vx3kF6yrPXMCxaFg0UO7Qj29fxSKqp4B5nASeIUwS7l5l0MhC3ZoRK4MfOeGKvA/kW6vMKirPR9P1iCbseWZoYDC3AiYuKmKg00DAlGRjb0Lag7E84ujGV57rsSJPsquDNJfR5wV+dAxQ/XnJW5ZxPCu7akru1iQ8O1Dk3uR6k97C9j9O7QXLTNWd7eHdtvL063NecHu16Nyb0BdIdlkyYQUyRmcMLFNnLnlCLSN4Y0kN1tK/s78q7h4reNx2W8+IOShyUkDDhOJXEcmIRgdDMT+WtDjpbmRzK9XY8ax4sDs530beuuo2iuyS9Q+1NYr/B9szY7GnyjSW8phD+LR9+UGIfAZbJqkq0qqA/L5udrfjY0F7xwFxzUUElaA8WP8nUxJ4GA+OM3qepMlSC1RBIKa4YXIDFxXINwqyq5OXx94zLFSx5JlvOuCEqwQamlCNt2yot8fQ5Tb939YUePVpD+6povozmSmh90V9T9D4puKvyzuq882lhuq40nW/h42N9KbC3QyjxeYLTn/z4h6m60AkOlPt7y71jrclXQ3THYXmkezQeE+1hjihs71LFppJ3hHgRsmsjfKAe7C5783lnf9G93qGLXtRGyTSMSRhznCgCoYmJ9UladeSDHrpam5zJdw88q53Idy833e9H7L6nHpHkEbMPGAgsXJjqAy02VwrX5NFfl4K/FenHNbO6ma4qm4+WxGd5ua0aHWqn50fp7cA+YbYgswyGsZMo9aI0jBIWJzwCnQSuUiYiwhQBQxqWya5TBqLd/9h+RyyXWVhZp4GgAFg7KhrrtC3TskgXaPIgiG46+us+P9oI91SCXTU832DbGmxzg25s4PXV4LOS81lhsr443lQc72+jrxx1E9sH1C5yu0STBRQ9cdR33eBceXi6PLjU9r4b08eeLIcRYAn6MBLqGhW48k0N62j+nLKrU7yvhXbW/O0ld2/Zv9pjC17UDJNJGGMcswxLSVJKEoSTticXRvhe2/mmOjifa14td79vTR8NwxeeyNMkL+yCsE+EveHqE202Xw4/L6C/LwUfFukndfNpK11TMauXxGdLYq6od1Wio634q0FyfZre8ewjBEvYGrM9mU4ViIvQKGXZNI0JA0r0y/r5/wzI37ePhfWlyHS3pHSEHEnVVaap47yIH5P4ThBdncizPXa4Ee4s+5uL3rY6me+onT0931fzfbmlFW6sOBuLo83F4bbi4FjHv+qpH7l9LmxZ2gpLymGUd+WDbnCjMrpWGd3poseOyvmmDqpk8ZhFDteBlNhwktBpzNoRf87ZFRfv7aL5ZrC16u2uBZcH/LkfNcJkjOOQxIwkkqSSJAzHGEcjX9SmZGHgP2yN7lTa9+u9p+1xbuhXfNZmcUvZirJ5Ze94+ssO3VcJNxXRx0vBqhJd2zDr2iC29+mS+GxRfLEkN+fUzrI5UI+Pt9OveunVob07tc8CWyG2K6CvCiPQohFRyqQG8wicOVu8JRxfBujvGJdZ3gc0Rz0lx0p0pKhysUTFT4jfdOjFITndRgdr3u6yu73obC25u1r0wMgcnMYHptH+qZnv4M2V6VxhuL0w2FXsn+n6NwP1VMIQ29S2LdM2i5uhzo3JTy33Qct7PqJFP6qjuIPjIY2nHFjhgdFhLMNUjFLZTOQTKS76bFcfb2+Hm+toZyO8OBRPUFwlyYAkAU0ITQRNJIk5NhQrJxA9j9WmuDj0FrqTfH9aGXnNKeqFYiLikQIPjJqyP/n6cpceqYXby+HaYvhZjX/RieYG6ZZOtK2ht1fV9rLaUdQ7S3p3We+v6qN1fbpprnTN3aF57pgqigcs9VSKTcqjlEqFKcEYUbpM/HlbB/v7xiXoVCoJWsBaDrVocLYYhg9c79uhc749Pl4bHigN5vP9HfnhfHG8q+oe6tNTXnQapSdRcsyP9/TIltJk81J/Z76/v9j/uuv/gNSSholD19ihSccKynTaSJbHtDSmDU/1AJJ4SKMJizwVh1ESJjFKI9+afhrV0uihMl8Hcn7At3bopgbZ0STnx+phmBRp2mWpy2AHkbNYUMOJYqEIQjFBYhDwns86Hu35dBSwacg9phHUF0D1S1fZZ77+pkdO19HeGt5UpXNtuXUY7XTtQS854cUnJ/GxXny4Hu+v6j0lsbvA9hfp4RI5VyHX6uSHNlsYq2YQjxgsgnmUgIggxRgHlIb/BMVZaP6ecQncFhloNdGyb0SZ4cee811/cL7RPlKs716s7liobX5e377U2VMaHW54pyfsEo0vcXue2TM4PdCnWwuTzQu9Pbn+0WL/as9/FKqKgdn8KBM9mlGKgXcZmiEyUxL7UMUYO8y4XCMd0zTF1gY2dWzasWnJwvLuHIq2DdVcV2xosm0tfm6i7+F0idkmTycClHcY0ATBJJWDP44IiPKoCXiMZBrKBITPhOGw2klplvAbS5v31fc9cr6JjjTJ9hbf0Ve7nfggtueEvRHZG8Je8uyXPXusofcVCfBLFr29C87RJefLnHuj5P/UZqVp1AsTVyQsiokUmIaY+P+JWE6N6keywskTz7nV711utc5U68dKtaOl5pFy+0xjeKnnfTOlt0N1Tya3pL1E7Ek/3dfhWwru1sXxwdL0y4Z7a0yeE1M3thfZSWLdOPWjBJk4kLEHfIvIo9oj0qPCo9xnHMj82nhRPE2Sfgq634+VvU7SI9N4Q1eva8pPq+yLGjvSU9ed+GFWLtiXqauyVanUjHIa4hDzgGqfxb5IfJkikWKR2XCKhEtLJWjmOdxWgujhWFzr0mMtvKWGtrTw9gHb48izOPpOpXeE/T5Mb02Ta311oQUVS2fLzpnC6Ovi+Hp5cqfmPB/guq+GFIq8WBQBdzhzz2LiDT7ta6mf3zXvw1bichqpQayqgjz1prf7neud5sVG7etG/WKrfaXTvz1xHyO6JExOx/k4fajstdAen6R7WmJzHm3L+cdr4bU+/dFVeRa3Tbb1kVgvTj0d+8qEOiYmISpCjHso9MMwwAjR0GfU5XysdD+Km4l9Ju0tDF4iu/vxpw2zqqo+LPI1RbarIc/1zS0nXiBJG3LxKY0Srg3lHIcIER5w40OVa+plyIVAWUrpSrYvzBJ+LZQsuOb2SJxso7nyZGNtOtfy5wfhWV9+L5KHMn1Ck2cofuSq+2N2p49uNqc3Kv2b1f7d+uBRe1yYoA4RYIKgNYuNiJSMJKg5z3J4M1YtcNjf3L98PTnwxl/fa64gw1IFWjmRHsW6Idkicn8c9++MujcH7ZuDzp3x4Edn+iJENSl7cdxOklZqn0t7I0iPDpLddTmX+YueabLbE/0URVWe9I0dZ14RXpR4KvK4xioSUSJMhBn3EUIhwgQczjxKJ5T3uK7LOKfsD9hedOzhQbqlHa+qRX8vqb/m2Yc5Oldmhxri4kD96Jkii7sy8aMEG/D7CSlGTPhgj2g9CRKkvrCIW8wsoZZSOGJqEbX9MC0FyX1Hn+2gzeXRhspoU32yveOec+g9Fr2QaUHEVR6ViSoiseTiZ0P3YWf4uDN81hsuDcd1Pxhy7mqFjKKR4pHMsJRCZ/nYFYb0H4wlUSrU2jN6EumuFlVOlrD/IvSeIudp6C4QP0/DmqB9IyexGcRACnnB0mtOfKhjdlX53FK4Mx9+1eY/utESTloiHWvwTvNN6qvE56B6RoQROpYqYlxiQmFVli2tPS7H3DRotICTe0F6ZWJP9O2udvpFPf6wYv5WlH/J0b8t4XV5vL0YHm+Qq33+wJV5rHvSOFndZwgFvMZTiZsB6Qlw/wtXgGQzOLOswhCntTB97JmvB3i+PtlSH2+uj+fbk/MO/ombgk4a4PMY91XUl6bLZDMkVTeoul7Vdeue2yN4qoRvJDIC7MxBIQ9qdCGx/kr7I7HkUNeksNa+0U5kRpHuGdU0shGJesQbMW/HopfIcSK9WAaxnJior9MFnFwdRQcaar5E5xbR7kJ4qSufBsDE6UtYh/kKJHqRiAPwYZOEaSGyb7IAGWQB/haaSuNBCVhawumPTnplkJ5qp3sbdnM1XVuJPijr/ymI/5cjf1lEHy/46164O/P+yRq61gVJ/hKFdfA0isM09WP4j456LSgptYxanh0psQTbCbFtYl+g6OqY7m27O5qTrY3hztbw4hQ95apmQGjeTxOUJjhNcBIHRrtSTDkbMTxkaKqoBz5zEmkWSoIERixELCSc/AdhCVrASiOA0ziRmcRmGJtBYnqJ7qdqkKpRqqaJ9GO4krHWHRk/R+bKUB6os91lvD0fHCiHN4ZyiUD5/xhyuSmSKeYJpjHGBoeaESNZrHgMlg/SsKzq2BNxjybVMHniJN8OorMtc6hu5qvRhopZU1EflMVfi/QvefzXpeDjRX/tgrc55+0r+6ca6PqAPPDEEtENFY9TO84ICVNlPZkGmdgEyQxXOez9pwzSQynGdkrBoDZH429ccaiHdrXcHY3xrsbwwsh/hHlFqJ7SbmSCOMJJTOIoNJDEgApAyRxFPSNQolC8giVfxhK/giUUKvyB4+VM15lmcIbagH5E9vV002SaxhNQG9WTRLoZln4kh0o1uX7iy8t9dqCG91bQrpJ/rIFuT2VFpj2duiYlGhQ7KI0pjlgYMaDSxookiqVKphJ8K8F0u8+TMkqeOvHtgTnflIcrfHdFbCmL9WW+psz+XiEflMK/FdEH+eDjnL8m56/PeVsL3p6Sd7KJrgzoXU++4FEjAXVLkGADLBMkYsxjxiJOoQkKSSJCkhCnDrcDbUsyuRWo40O2rxPsbEx21Ybn++4DDxcwazE+kcKDEdFgA0UmSIAgZWAkimQYK5xkOQ3NICgzLEMWEuBuQTebFe+9MbX5xbvvde6TbURnpqbg8RoRE+M4wWmK0sRPE6C/JtpZ7mCVb4AT3GDqicev9PDhanCo6h+semc76L4vmwY06oIoYTpmIoKt9zASQSSCWKJEhamiVkoroozhwW0Vp0+d+PueudSUJypsTwFvL5K5El1fpp9W8MfV8KMK+rAcfFQKVhfRp0W0rhB8kXM356Z7yv7xRnhpyO4ivWjAabGn7VSlnkxAVZtFjJmstNmIzKmcANk8cUU6imzVpD9gc2YiD/fCPQ1nb214oec8cMI8Ik1Cx4y7UgRahRr0XmB7S0I1NU40yRqOZahZCPqjOOTLzq8AJPDWf0V7T1jOXmZGKmAweoELJgaHVtCS8LRyjHKMdCPpwkipwliHsZko0+bmhS++7eNTdf90wz/dCq4M8GMk2+B2GQcmAgt4rjmGonIwZZkBia2glnIbSjsgaTlIn0zi2111scZOl/ChPNq95O8shturbHOdf9Fga5t0TYN8UidrauTzGttU53MVsinvzy1Od+SdvUXvRANdHvK7yLygcUOmI20dGKETDLayJivl0RmWUCmBSOSKZAISuOlPxFx05OkBPtpyjjZG1wfeUw9XMesx4QrpAytRg6yBEAFlAWeBzMRFtcCRIkZmEx+aGZ8yrrImGdSy/rFYZv8f7DX4DEtpQqF9Lh3Gp5yNBZlI6hjuARyaJBFJwPK8L+J8IO8M8PmGd7HtX+6h2xO6QGDFMolMYBSRkjLFQyUQYKlDq7CVBCYjiMK4VfPTJ6PkZttcqLLjueBglmHZteDsLqI9dbazLbZ0xBddsb4j1rX5+pbY0lE7u9F8Q2wpBpsWJpsXJlsWJrvz7ol6eKkv7numxJMBhCYsSLLQ1AxqsmBHllGQSEcUSkSmUdo26TOQjpYXx/hc1z3XGn8/9nOItqgYCRVkghpg7ipVyHhAqE+IR7HHSCBYqATJtAwYlMcJFUloOqsNgqLUXwHn+4jLV/7zrJR9pg4CprQ+h7qnKScTgScSu5r6EQf7qjhicRroZCKSeqifOfzOILw7Jvem7EkgylwOYj2NlG9EKDmZaTaERuBEYiuI5cyG1I7DtB2kC+Po+46+UOWni/jQondwyTuc94+W0LE6PdGVh3t6Z09v6qoNHfVFS25qy919c3ycHOsBR2tfKdiV87YvODsX3YPF4GQV3+jzJ56ukLhNkxGzLksCajCY1GrONIddRhVS6Uvtmqhv4qIwP2F912e3p+Htsf/Ux3XCB1w5mTgKUbOSfkW4CClDlILoESMhBxEKkJrRQoDnk1SR0itYZkSb3x3L2TdhFpEgtACGFppIAzIvmS6YL4UnmSupo7CjsauJb1hoJIsiYRKsUp+D/UoTmyJSRayLxFS5bis5isQ0Yq6hgcryzeDjrDmJObWUWSysQ9NWkOQm8b2uvFSlJwvoSN4/kHOPloIv6/RyV14e6Cvj6MtxfKAfbe6YTS29oam2ttTRUXTJT6+68aWh/rotTlTJvhyCerwFb9+id64SftdljyYq50WNMO3jdEpiRA1hBmpMuaKZOigSwldqonVH6bI0Ba5yVOQIrzMxEACkn2ndUAm+eULAE2cMO8iRi0xpQgqwr8hMgqQWatYUOP+A+c/LltWOv5VB+caDWVERECJ/JafyZUTOzC9nYj1YmgxI0HjzlfA19zR1DXZN6GnsgxeH4NpIlXCREgaJFU/aqQZ28hiyPPE4kpOITCPsZE9BgkK9JtWUxSwDMpB2QNOiE/3U09fr9FTB37843Z9z9ufd0zV8va/vu/aeZ38I7HU3PT5MtrTiuWa0qa53tMCq4A5NfyT2fmDvTtNLbX2sxPYtol3P3O2PJocWvC/L4Tct9mCo817aQOkQJz6NMYsyW0pQ3yKMhoIiyXwtnEiN42iUxKMkHsexE4HcFIIxErpWtuwAtOxcAIZAUnG1XJbHoURPKAVuBzNgll0PMziXEX1nLF/KBfx6LFfgnAUlxOUsKJFUgZRBhqWvqadDX6NAh0hhDFlHJYAPmjAG2c6Qp4FMfBm7KgJNJsOXsTfI1whJkkltKMoiAvWLyZQmbd8s9NmdGrpc8k7mpody02OwXsRX+uKeE70I7TNsnxB7G9kzk3RHN9naijY3zM62/moa32fpE2afEvskSG+PogstdarCj+bD/Qv+0SXvdN69VPbvdOjzial4US+MPBJhGNa0gGkJIxxjgUOJkSK+4TChi1TWtG8U0iqTLAAVHJ5ZxigwsoA2czEAAAE6YC1mxgZCgdDKjMD4moU7ROfvhuWM45zBmS1FsnoScKcFsR6QIIIVleKBJr4OA42QAmtzAnsCknPDWcxpwmi2fGQx5iYUKgA1I+Jr5OvA136gg1BiAqpsivAIs8Ql8RBF1Yl41PRv5IZfLw1PLg2P5SfnGuHlgbrjRi9wUhNQ5JWX9kdqz7t2Vz/d0Ym3Ns3utrngxA95uihtntsCtY/89NYoudIxX9XFiRI5kfOOL4zOLo6+qQUPB7wwVZ1Au8SETAvwThVcEioQkQFW4MMXgvEPhaUFOBmIUAmswAQUgASAlAKXzuUGEQgvkmEI0tpgQ/FGLL569w/Actn9KZOFoULBqCkkhgYzlxC4vAQuWwVYIiJRJncrOcz1I0FiaBR8ybIRhYEDugxD5WfNw8onIszkbwRIQ7LICc3AV5UhfVSb3ljoXFrsfZUbflmeXuuSO270FAO3qGds09iKto+4veiluwfJjm60taV3tdUFJ3rE01zG9qgrqPB6FNg7k/hGT11o0HNF9+SL/pkXvRtV96c+LUxlJ4DtTMwyVx5YyGMqA6J8rLL3phBRhChYV8yUJqgE6SmehZniSnNtVprmWYf6UiA9s1N7Fbw3bv9RWL7U3coUtiABNSPTc2CXgTpRQEVW2S5QJlQgOeAXgesjNYIqCXvmVGR6gVz4THhMuExAlTjnMIfPdBoEZcoP5dgXzRF+0ZjezXVuFfrflcc3m96PI/YcxSWWthXsXbdhLW8f8fSCF+/qm20dNdfkO9r8K8c8YOmiAjX2VgT8nRyzT1F8fyJv9cjVmnN+qff1Uud23Xk2YhVPDrBGXBPABiR7mEQZkD9jSUEeb5YWhzNeAimZUpl9V8T0rBkOUxwYM5fbm8bQ/xFYLheU/MxbB9GwTDkhEznkoeC+4OATKAAYkumyv8yNaUm5omDNrpmvmaeZq5mz0sBvSGfzWcmgDDwMmeOz7ggVm5NHhc7DyvBhY/qkh/KuaNCkp2CPzEmBj1qL7COefO2Z+Z7c0uYbGmRri5ydqh9YuqDBDqab2nZmfVEW8QISjybh963J1WLnar59rzVdmrJmICcUlliZTiXhHFERZBHphdrD2icKMTkrmpwpFS0XMcpM9EYzFUHiarlFEKZvYrksZjXTylmZ9cxA/WPi8mVx0PJcelkMTmTfV5rpvgWS+5JD3iOLsFlcGiikgKBkmWog0sw3zDPUfb15hgaaIkmJAL4a9QM6dnB76Jc7Trnvl8e46vIWOBAnI5VkGnVxP4rrJn7MoguO2tnhW5tkYw1tbaDTI/Y90s94VNZxJ046cdqN0qaKykQsefjpyH/QdR50nRcjVPF5L5Qum/U0DERxGSIiAKch5YXQzQaZjxPJkuAzzVfAcgakYqAw9gaWWWi+Fpf/iVjONAyzI9jtgbBfxqrP4MSZmF+wIulHQZeKmVkDDzDGFAs1RYb6EfUi6sXUjcmseRHxIxJoghTBwCLFJAypj6gT0JHHxkhMiJ5wM+Fg/AMCu8b4sR4YXVfmMVEXJ3xXi2yro00Vb1vVO9ULb7rscSiKXLd11DPxMEr6OmozUUO4imgZsQoS9VC0sRwRGYBcn4CiABYCljwIpR9KH0MLqMRZVTqoEq5cO2A5U4szb2AJhuUqW3LO4MwM21c0WEwmr/NqN/sHxeUsrf7yCIKbmRMmzIW4YsBxy6xxQgXajDMsZ5kUnWFJAUuGDA0i6sfUj4mfZC3OgIwIyrAMJSGcwAY0AdcdhbkhMqYmoVEa6hXtcq2CSA61bCj5BItLY7q3Ee6o+ltKzo6yc7oT3JzixwErUtmRBvSyoniqo6GQPUIHQg51PDLJSEYjplwGWMEy/FUsRYAhOgMiQyZIlm/jMNuBy5evBmWGJYTmSlPgm5i1bMh8DcuZ7sN/AJaviJDCJS33sTA3z/L+DAR1WSarCzdYFpcqU5YtVkIDAAAGyklEQVRVK3FJFMMwt2dg0xq90gwNNcUKhICIoJRTKLjIZB0l4ZrKiKmY6hhS+VIjBZv1QcRHWrSkeI759RE53Aj3VvydRXdf2b3QDX/0+BJWDQ6GuTN5d09HjlATJqZCuTrydOwpA+4+GXsbRhDAEjMWgsUD2KqFBCa0hMGkYDkRmv1+s4/V0NOuqHPOUOSZRGymXAY76Ry0V19t2dfi59TPyuvP/sv/clwe6H5lrmBlyvPm75WvZ9bZwrd1Jg08m7SD7N9yad/yyli+eoKC1clrDRgU4GADW3sZoSnTls9mjJk4ZibFJw0whoE8JkLDUETHmnUkXwzZdyNyooGOVPwDBe9o2b/Ro88CXWVxXyauTpcltVXmLSEUaNirCOsIK0OUphKUeTMss4QPiIPOREOX566Z/O0rl7+y4p9FJ3ynYbchyxq87LSyG7PnZKH8iuru6+dk//iVF3+3m+8ZS8hXrKgXrrzdWS8Ex0wCD8aCV9oM7+VzXv2SZnrBL581e+7yNa1ceKa8C0KZEubOihPNsKFTRXuC5RC9PQjPVP3jRe9wzjlZcG/1aB5FLZaMJRSgIZWAupmMsDCYgyI8VQaWEjDl1OCqPsMykyzmgoLoG7Rsxzi7mNc+4RUsl2dAmRDnyifwM2Y/P2XlGv7xnGyU/vnEd7/1/rF8ZXYtVzqhl/3D7I29VJiZ3X35159RX+5tltWoshhY1ihdvrTXPwoY1iB4NaWGuIoOBC0G5G4fnSu7p3LTYwvjM7np3S6phHGfgxFTqIDNjEVMeES5oRxkU0GkUWoBTUGS7ecfeIezb9PL489/nN16BcuVJPmbp/wv999AFD63f/3nfWO54ni8guirn8i//u7e9RmzZGI23dLEl2TEadnH97v+18Xp2cXxqWeDrxbHDzqkGcZjbn2RYpkSnlAgDwB/gDOYf0iepcKzZBvk2VZ+ZumalXv/5Pc/YvlPTnzrw/+xWL7ShS53U299/+/xQcASkhSSCIVDQRzOGgF50kc3yu6VgnNxaXK96D4bsB4BkgcSKRUg38EzRo+gZiY+/QaWMzhf5t1+4e3+e1iCTuVKV/PrgvLX73n9woX93n9enmEpQRS4vlKf8W7AlgbhnZp/u+J/V/Lv1lBhLCYsQQIiEqqCWCxpJGmkqIHGtOLZnsZKXL5E8XeIy/fygb33Pva9vKt/8UWy2TLo7GZrG85g13Mc8sqYPm7jRy38sEWedVnD1R5PiUgZT8QMRQLcG02ztozl8obGG0C+2uW+/c3923H59pf9Vx79E2HJqKZYg20E5Rx2NLquLAxFcSSLY1V19ADFCISJUw4RaRSBpgFLrZnWTKk3dzNeA/QXPtX/YvkLH9A7/nkWl8CvAk60ATKkYsw4KOq4cddP+mE6piDlQ7jlLIF+lWhFtMYgBaGB8ZflvmEh8hp+r975hffyXyx/4QN6tz/P7KU0o8B7xDiC6amSzCAcj1EyCVOHWI/ZkGW96ywoaYbiDEiqgNORAfm/YPlL3ewrM74ZdeDd3vx7POvP0MdmxhrcAJGExpiArjmVGgjKMSIpohZlQFKWwHyHwTQHYnHWIBsOjBnIWP3zoHw1QN96O0ss/LyMeY8IvftL/RmwVDNjDcpjQhNME5CplxHVisWcpywbI2k2d82cUsAmBUbH5TYj1sDi6a0gveOD7/6J/3Zn/smwZIAl4QkBqSgNC0ewRoF1JNwwkF+cseFWuFFZNhGSOpkTwTsC95bTfjuE3v2V/1xY0ozcR2DlkUBoKg32U2BClWWJl0NwthifZQ5fMosBzbdg9K4Pvfsn/tud+WfAcmZEBf5TFPJyWVzyhIIAvF4xG5tlVbIAhMwq7IjLzPVl5Qj8439jxPztEHr3V/6TYClhyMzsxCiLofGYMqjuyayKgJabsatmKFLJiYKGX2lQFwCbir9yAvTun/hvd+afAcsZE1BxcNY0WbIcliWwMqEmK2BQHJy1ZpZpNOM6zPa+kWYvG4aaEdiw+nU97W+H0Lu/8p8QS8gVZBFpXmIJfA7AEhyCFcMzWsorQCLN/ovlu39pfsszsx0G2MdmHDyVfm4U5B04US+xfB3IwLDALIfmf7H8LRH6V157NrV5E0u+jKUELMEK7ue4VD/3rkA0go4X+tj/jpf/yqf+m52bwfkaFSqjiGVUo8zDhYvlYgEiOZGvTXzIst3drxwsfym995td8+sv/KcYL1cuaRadK8cZ42R5BisyQ+aXq8llPzspyIxkP6thfNfF5FvOW3kLf+TvPxWWr+7Oz8IUOFbLpKMZYWflzuu15Mv0mrdg9K4P/ZEYrvzv/w8Z5JXYzu4uUQAAAABJRU5ErkJggg==;" vertex="1" parent="1">
          <mxGeometry x="450" y="555" width="10" height="9.41" as="geometry" />
        </mxCell>
        <mxCell id="UdDubUNsqIhO31zFjMTl-64" value="" style="shape=image;verticalLabelPosition=bottom;labelBackgroundColor=default;verticalAlign=top;aspect=fixed;imageAspect=0;image=data:image/png,iVBORw0KGgoAAAANSUhEUgAAAEIAAAA6CAIAAACLRxgTAAAW8klEQVRoBbVaB3cT17bmZ7y3Xrn3vXtvGklIQkIKKY/mQuiQ0JLQQg81lNCLwYCx6WCKQzMG04kBUwLEYDv04o6rbMnqdSSNpp1zvrfOjCSEQxxYuXfWXvZIGh3t7+x69t4dCGAQBf6Q4g+3udEANUpUhaYTUUE0UJKwrPEtDTAo8SOqv6kCik4yWCIpYIq+fvyLbRjokMg6A9qhxCfjq8R50mEwFUSFqkJRdNJAKFjimomL0Kd/juhIFEAGk0ATSQZVwFQw7Xc2/QkMhvYug5VEJuJbG5MDU2GIQlYgGUSgMmYAiS6eCCn6i7G3YgJhCsdAIjGSQCQQBVQDayPAOD8dYotwObR/JT7JYqoSB6PxraIqVAURFaIGkSBCqcxIXCRtkfCf5IwwgxhjlDHCF6EKiKxzb2CQYzAMvttwwoAO7bP+7E/1ZRjj6mKsS/g+MY1rlKJAVBEmLMRoiClhRERIElc0QrilcOHo8uFfZlzpNAqNQCOMEEYJZYRwo+KmJSeQGv1yVO3bMPbiMJ7eCg6G7ymjoJRzqmqQCRWpIiDiY34Xddip0wGfB2EBkTCUCDRjc3U70nT5qQqXoqYyojGiUUo4Jh2J/lDcW0TNrA0GvLA0DAxxleQvjYurAye+vYSqEg37mddOWhq1qnJSXcFMdbC3wGtHyAtJgBKCJkIVocQpAkWCqjCNI2GUr8YlExMO4dtE9U2Lb+QTOC8ijTYYonrKdCWJqZWuMEyWWMBHbWa1ukz69Rep5Kp8t1gtv00aK5mjCX4bQi7Ifp0CkAXIQcghyBEoMlc/TTM00NgaXch8d2IqnGggUSR/GgbfIEPdddUnXMsREZnfS60t8sNbwUun/T8d9v2U5zt7WCy5QKpuoqUSriaEHBCdkDyQfZD8XERyuA0MxGWiC/lfA8NwUtzP6HZh/NUIFA2hMLxuajFFbhX5Th1w7N9i3b3esnON78Qeueg0KytC00O4G+BvQciGiAsRDyJ+LhBV0oOnLg3dJcSN/l8gDY0lRH4DhuF2GFQCWUUwBJeTmerF4sve/F327HRz1iLTmtnO7LRQ/nbl0mFyuxCPb8JcxsEIrQg7IPmgBDkMohs65V7riYX8sTTiBvM8NxRcRVUKTZdw9CuG69WRqBSyBiEIu43VVUlF5wN525xbl1nWzDItHm9bPcOzYUEoZ41ycheuHcfDq2jWxRJsheyFKkCLMKJQqurelxCmcTL8cQxJgpUnmvjzcB9/hkdayrdcNdyGDoB/GpOGoiIiw+NFcyMtvytfPikc3ODZ9IMtbXLz/JG2RaPdS8cH1s6MZC/XDm+iV/JZRREs5fA2QXJBDTASZlQmTNV46NB0UjXuxFXCf5jEnNUTAMZdh2g4iTPa/o0hjWjM0sMW9+/6+twqVN0qvKzFRCvuaSWXpJ/2CT+u8m6c5Ur71r5gmHvhCP/ir4MrxgXXTQ9u/kE6to0Un0JNCVqrELRC8jA1yKhEmBKPKaqOwYCh/5Lhc/8MjHi4oIzLWVZZRIascO6NbFCKwOuGxUSrHqill+TzeeEjG4WdC/wbpvpWj/It+UJY8qW4ZGh4yQjfkm+cS8cJO5crZ3PY7UJWfxfeZu675EAchgJN4ety+lfA4H6JyTIJBjWfjwoCwkbGEYYYYDYTrbmv/HpRPHdQOJTpz1ns3zItkDU2uHZkeNUQaeUQZfkX4uLB7vmDWmYPdGZMEw5kyBfztEdFsNfB38oDvxYhVNGTEQ7DQPLPg8FFYcRoAk0lIUFx2iRLs+awMp8LQS9EL4JO0vhQvVUYPr/XezDdvmWmc9NET+Y3gczhYuZQNfNLsu4Lkj5EXNbfMSe1bkrP5iVf2zbO8x3eEik+i+YKuJoR8jBFpETWMytNi0lDF4j2z1AqIw8lGo9Qkqh6HOGmumBNudRcS3mWYUXQxgItSmWReHG/Ly/dvm1GS/pI29qh7nWDgusHyRuHsK1fsg1DWMagyIo+9u971IzvWvf9gMZl463ZK4WL+az2AayNCLghi0yT9UxE0zM0Q6+MwP7nTdwQhapADLKAJ2Jp9Fbcc94rFmoeqObH1NXIhBbqqwvfLfDkZ9h3zLZmjmlNG+RM7+db2yec1VfZMgA7BmPzQKzvJ61Mdc7tXj/po9rpqdVzhjVlzPGd2ssqb6OlDj4npDBUiVGNcldruCnDZRnO5E+aOIdBoEgs4KUOc6iu3H7nekvxRW9ZidxURuw1zFdP3BX+G4csu+e2ZIxqXT3EsbK3Nz1VyEiObExVt/fFroHY2g9ZfeRVyZ753Zqndq2d2rN8ar+aZZPdh3ewhyVoquG5YyTEc0SqMsb9uk4cRswh/nkYlECJUJ9Ta20I1ty33/nFUnrRV1EiN5cRayV1lJOWX70Xs00bJ5rSBttX9vWlJQvrksQNvZStySS7N3b3xY6+2NxHWZPqX9itddrHDVO6l09KrVn0rfvQVnb/Bhqr4LEhEuTJPNUY4weRBOIa9afjBl9BY4qo+eyypS5U98BXXuIpux5quKc5HjNbBTPdJGXnvSczmtZ907y8rystNZSeFMlKUrcmkexktisFe1Kxqy92DFCz+gqLe9i/+6h5avfHUz5vWDLem7eVPbiBxkp4rIgIPCXhB0GuAAlkWOezD6nPH/4MGGHVZ5PMj8XGh6HaW6HaX2VLGfXWo/Uhq76qlRz2HFratHqoeWmqb1WynNFL25xEdyWxnGREqQ/2DFI39Qsu7eGc+oF5areGqb2bl37rP7SZ3b2KugdwmBB0QwryI1O0fvAkWukViLaB70WjOOX6qoSIz6q2Viumh3L9LaX+V631AfPUsObb5EGBfHmXZ9+8llWDbcuThfQkLasX3ZbEcpKwLwn7dfqxN3L6q5s+Dy7+zDn5XcvkT5omJ5kXjgrsXcuuF+DRdTQ+gqOBH0giAX6ooopeCYkfMJ6NQT/9tZ99xD+lhC+qBJnfQq2V1HSP1JeQuhvUfBvOMlpfpP56JHImy7t7hnXVANfKpPC6XmxTT7azFweQm4RDOu1LxZ4+6sYkYdFHjkmdLBM+ME3oZpk7TNi+lJ3PxY2f8OAa6u6gtQZ+K8JejoRp0bP770LgHzy3UlHCz/eSH+5GmO6xmuuk7IL28BytvQrLTVJZKF/NCeev9GVPcqb3961OkrKSsK0XcnTujyQhvxeng8nISVE39Agset8x6fXW8Z1bxnVtndEvkDFdy91AzuzRrhwht87T6lK0VsNrgRTgdRJ+LGtHoV4MhsbrRqIbrZWovKrdOiVd3R++tEe5dYw9vkTuHpXObQztmxfYOsa7tl9wXYqyORm7knEgGUdTcCIZJ5M45fXC3l7qps+EJe85p3a0TehkGfuudVJ336IRUtasyK5lYt566ewerfQMOJLHENw8seL1lHZl8SLSUHkRIOhA4z3cPqNc/jF0IjNweJV4Ybt2K0+5kh0+sjSwfVJg4whhXV8xK1XdnoIfU3E4FadSUZCCgmQUJOFoT+zvoW75OLSis3vGa45Jr1vHvGkb94FneoqwYFhg1be+jTMD+1ZK53i+iPoH3P8qEk/YeUmkveu5lYqo0MIIWNnjUlaUJ5/eJOxb4t05W8hdLJ5aE8pb5NsxyZUxzJcxMLi+d2RzqrYrFQd641hvnO2Nwt64kIrCZJzsiUPdtR1dxdWd/XNf83zX0Tmuo33MW87xH7mn9HTM7te6cJg9Y0owL4P9chQVpbA3Qwzz/PBPwTDwG3rJa7Mh+My0/Bq5sDuSlxbYPsO9fox3wzjflgnuzK9tqwZal6V40pODWcny9hSNi6I3Tn2OC33wcx/8/Dkup+KnXsjvRvZ0ldZ3Di1+PTDrNe/EV52jX7OPerP163dMYz+sm/B/jfOGeLMXsMK9uHcV5noEA5ClfwYMvQTFhRvxM2ejdrdQOrExuHu+N2Osc+kg17IB7mX9nEtSrIu6Wxd96k3vFt7cS9mdTHJ743gfnO2HK/3xS3/80g+/9EFhCk72oAc+Ubd1kdLfCi98XZj+qm/8K45Rr1iGvdIw/I2qkW8/ntLLnTWdntmBmxdgqkHABynCk+t2r99XqqgoGNMIUVQaDjK/k5qrpesnhANpng1THEuHWL/v6Zjb3T2/m3vhp67FXd3LuwrrP4vs6KnsTyFHP0dBf1weiOtDUDoEpYNROghX+uJcMjvWnez9WNvSRVn9tvzDG+K0V/3fvuL46h+mEa9UDe/4eMKn7ozJ9ORWlJ7j6Ynfy8unRD+B/z6SDs9oaiQg5+VhVdMkmQh+5rGShkfipTxv9kLHqlGtc1ItUz60T3/fNfs97w/v+Zd2EVZ/IG7+VM7poR1OpWf64tIgXP8Ct0bg7kjcG4F7w1E8mCvY2SSW343t/Zht6kJXdFLnvBac8pJ71P80j/h71Zcv1Yz7yLVmAj2+GSUFaKjgVVNR5LmV0Ub4HSR/BIMyomhqRCYBH3NbSf3D8IVc97b59hVfWWb1NE98x/bdW+6Zb/h/6BRa8XZk/Xty9idqbi9y6nN6cSCuf4lbX+HhWJSPQ8U4VIzB3REoGYwrfbjXyu+GnR9g3VvawleD0/7mHP1fjSP+UjbkbxVj3nekj6cntqH0PJp0aYRFXsEg7YWODlztEtOWRNAMjDCqaFrEkIaNNDwKXcx1b51vWz7SPLNby4Q3bVM7ema+HFz4WmT1m+qmztreT+jxZHqhPyv6Ene+wqNxqJmK2mmo+w51U1AxFvdH6NrVBwW9sP8jbHxLXfZyYOZfraP/vXbEf94b/NcHo7tY10ykp3bi5iU0P0bADzECRa+MJahJG6l04DGyDRLjaaNQbsCQZBISmM9BTBXiz0d82Ysdad+YZ/donvimfdqr3tl/Dy15Wc54nWS/Qw9/ys6lsqLBuD2SS6D2O5jmomU+zPPQMgf1U1E1BveHoWQgLqcg/2PseEtd/bJvzl/M3/5b9Tf/fWfYP+6P/8SaOY0U7MXdazA3ICggInEYmt4MacN+7KUOI96neKqNxUtPjFCqakRWqBhkgptaapQbp8MH1ngzJ1oX9G6Z3tk+u6Nv/t/CK19SNnWk+95hpz9j1/rgzlCuQo1TOfeO5XClwbUSrhWwzEXjZFSOwt0vcP1znP4Mezsrma96F/1v85T/qJ700v3x7zz6vq8teyG9fBSPSmFt4fUKWX5S3Yvx3eZ/B705kVCJM6KEntvrpX5KNY17qkiYhbzM3kBuX1RPbAvu+N6xYrBlzoeOHzr5Fv89vPYf6o6OLO8dFHbDzf6o+AoNE2H9Hu6lCGQguBHBDRAy4VoKy0zUjUPZcNzsh8LuyHtf2famJ+1l0+y/Pp79Vtmc7lVp3zhz19Eb51B9H04rd1OqwvWl3bTqWTCiGKjeYKBUI0TVqBxhYgDuFlpeTC8fEnNXujNHWxf3cC3r4l/xcjjrFTXnDRx/F1d64P5g1I6BZRo8CyCkI7IN8k5O0nb4V8H+PZrGo3IE7vbHlV440VXJedeT2al58WuNK/6vbu1Q0845voI99H4RGqvhdfLYp6k8/P2+YRhtGqOFFeuKPo3BaJVQjTBeEAnCZ2MND9ntC9JP27w7Z9jTB7jTP/OveSO8paO6vxNOd8H1JJQPhWk8HLMgLEMkC2oOyAGQ/SA/IrQOrnlomYCaEbjfD0UpONtNyfvEt+ND85r3LFsGWvfOcJ3OCpecZLX3YTMh6OOiIM+TU/GOV0xkz8AQlQlTFcgiBA9a61FzW7522J+73LlplGdDqjezc3B7J/ng2/Sn91lxCqqGwzwJnnkQV0HZCpoL5IMdBj3IUfkXwDoJdSPxsD+70ZsWJsnHevp/7Gnd3MN5YKyvIC1UfFCpvMqstfDZIIU4Bt5b/4NLVyrEYHD9M/qhMe4JZVQnTa9QhQW4bWiple9cDJzZ6sqZ6drxhXPTh77szuGDnZXT72s3UljVcGaeAu9CSOug7gY7BnYSJB/qQUibEF4Kz3SYRqFsACnuo5xLEY+m+g72s+cM8Z6aE7qxXa48q5nvIGCG6OGHcmr0gJ4TRvwxvZVHEy4OgzHeglM13lMV/HA5lKrbwat5nvw0575xtu09XLs+9B3sEj75gVSUqlWMoObvmG8JlI3Q9oGdAS1g2nEm50LeCjkNgdmsZSwtH6jc6C8W9AkeHeDLH+k+MkG4ki6XHyGWYuargewCCepnpnjRPs7iM25i0kj4iMsj4Yr1KPX6uazyYCQE1aYa8faFQGG2+9g8294h9r1JjoOfuY5/HLjWN/Loa8U0XXMvo5HNTDkIeha0kKmnmZQPKRtiOvXOURrHRe4NCv8yWCj4Qjj1tVDwnVC4OHJnt2a6xPzliJhBBT6qwEN3zGj/2MSf9gJRvtv8o3rFSCGQNIgKsVnkqlvhkhPewvX2o5Nb84Y2H+ptOtLDfnmQ//6YcN0sybZCC2ymYi7TzoNcgnoe8hmEc+Bfq1nnhirHeYoHe38e7j07OnB2WvjqCqV0m/b4NHPfgWyC5uYYeGWERmHEA1rCdifePlsabSDwl0bRSGU8oEqMerxac61UcUP4NddzebXt7KyW02OaTg1tvTrafW9K4PG8sHmV7N6qBfKoVMjkK5B+RuQCC+RS1waleYlQPtNVOs59fZr32nyhKF2+s5tVnIClGOE6UDdYSB8fieVFvKmiI/p9gXTQ20RPTafw1qpu54l/9TkIxqOpwiAzGgxTt0NrrZPqb4jlJ4T7ezy31jtLl7ruLnY9WuitWS6YMkTbDtl1WPNfIMJVJlxjwjXNfVK25USat4j1G0LVGeHq7WLVPqnmuFZ/Ec0lcFdDsoOF+fSOkdBGY/FzwNAriuzp5JBPTrQhbuZUf1dlTGZMUpkospCPepuI46HaWiSbCsT6Q4HaXe7qTE/tBn/TtpAlJ2I/rrgua+7r1FvMfKWq46JoOS6aj8jW45r9NHFcIq4S6rrPXJVw1yFo5wfMaPIUc56JnLUjjd/CaAPAeGnUIjkSPuDCGO9iEh6bZD/CNhasp/6HmvuGaD8XsBwOWA6FrEcizhOy66LqKSWeu9T3gPnLVPfNiP2a5LimeUsRvIdwJcRGiGaEbQi6eGtcU56k43FR/HG1DR2eEwbRrYMXcklsgoDHSr14pYaZ4mVyK5XqNPGBEipWgkVqsEgL3SChuzRUyYK1LNTIwiYq1Gr+ChKoomI9VDNUOzQPtABvJcsiVJkvbXD/zL+JRv30/XPD4EcPvTKse6zotBePm4YFKdwumZdRCyP1TKthajUnpQGyGZINshOyGxEHi1iZpHPPgroZSHxwjcYm4eIpYBsYTzP921fPMHFdhtEBCiOERv/q3oBzTTnvhvLykxUnQrnthxnzgzpB7NB0Ul1QfFD0/VZCegM/AE0ADfMhNj6Rp3Jj4FNUxoxSzCQSYfyW69+88wwYiSs8df+0GzbCkm4s0PMeQqEyKoOIvDBnDOioEZ5QRBuRepeYT9vpA3fclOOzfrE5q/ZU6ileEoIif/8ZceM3UKNvGChigy5cZrpxMGPK0NhSSvWZgnifiHfl9ca8pjtrrjOJrqed+/aYboPhhWDo60Z1Tdejp2BA70dwfeOxxYiSin5jAODjUTpwPUQZeVL8rx4l4uN+0ZGa2NNcexPyqmfDe35pGN83YocxvMgHnAgfyIzpuN4ejL6WY8qvz4ZyA+JWFd3H+KiifkjgCYIeLow52OiQqhGX48bZPpLnh2HkaLouRZ3WE6Uy1Nx4HZ+k5TbMDTjq4Fi8cRffXu4nouKLbQXXUKaXpYxIEDOaPxDIC8HgSAx3pf+GEUVivS1jPEyLTgNHwRgs8ckoTacnVRidL8p4F8YQ5xPHpY+zcTkbuhvPp2JBPFGvonb7/zTZVUnMaBgFAAAAAElFTkSuQmCC;" vertex="1" parent="1">
          <mxGeometry x="650" y="555" width="10" height="8.79" as="geometry" />
        </mxCell>
        <mxCell id="UdDubUNsqIhO31zFjMTl-65" value="" style="shape=image;verticalLabelPosition=bottom;labelBackgroundColor=default;verticalAlign=top;aspect=fixed;imageAspect=0;image=data:image/png,iVBORw0KGgoAAAANSUhEUgAAAEIAAAA6CAIAAACLRxgTAAAW8klEQVRoBbVaB3cT17bmZ7y3Xrn3vXtvGklIQkIKKY/mQuiQ0JLQQg81lNCLwYCx6WCKQzMG04kBUwLEYDv04o6rbMnqdSSNpp1zvrfOjCSEQxxYuXfWXvZIGh3t7+x69t4dCGAQBf6Q4g+3udEANUpUhaYTUUE0UJKwrPEtDTAo8SOqv6kCik4yWCIpYIq+fvyLbRjokMg6A9qhxCfjq8R50mEwFUSFqkJRdNJAKFjimomL0Kd/juhIFEAGk0ATSQZVwFQw7Xc2/QkMhvYug5VEJuJbG5MDU2GIQlYgGUSgMmYAiS6eCCn6i7G3YgJhCsdAIjGSQCQQBVQDayPAOD8dYotwObR/JT7JYqoSB6PxraIqVAURFaIGkSBCqcxIXCRtkfCf5IwwgxhjlDHCF6EKiKxzb2CQYzAMvttwwoAO7bP+7E/1ZRjj6mKsS/g+MY1rlKJAVBEmLMRoiClhRERIElc0QrilcOHo8uFfZlzpNAqNQCOMEEYJZYRwo+KmJSeQGv1yVO3bMPbiMJ7eCg6G7ymjoJRzqmqQCRWpIiDiY34Xddip0wGfB2EBkTCUCDRjc3U70nT5qQqXoqYyojGiUUo4Jh2J/lDcW0TNrA0GvLA0DAxxleQvjYurAye+vYSqEg37mddOWhq1qnJSXcFMdbC3wGtHyAtJgBKCJkIVocQpAkWCqjCNI2GUr8YlExMO4dtE9U2Lb+QTOC8ijTYYonrKdCWJqZWuMEyWWMBHbWa1ukz69Rep5Kp8t1gtv00aK5mjCX4bQi7Ifp0CkAXIQcghyBEoMlc/TTM00NgaXch8d2IqnGggUSR/GgbfIEPdddUnXMsREZnfS60t8sNbwUun/T8d9v2U5zt7WCy5QKpuoqUSriaEHBCdkDyQfZD8XERyuA0MxGWiC/lfA8NwUtzP6HZh/NUIFA2hMLxuajFFbhX5Th1w7N9i3b3esnON78Qeueg0KytC00O4G+BvQciGiAsRDyJ+LhBV0oOnLg3dJcSN/l8gDY0lRH4DhuF2GFQCWUUwBJeTmerF4sve/F327HRz1iLTmtnO7LRQ/nbl0mFyuxCPb8JcxsEIrQg7IPmgBDkMohs65V7riYX8sTTiBvM8NxRcRVUKTZdw9CuG69WRqBSyBiEIu43VVUlF5wN525xbl1nWzDItHm9bPcOzYUEoZ41ycheuHcfDq2jWxRJsheyFKkCLMKJQqurelxCmcTL8cQxJgpUnmvjzcB9/hkdayrdcNdyGDoB/GpOGoiIiw+NFcyMtvytfPikc3ODZ9IMtbXLz/JG2RaPdS8cH1s6MZC/XDm+iV/JZRREs5fA2QXJBDTASZlQmTNV46NB0UjXuxFXCf5jEnNUTAMZdh2g4iTPa/o0hjWjM0sMW9+/6+twqVN0qvKzFRCvuaSWXpJ/2CT+u8m6c5Ur71r5gmHvhCP/ir4MrxgXXTQ9u/kE6to0Un0JNCVqrELRC8jA1yKhEmBKPKaqOwYCh/5Lhc/8MjHi4oIzLWVZZRIascO6NbFCKwOuGxUSrHqill+TzeeEjG4WdC/wbpvpWj/It+UJY8qW4ZGh4yQjfkm+cS8cJO5crZ3PY7UJWfxfeZu675EAchgJN4ety+lfA4H6JyTIJBjWfjwoCwkbGEYYYYDYTrbmv/HpRPHdQOJTpz1ns3zItkDU2uHZkeNUQaeUQZfkX4uLB7vmDWmYPdGZMEw5kyBfztEdFsNfB38oDvxYhVNGTEQ7DQPLPg8FFYcRoAk0lIUFx2iRLs+awMp8LQS9EL4JO0vhQvVUYPr/XezDdvmWmc9NET+Y3gczhYuZQNfNLsu4Lkj5EXNbfMSe1bkrP5iVf2zbO8x3eEik+i+YKuJoR8jBFpETWMytNi0lDF4j2z1AqIw8lGo9Qkqh6HOGmumBNudRcS3mWYUXQxgItSmWReHG/Ly/dvm1GS/pI29qh7nWDgusHyRuHsK1fsg1DWMagyIo+9u971IzvWvf9gMZl463ZK4WL+az2AayNCLghi0yT9UxE0zM0Q6+MwP7nTdwQhapADLKAJ2Jp9Fbcc94rFmoeqObH1NXIhBbqqwvfLfDkZ9h3zLZmjmlNG+RM7+db2yec1VfZMgA7BmPzQKzvJ61Mdc7tXj/po9rpqdVzhjVlzPGd2ssqb6OlDj4npDBUiVGNcldruCnDZRnO5E+aOIdBoEgs4KUOc6iu3H7nekvxRW9ZidxURuw1zFdP3BX+G4csu+e2ZIxqXT3EsbK3Nz1VyEiObExVt/fFroHY2g9ZfeRVyZ753Zqndq2d2rN8ar+aZZPdh3ewhyVoquG5YyTEc0SqMsb9uk4cRswh/nkYlECJUJ9Ta20I1ty33/nFUnrRV1EiN5cRayV1lJOWX70Xs00bJ5rSBttX9vWlJQvrksQNvZStySS7N3b3xY6+2NxHWZPqX9itddrHDVO6l09KrVn0rfvQVnb/Bhqr4LEhEuTJPNUY4weRBOIa9afjBl9BY4qo+eyypS5U98BXXuIpux5quKc5HjNbBTPdJGXnvSczmtZ907y8rystNZSeFMlKUrcmkexktisFe1Kxqy92DFCz+gqLe9i/+6h5avfHUz5vWDLem7eVPbiBxkp4rIgIPCXhB0GuAAlkWOezD6nPH/4MGGHVZ5PMj8XGh6HaW6HaX2VLGfXWo/Uhq76qlRz2HFratHqoeWmqb1WynNFL25xEdyWxnGREqQ/2DFI39Qsu7eGc+oF5areGqb2bl37rP7SZ3b2KugdwmBB0QwryI1O0fvAkWukViLaB70WjOOX6qoSIz6q2Viumh3L9LaX+V631AfPUsObb5EGBfHmXZ9+8llWDbcuThfQkLasX3ZbEcpKwLwn7dfqxN3L6q5s+Dy7+zDn5XcvkT5omJ5kXjgrsXcuuF+DRdTQ+gqOBH0giAX6ooopeCYkfMJ6NQT/9tZ99xD+lhC+qBJnfQq2V1HSP1JeQuhvUfBvOMlpfpP56JHImy7t7hnXVANfKpPC6XmxTT7azFweQm4RDOu1LxZ4+6sYkYdFHjkmdLBM+ME3oZpk7TNi+lJ3PxY2f8OAa6u6gtQZ+K8JejoRp0bP770LgHzy3UlHCz/eSH+5GmO6xmuuk7IL28BytvQrLTVJZKF/NCeev9GVPcqb3961OkrKSsK0XcnTujyQhvxeng8nISVE39Agset8x6fXW8Z1bxnVtndEvkDFdy91AzuzRrhwht87T6lK0VsNrgRTgdRJ+LGtHoV4MhsbrRqIbrZWovKrdOiVd3R++tEe5dYw9vkTuHpXObQztmxfYOsa7tl9wXYqyORm7knEgGUdTcCIZJ5M45fXC3l7qps+EJe85p3a0TehkGfuudVJ336IRUtasyK5lYt566ewerfQMOJLHENw8seL1lHZl8SLSUHkRIOhA4z3cPqNc/jF0IjNweJV4Ybt2K0+5kh0+sjSwfVJg4whhXV8xK1XdnoIfU3E4FadSUZCCgmQUJOFoT+zvoW75OLSis3vGa45Jr1vHvGkb94FneoqwYFhg1be+jTMD+1ZK53i+iPoH3P8qEk/YeUmkveu5lYqo0MIIWNnjUlaUJ5/eJOxb4t05W8hdLJ5aE8pb5NsxyZUxzJcxMLi+d2RzqrYrFQd641hvnO2Nwt64kIrCZJzsiUPdtR1dxdWd/XNf83zX0Tmuo33MW87xH7mn9HTM7te6cJg9Y0owL4P9chQVpbA3Qwzz/PBPwTDwG3rJa7Mh+My0/Bq5sDuSlxbYPsO9fox3wzjflgnuzK9tqwZal6V40pODWcny9hSNi6I3Tn2OC33wcx/8/Dkup+KnXsjvRvZ0ldZ3Di1+PTDrNe/EV52jX7OPerP163dMYz+sm/B/jfOGeLMXsMK9uHcV5noEA5ClfwYMvQTFhRvxM2ejdrdQOrExuHu+N2Osc+kg17IB7mX9nEtSrIu6Wxd96k3vFt7cS9mdTHJ743gfnO2HK/3xS3/80g+/9EFhCk72oAc+Ubd1kdLfCi98XZj+qm/8K45Rr1iGvdIw/I2qkW8/ntLLnTWdntmBmxdgqkHABynCk+t2r99XqqgoGNMIUVQaDjK/k5qrpesnhANpng1THEuHWL/v6Zjb3T2/m3vhp67FXd3LuwrrP4vs6KnsTyFHP0dBf1weiOtDUDoEpYNROghX+uJcMjvWnez9WNvSRVn9tvzDG+K0V/3fvuL46h+mEa9UDe/4eMKn7ozJ9ORWlJ7j6Ynfy8unRD+B/z6SDs9oaiQg5+VhVdMkmQh+5rGShkfipTxv9kLHqlGtc1ItUz60T3/fNfs97w/v+Zd2EVZ/IG7+VM7poR1OpWf64tIgXP8Ct0bg7kjcG4F7w1E8mCvY2SSW343t/Zht6kJXdFLnvBac8pJ71P80j/h71Zcv1Yz7yLVmAj2+GSUFaKjgVVNR5LmV0Ub4HSR/BIMyomhqRCYBH3NbSf3D8IVc97b59hVfWWb1NE98x/bdW+6Zb/h/6BRa8XZk/Xty9idqbi9y6nN6cSCuf4lbX+HhWJSPQ8U4VIzB3REoGYwrfbjXyu+GnR9g3VvawleD0/7mHP1fjSP+UjbkbxVj3nekj6cntqH0PJp0aYRFXsEg7YWODlztEtOWRNAMjDCqaFrEkIaNNDwKXcx1b51vWz7SPLNby4Q3bVM7ema+HFz4WmT1m+qmztreT+jxZHqhPyv6Ene+wqNxqJmK2mmo+w51U1AxFvdH6NrVBwW9sP8jbHxLXfZyYOZfraP/vXbEf94b/NcHo7tY10ykp3bi5iU0P0bADzECRa+MJahJG6l04DGyDRLjaaNQbsCQZBISmM9BTBXiz0d82Ysdad+YZ/donvimfdqr3tl/Dy15Wc54nWS/Qw9/ys6lsqLBuD2SS6D2O5jmomU+zPPQMgf1U1E1BveHoWQgLqcg/2PseEtd/bJvzl/M3/5b9Tf/fWfYP+6P/8SaOY0U7MXdazA3ICggInEYmt4MacN+7KUOI96neKqNxUtPjFCqakRWqBhkgptaapQbp8MH1ngzJ1oX9G6Z3tk+u6Nv/t/CK19SNnWk+95hpz9j1/rgzlCuQo1TOfeO5XClwbUSrhWwzEXjZFSOwt0vcP1znP4Mezsrma96F/1v85T/qJ700v3x7zz6vq8teyG9fBSPSmFt4fUKWX5S3Yvx3eZ/B705kVCJM6KEntvrpX5KNY17qkiYhbzM3kBuX1RPbAvu+N6xYrBlzoeOHzr5Fv89vPYf6o6OLO8dFHbDzf6o+AoNE2H9Hu6lCGQguBHBDRAy4VoKy0zUjUPZcNzsh8LuyHtf2famJ+1l0+y/Pp79Vtmc7lVp3zhz19Eb51B9H04rd1OqwvWl3bTqWTCiGKjeYKBUI0TVqBxhYgDuFlpeTC8fEnNXujNHWxf3cC3r4l/xcjjrFTXnDRx/F1d64P5g1I6BZRo8CyCkI7IN8k5O0nb4V8H+PZrGo3IE7vbHlV440VXJedeT2al58WuNK/6vbu1Q0845voI99H4RGqvhdfLYp6k8/P2+YRhtGqOFFeuKPo3BaJVQjTBeEAnCZ2MND9ntC9JP27w7Z9jTB7jTP/OveSO8paO6vxNOd8H1JJQPhWk8HLMgLEMkC2oOyAGQ/SA/IrQOrnlomYCaEbjfD0UpONtNyfvEt+ND85r3LFsGWvfOcJ3OCpecZLX3YTMh6OOiIM+TU/GOV0xkz8AQlQlTFcgiBA9a61FzW7522J+73LlplGdDqjezc3B7J/ng2/Sn91lxCqqGwzwJnnkQV0HZCpoL5IMdBj3IUfkXwDoJdSPxsD+70ZsWJsnHevp/7Gnd3MN5YKyvIC1UfFCpvMqstfDZIIU4Bt5b/4NLVyrEYHD9M/qhMe4JZVQnTa9QhQW4bWiple9cDJzZ6sqZ6drxhXPTh77szuGDnZXT72s3UljVcGaeAu9CSOug7gY7BnYSJB/qQUibEF4Kz3SYRqFsACnuo5xLEY+m+g72s+cM8Z6aE7qxXa48q5nvIGCG6OGHcmr0gJ4TRvwxvZVHEy4OgzHeglM13lMV/HA5lKrbwat5nvw0575xtu09XLs+9B3sEj75gVSUqlWMoObvmG8JlI3Q9oGdAS1g2nEm50LeCjkNgdmsZSwtH6jc6C8W9AkeHeDLH+k+MkG4ki6XHyGWYuargewCCepnpnjRPs7iM25i0kj4iMsj4Yr1KPX6uazyYCQE1aYa8faFQGG2+9g8294h9r1JjoOfuY5/HLjWN/Loa8U0XXMvo5HNTDkIeha0kKmnmZQPKRtiOvXOURrHRe4NCv8yWCj4Qjj1tVDwnVC4OHJnt2a6xPzliJhBBT6qwEN3zGj/2MSf9gJRvtv8o3rFSCGQNIgKsVnkqlvhkhPewvX2o5Nb84Y2H+ptOtLDfnmQ//6YcN0sybZCC2ymYi7TzoNcgnoe8hmEc+Bfq1nnhirHeYoHe38e7j07OnB2WvjqCqV0m/b4NHPfgWyC5uYYeGWERmHEA1rCdifePlsabSDwl0bRSGU8oEqMerxac61UcUP4NddzebXt7KyW02OaTg1tvTrafW9K4PG8sHmV7N6qBfKoVMjkK5B+RuQCC+RS1waleYlQPtNVOs59fZr32nyhKF2+s5tVnIClGOE6UDdYSB8fieVFvKmiI/p9gXTQ20RPTafw1qpu54l/9TkIxqOpwiAzGgxTt0NrrZPqb4jlJ4T7ezy31jtLl7ruLnY9WuitWS6YMkTbDtl1WPNfIMJVJlxjwjXNfVK25USat4j1G0LVGeHq7WLVPqnmuFZ/Ec0lcFdDsoOF+fSOkdBGY/FzwNAriuzp5JBPTrQhbuZUf1dlTGZMUpkospCPepuI46HaWiSbCsT6Q4HaXe7qTE/tBn/TtpAlJ2I/rrgua+7r1FvMfKWq46JoOS6aj8jW45r9NHFcIq4S6rrPXJVw1yFo5wfMaPIUc56JnLUjjd/CaAPAeGnUIjkSPuDCGO9iEh6bZD/CNhasp/6HmvuGaD8XsBwOWA6FrEcizhOy66LqKSWeu9T3gPnLVPfNiP2a5LimeUsRvIdwJcRGiGaEbQi6eGtcU56k43FR/HG1DR2eEwbRrYMXcklsgoDHSr14pYaZ4mVyK5XqNPGBEipWgkVqsEgL3SChuzRUyYK1LNTIwiYq1Gr+ChKoomI9VDNUOzQPtABvJcsiVJkvbXD/zL+JRv30/XPD4EcPvTKse6zotBePm4YFKdwumZdRCyP1TKthajUnpQGyGZINshOyGxEHi1iZpHPPgroZSHxwjcYm4eIpYBsYTzP921fPMHFdhtEBCiOERv/q3oBzTTnvhvLykxUnQrnthxnzgzpB7NB0Ul1QfFD0/VZCegM/AE0ADfMhNj6Rp3Jj4FNUxoxSzCQSYfyW69+88wwYiSs8df+0GzbCkm4s0PMeQqEyKoOIvDBnDOioEZ5QRBuRepeYT9vpA3fclOOzfrE5q/ZU6ileEoIif/8ZceM3UKNvGChigy5cZrpxMGPK0NhSSvWZgnifiHfl9ca8pjtrrjOJrqed+/aYboPhhWDo60Z1Tdejp2BA70dwfeOxxYiSin5jAODjUTpwPUQZeVL8rx4l4uN+0ZGa2NNcexPyqmfDe35pGN83YocxvMgHnAgfyIzpuN4ejL6WY8qvz4ZyA+JWFd3H+KiifkjgCYIeLow52OiQqhGX48bZPpLnh2HkaLouRZ3WE6Uy1Nx4HZ+k5TbMDTjq4Fi8cRffXu4nouKLbQXXUKaXpYxIEDOaPxDIC8HgSAx3pf+GEUVivS1jPEyLTgNHwRgs8ckoTacnVRidL8p4F8YQ5xPHpY+zcTkbuhvPp2JBPFGvonb7/zTZVUnMaBgFAAAAAElFTkSuQmCC;" vertex="1" parent="1">
          <mxGeometry x="450" y="641.21" width="10" height="8.79" as="geometry" />
        </mxCell>
        <mxCell id="UdDubUNsqIhO31zFjMTl-67" value="" style="endArrow=none;dashed=1;html=1;dashPattern=1 3;strokeWidth=2;rounded=0;" edge="1" parent="1">
          <mxGeometry width="50" height="50" relative="1" as="geometry">
            <mxPoint x="580" y="590" as="sourcePoint" />
            <mxPoint x="600" y="590" as="targetPoint" />
          </mxGeometry>
        </mxCell>
      </root>
    </mxGraphModel>
  </diagram>
</mxfile>
